<mxfile host="app.diagrams.net" agent="Mozilla/5.0 (Windows NT 10.0; Win64; x64) AppleWebKit/537.36 (KHTML, like Gecko) Chrome/130.0.0.0 Safari/537.36" version="24.8.6">
  <diagram name="Page-1" id="liDPp98yr9BljB4ESul7">
    <mxGraphModel grid="1" page="1" gridSize="10" guides="1" tooltips="1" connect="1" arrows="1" fold="1" pageScale="1" pageWidth="192000" pageHeight="1200000000" math="0" shadow="0">
      <root>
        <mxCell id="0" />
        <mxCell id="1" parent="0" />
        <mxCell id="KjGgUwtwHEyZhzQTIDNN-1" value="Administrator" style="swimlane;fontStyle=1;align=center;verticalAlign=top;childLayout=stackLayout;horizontal=1;startSize=26;horizontalStack=0;resizeParent=1;resizeParentMax=0;resizeLast=0;collapsible=1;marginBottom=0;whiteSpace=wrap;html=1;movable=1;resizable=1;rotatable=1;deletable=1;editable=1;locked=0;connectable=1;" vertex="1" parent="1">
          <mxGeometry x="5670" y="1871" width="310" height="392" as="geometry" />
        </mxCell>
        <mxCell id="KjGgUwtwHEyZhzQTIDNN-2" value="- staffManager: StaffManager" style="text;strokeColor=none;fillColor=none;align=left;verticalAlign=top;spacingLeft=4;spacingRight=4;overflow=hidden;rotatable=1;points=[[0,0.5],[1,0.5]];portConstraint=eastwest;whiteSpace=wrap;html=1;movable=1;resizable=1;deletable=1;editable=1;locked=0;connectable=1;" vertex="1" parent="KjGgUwtwHEyZhzQTIDNN-1">
          <mxGeometry y="26" width="310" height="26" as="geometry" />
        </mxCell>
        <mxCell id="KjGgUwtwHEyZhzQTIDNN-3" value="- inventoryManager: InventoryManager" style="text;strokeColor=none;fillColor=none;align=left;verticalAlign=top;spacingLeft=4;spacingRight=4;overflow=hidden;rotatable=1;points=[[0,0.5],[1,0.5]];portConstraint=eastwest;whiteSpace=wrap;html=1;movable=1;resizable=1;deletable=1;editable=1;locked=0;connectable=1;" vertex="1" parent="KjGgUwtwHEyZhzQTIDNN-1">
          <mxGeometry y="52" width="310" height="26" as="geometry" />
        </mxCell>
        <mxCell id="KjGgUwtwHEyZhzQTIDNN-4" value="- replenishmentManager: ReplenishmentManager" style="text;strokeColor=none;fillColor=none;align=left;verticalAlign=top;spacingLeft=4;spacingRight=4;overflow=hidden;rotatable=1;points=[[0,0.5],[1,0.5]];portConstraint=eastwest;whiteSpace=wrap;html=1;movable=1;resizable=1;deletable=1;editable=1;locked=0;connectable=1;" vertex="1" parent="KjGgUwtwHEyZhzQTIDNN-1">
          <mxGeometry y="78" width="310" height="26" as="geometry" />
        </mxCell>
        <mxCell id="KjGgUwtwHEyZhzQTIDNN-15" value="- appointments: List&amp;lt;Appointment&amp;gt;" style="text;strokeColor=none;fillColor=none;align=left;verticalAlign=top;spacingLeft=4;spacingRight=4;overflow=hidden;rotatable=1;points=[[0,0.5],[1,0.5]];portConstraint=eastwest;whiteSpace=wrap;html=1;movable=1;resizable=1;deletable=1;editable=1;locked=0;connectable=1;" vertex="1" parent="KjGgUwtwHEyZhzQTIDNN-1">
          <mxGeometry y="104" width="310" height="26" as="geometry" />
        </mxCell>
        <mxCell id="KjGgUwtwHEyZhzQTIDNN-16" value="&lt;u&gt;+ admins: List&amp;lt;Administrators&amp;gt;&lt;/u&gt;" style="text;strokeColor=none;fillColor=none;align=left;verticalAlign=top;spacingLeft=4;spacingRight=4;overflow=hidden;rotatable=1;points=[[0,0.5],[1,0.5]];portConstraint=eastwest;whiteSpace=wrap;html=1;movable=1;resizable=1;deletable=1;editable=1;locked=0;connectable=1;" vertex="1" parent="KjGgUwtwHEyZhzQTIDNN-1">
          <mxGeometry y="130" width="310" height="26" as="geometry" />
        </mxCell>
        <mxCell id="KjGgUwtwHEyZhzQTIDNN-14" value="" style="endArrow=none;html=1;rounded=0;exitX=-0.002;exitY=-0.038;exitDx=0;exitDy=0;exitPerimeter=0;movable=1;resizable=1;rotatable=1;deletable=1;editable=1;locked=0;connectable=1;" edge="1" parent="KjGgUwtwHEyZhzQTIDNN-1">
          <mxGeometry width="50" height="50" relative="1" as="geometry">
            <mxPoint x="-0.6200000000000045" y="156.00199999999995" as="sourcePoint" />
            <mxPoint x="310" y="156.99" as="targetPoint" />
          </mxGeometry>
        </mxCell>
        <mxCell id="KjGgUwtwHEyZhzQTIDNN-5" value="+ displayMenu(): void" style="text;strokeColor=none;fillColor=none;align=left;verticalAlign=top;spacingLeft=4;spacingRight=4;overflow=hidden;rotatable=1;points=[[0,0.5],[1,0.5]];portConstraint=eastwest;whiteSpace=wrap;html=1;movable=1;resizable=1;deletable=1;editable=1;locked=0;connectable=1;" vertex="1" parent="KjGgUwtwHEyZhzQTIDNN-1">
          <mxGeometry y="156" width="310" height="26" as="geometry" />
        </mxCell>
        <mxCell id="KjGgUwtwHEyZhzQTIDNN-7" value="+ addStaff(): void" style="text;strokeColor=none;fillColor=none;align=left;verticalAlign=top;spacingLeft=4;spacingRight=4;overflow=hidden;rotatable=1;points=[[0,0.5],[1,0.5]];portConstraint=eastwest;whiteSpace=wrap;html=1;movable=1;resizable=1;deletable=1;editable=1;locked=0;connectable=1;" vertex="1" parent="KjGgUwtwHEyZhzQTIDNN-1">
          <mxGeometry y="182" width="310" height="26" as="geometry" />
        </mxCell>
        <mxCell id="KjGgUwtwHEyZhzQTIDNN-8" value="+ removeStaff(): void" style="text;strokeColor=none;fillColor=none;align=left;verticalAlign=top;spacingLeft=4;spacingRight=4;overflow=hidden;rotatable=1;points=[[0,0.5],[1,0.5]];portConstraint=eastwest;whiteSpace=wrap;html=1;movable=1;resizable=1;deletable=1;editable=1;locked=0;connectable=1;" vertex="1" parent="KjGgUwtwHEyZhzQTIDNN-1">
          <mxGeometry y="208" width="310" height="26" as="geometry" />
        </mxCell>
        <mxCell id="KjGgUwtwHEyZhzQTIDNN-9" value="+ manageInventory(): void" style="text;strokeColor=none;fillColor=none;align=left;verticalAlign=top;spacingLeft=4;spacingRight=4;overflow=hidden;rotatable=1;points=[[0,0.5],[1,0.5]];portConstraint=eastwest;whiteSpace=wrap;html=1;movable=1;resizable=1;deletable=1;editable=1;locked=0;connectable=1;" vertex="1" parent="KjGgUwtwHEyZhzQTIDNN-1">
          <mxGeometry y="234" width="310" height="26" as="geometry" />
        </mxCell>
        <mxCell id="KjGgUwtwHEyZhzQTIDNN-10" value="+ viewDoctorAppointments(): void" style="text;strokeColor=none;fillColor=none;align=left;verticalAlign=top;spacingLeft=4;spacingRight=4;overflow=hidden;rotatable=1;points=[[0,0.5],[1,0.5]];portConstraint=eastwest;whiteSpace=wrap;html=1;movable=1;resizable=1;deletable=1;editable=1;locked=0;connectable=1;" vertex="1" parent="KjGgUwtwHEyZhzQTIDNN-1">
          <mxGeometry y="260" width="310" height="26" as="geometry" />
        </mxCell>
        <mxCell id="KjGgUwtwHEyZhzQTIDNN-11" value="+ displayStaff(): void" style="text;strokeColor=none;fillColor=none;align=left;verticalAlign=top;spacingLeft=4;spacingRight=4;overflow=hidden;rotatable=1;points=[[0,0.5],[1,0.5]];portConstraint=eastwest;whiteSpace=wrap;html=1;movable=1;resizable=1;deletable=1;editable=1;locked=0;connectable=1;" vertex="1" parent="KjGgUwtwHEyZhzQTIDNN-1">
          <mxGeometry y="286" width="310" height="26" as="geometry" />
        </mxCell>
        <mxCell id="KjGgUwtwHEyZhzQTIDNN-12" value="+ approveReplenishmentRequest(): void" style="text;strokeColor=none;fillColor=none;align=left;verticalAlign=top;spacingLeft=4;spacingRight=4;overflow=hidden;rotatable=1;points=[[0,0.5],[1,0.5]];portConstraint=eastwest;whiteSpace=wrap;html=1;movable=1;resizable=1;deletable=1;editable=1;locked=0;connectable=1;" vertex="1" parent="KjGgUwtwHEyZhzQTIDNN-1">
          <mxGeometry y="312" width="310" height="26" as="geometry" />
        </mxCell>
        <mxCell id="KjGgUwtwHEyZhzQTIDNN-13" value="+ Administrator(String hospitalId, String password): " style="text;strokeColor=none;fillColor=none;align=left;verticalAlign=top;spacingLeft=4;spacingRight=4;overflow=hidden;rotatable=1;points=[[0,0.5],[1,0.5]];portConstraint=eastwest;whiteSpace=wrap;html=1;movable=1;resizable=1;deletable=1;editable=1;locked=0;connectable=1;" vertex="1" parent="KjGgUwtwHEyZhzQTIDNN-1">
          <mxGeometry y="338" width="310" height="26" as="geometry" />
        </mxCell>
        <mxCell id="KjGgUwtwHEyZhzQTIDNN-6" value="- logout(): Object" style="text;strokeColor=none;fillColor=none;align=left;verticalAlign=top;spacingLeft=4;spacingRight=4;overflow=hidden;rotatable=1;points=[[0,0.5],[1,0.5]];portConstraint=eastwest;whiteSpace=wrap;html=1;movable=1;resizable=1;deletable=1;editable=1;locked=0;connectable=1;" vertex="1" parent="KjGgUwtwHEyZhzQTIDNN-1">
          <mxGeometry y="364" width="310" height="28" as="geometry" />
        </mxCell>
        <mxCell id="KjGgUwtwHEyZhzQTIDNN-17" value="AllUsers" style="swimlane;fontStyle=1;align=center;verticalAlign=top;childLayout=stackLayout;horizontal=1;startSize=26;horizontalStack=0;resizeParent=1;resizeParentMax=0;resizeLast=0;collapsible=1;marginBottom=0;whiteSpace=wrap;html=1;" vertex="1" parent="1">
          <mxGeometry x="6800" y="930" width="390" height="312" as="geometry">
            <mxRectangle x="6220" y="240" width="90" height="30" as="alternateBounds" />
          </mxGeometry>
        </mxCell>
        <mxCell id="KjGgUwtwHEyZhzQTIDNN-18" value="- hospitalId: String" style="text;strokeColor=none;fillColor=none;align=left;verticalAlign=top;spacingLeft=4;spacingRight=4;overflow=hidden;rotatable=0;points=[[0,0.5],[1,0.5]];portConstraint=eastwest;whiteSpace=wrap;html=1;" vertex="1" parent="KjGgUwtwHEyZhzQTIDNN-17">
          <mxGeometry y="26" width="390" height="26" as="geometry" />
        </mxCell>
        <mxCell id="KjGgUwtwHEyZhzQTIDNN-19" value="- password: String" style="text;strokeColor=none;fillColor=none;align=left;verticalAlign=top;spacingLeft=4;spacingRight=4;overflow=hidden;rotatable=0;points=[[0,0.5],[1,0.5]];portConstraint=eastwest;whiteSpace=wrap;html=1;" vertex="1" parent="KjGgUwtwHEyZhzQTIDNN-17">
          <mxGeometry y="52" width="390" height="26" as="geometry" />
        </mxCell>
        <mxCell id="KjGgUwtwHEyZhzQTIDNN-20" value="- role: String" style="text;strokeColor=none;fillColor=none;align=left;verticalAlign=top;spacingLeft=4;spacingRight=4;overflow=hidden;rotatable=0;points=[[0,0.5],[1,0.5]];portConstraint=eastwest;whiteSpace=wrap;html=1;" vertex="1" parent="KjGgUwtwHEyZhzQTIDNN-17">
          <mxGeometry y="78" width="390" height="26" as="geometry" />
        </mxCell>
        <mxCell id="KjGgUwtwHEyZhzQTIDNN-25" value="&lt;u&gt;# user: HashMap&amp;lt;String, String&amp;gt;&lt;/u&gt;" style="text;strokeColor=none;fillColor=none;align=left;verticalAlign=top;spacingLeft=4;spacingRight=4;overflow=hidden;rotatable=0;points=[[0,0.5],[1,0.5]];portConstraint=eastwest;whiteSpace=wrap;html=1;" vertex="1" parent="KjGgUwtwHEyZhzQTIDNN-17">
          <mxGeometry y="104" width="390" height="26" as="geometry" />
        </mxCell>
        <mxCell id="KjGgUwtwHEyZhzQTIDNN-26" value="&lt;u&gt;# userInfoMap: Map&amp;lt;String, StaffInfo&amp;gt;&lt;/u&gt;" style="text;strokeColor=none;fillColor=none;align=left;verticalAlign=top;spacingLeft=4;spacingRight=4;overflow=hidden;rotatable=0;points=[[0,0.5],[1,0.5]];portConstraint=eastwest;whiteSpace=wrap;html=1;" vertex="1" parent="KjGgUwtwHEyZhzQTIDNN-17">
          <mxGeometry y="130" width="390" height="26" as="geometry" />
        </mxCell>
        <mxCell id="KjGgUwtwHEyZhzQTIDNN-21" value="+ getHospitalId(): String" style="text;strokeColor=none;fillColor=none;align=left;verticalAlign=top;spacingLeft=4;spacingRight=4;overflow=hidden;rotatable=0;points=[[0,0.5],[1,0.5]];portConstraint=eastwest;whiteSpace=wrap;html=1;" vertex="1" parent="KjGgUwtwHEyZhzQTIDNN-17">
          <mxGeometry y="156" width="390" height="26" as="geometry" />
        </mxCell>
        <mxCell id="KjGgUwtwHEyZhzQTIDNN-22" value="+ getPassword(): String" style="text;strokeColor=none;fillColor=none;align=left;verticalAlign=top;spacingLeft=4;spacingRight=4;overflow=hidden;rotatable=0;points=[[0,0.5],[1,0.5]];portConstraint=eastwest;whiteSpace=wrap;html=1;" vertex="1" parent="KjGgUwtwHEyZhzQTIDNN-17">
          <mxGeometry y="182" width="390" height="26" as="geometry" />
        </mxCell>
        <mxCell id="KjGgUwtwHEyZhzQTIDNN-23" value="+ getRole(): String" style="text;strokeColor=none;fillColor=none;align=left;verticalAlign=top;spacingLeft=4;spacingRight=4;overflow=hidden;rotatable=0;points=[[0,0.5],[1,0.5]];portConstraint=eastwest;whiteSpace=wrap;html=1;" vertex="1" parent="KjGgUwtwHEyZhzQTIDNN-17">
          <mxGeometry y="208" width="390" height="26" as="geometry" />
        </mxCell>
        <mxCell id="KjGgUwtwHEyZhzQTIDNN-66" value="&lt;u&gt;+ login(): String&lt;/u&gt;" style="text;strokeColor=none;fillColor=none;align=left;verticalAlign=top;spacingLeft=4;spacingRight=4;overflow=hidden;rotatable=0;points=[[0,0.5],[1,0.5]];portConstraint=eastwest;whiteSpace=wrap;html=1;" vertex="1" parent="KjGgUwtwHEyZhzQTIDNN-17">
          <mxGeometry y="234" width="390" height="26" as="geometry" />
        </mxCell>
        <mxCell id="KjGgUwtwHEyZhzQTIDNN-27" value="&lt;u&gt;+ changeUserPassword(String hospital_id): void&lt;/u&gt;" style="text;strokeColor=none;fillColor=none;align=left;verticalAlign=top;spacingLeft=4;spacingRight=4;overflow=hidden;rotatable=0;points=[[0,0.5],[1,0.5]];portConstraint=eastwest;whiteSpace=wrap;html=1;" vertex="1" parent="KjGgUwtwHEyZhzQTIDNN-17">
          <mxGeometry y="260" width="390" height="26" as="geometry" />
        </mxCell>
        <mxCell id="KjGgUwtwHEyZhzQTIDNN-24" value="+ AllUsers(String hospitalId, String password, String role):&amp;nbsp;" style="text;strokeColor=none;fillColor=none;align=left;verticalAlign=top;spacingLeft=4;spacingRight=4;overflow=hidden;rotatable=0;points=[[0,0.5],[1,0.5]];portConstraint=eastwest;whiteSpace=wrap;html=1;" vertex="1" parent="KjGgUwtwHEyZhzQTIDNN-17">
          <mxGeometry y="286" width="390" height="26" as="geometry" />
        </mxCell>
        <mxCell id="KjGgUwtwHEyZhzQTIDNN-28" value="" style="endArrow=none;html=1;rounded=0;exitX=0.003;exitY=-0.013;exitDx=0;exitDy=0;exitPerimeter=0;entryX=0.995;entryY=1.064;entryDx=0;entryDy=0;entryPerimeter=0;" edge="1" parent="KjGgUwtwHEyZhzQTIDNN-17" source="KjGgUwtwHEyZhzQTIDNN-21" target="KjGgUwtwHEyZhzQTIDNN-26">
          <mxGeometry width="50" height="50" relative="1" as="geometry">
            <mxPoint x="140" y="150" as="sourcePoint" />
            <mxPoint x="190" y="100" as="targetPoint" />
          </mxGeometry>
        </mxCell>
        <mxCell id="KjGgUwtwHEyZhzQTIDNN-29" value="Appointment" style="swimlane;fontStyle=1;align=center;verticalAlign=top;childLayout=stackLayout;horizontal=1;startSize=26;horizontalStack=0;resizeParent=1;resizeParentMax=0;resizeLast=0;collapsible=1;marginBottom=0;whiteSpace=wrap;html=1;" vertex="1" parent="1">
          <mxGeometry x="6840" y="3090" width="810" height="780" as="geometry">
            <mxRectangle x="7410" y="1648" width="110" height="30" as="alternateBounds" />
          </mxGeometry>
        </mxCell>
        <mxCell id="KjGgUwtwHEyZhzQTIDNN-30" value="- appointmentId: String" style="text;strokeColor=none;fillColor=none;align=left;verticalAlign=top;spacingLeft=4;spacingRight=4;overflow=hidden;rotatable=0;points=[[0,0.5],[1,0.5]];portConstraint=eastwest;whiteSpace=wrap;html=1;" vertex="1" parent="KjGgUwtwHEyZhzQTIDNN-29">
          <mxGeometry y="26" width="810" height="26" as="geometry" />
        </mxCell>
        <mxCell id="KjGgUwtwHEyZhzQTIDNN-31" value="- doctorName: String" style="text;strokeColor=none;fillColor=none;align=left;verticalAlign=top;spacingLeft=4;spacingRight=4;overflow=hidden;rotatable=0;points=[[0,0.5],[1,0.5]];portConstraint=eastwest;whiteSpace=wrap;html=1;" vertex="1" parent="KjGgUwtwHEyZhzQTIDNN-29">
          <mxGeometry y="52" width="810" height="26" as="geometry" />
        </mxCell>
        <mxCell id="KjGgUwtwHEyZhzQTIDNN-32" value="- patientId: String" style="text;strokeColor=none;fillColor=none;align=left;verticalAlign=top;spacingLeft=4;spacingRight=4;overflow=hidden;rotatable=0;points=[[0,0.5],[1,0.5]];portConstraint=eastwest;whiteSpace=wrap;html=1;" vertex="1" parent="KjGgUwtwHEyZhzQTIDNN-29">
          <mxGeometry y="78" width="810" height="26" as="geometry" />
        </mxCell>
        <mxCell id="KjGgUwtwHEyZhzQTIDNN-33" value="- appointmentTime: LocalDateTime" style="text;strokeColor=none;fillColor=none;align=left;verticalAlign=top;spacingLeft=4;spacingRight=4;overflow=hidden;rotatable=0;points=[[0,0.5],[1,0.5]];portConstraint=eastwest;whiteSpace=wrap;html=1;" vertex="1" parent="KjGgUwtwHEyZhzQTIDNN-29">
          <mxGeometry y="104" width="810" height="26" as="geometry" />
        </mxCell>
        <mxCell id="KjGgUwtwHEyZhzQTIDNN-34" value="- status: String" style="text;strokeColor=none;fillColor=none;align=left;verticalAlign=top;spacingLeft=4;spacingRight=4;overflow=hidden;rotatable=0;points=[[0,0.5],[1,0.5]];portConstraint=eastwest;whiteSpace=wrap;html=1;" vertex="1" parent="KjGgUwtwHEyZhzQTIDNN-29">
          <mxGeometry y="130" width="810" height="26" as="geometry" />
        </mxCell>
        <mxCell id="KjGgUwtwHEyZhzQTIDNN-35" value="- serviceType: String" style="text;strokeColor=none;fillColor=none;align=left;verticalAlign=top;spacingLeft=4;spacingRight=4;overflow=hidden;rotatable=0;points=[[0,0.5],[1,0.5]];portConstraint=eastwest;whiteSpace=wrap;html=1;" vertex="1" parent="KjGgUwtwHEyZhzQTIDNN-29">
          <mxGeometry y="156" width="810" height="26" as="geometry" />
        </mxCell>
        <mxCell id="KjGgUwtwHEyZhzQTIDNN-36" value="- prescribedMedications: Medication" style="text;strokeColor=none;fillColor=none;align=left;verticalAlign=top;spacingLeft=4;spacingRight=4;overflow=hidden;rotatable=0;points=[[0,0.5],[1,0.5]];portConstraint=eastwest;whiteSpace=wrap;html=1;" vertex="1" parent="KjGgUwtwHEyZhzQTIDNN-29">
          <mxGeometry y="182" width="810" height="26" as="geometry" />
        </mxCell>
        <mxCell id="KjGgUwtwHEyZhzQTIDNN-37" value="# prescribedMedicationList: ArrayList&amp;lt;Medication&amp;gt;" style="text;strokeColor=none;fillColor=none;align=left;verticalAlign=top;spacingLeft=4;spacingRight=4;overflow=hidden;rotatable=0;points=[[0,0.5],[1,0.5]];portConstraint=eastwest;whiteSpace=wrap;html=1;" vertex="1" parent="KjGgUwtwHEyZhzQTIDNN-29">
          <mxGeometry y="208" width="810" height="26" as="geometry" />
        </mxCell>
        <mxCell id="KjGgUwtwHEyZhzQTIDNN-38" value="- consultationNotes: String" style="text;strokeColor=none;fillColor=none;align=left;verticalAlign=top;spacingLeft=4;spacingRight=4;overflow=hidden;rotatable=0;points=[[0,0.5],[1,0.5]];portConstraint=eastwest;whiteSpace=wrap;html=1;" vertex="1" parent="KjGgUwtwHEyZhzQTIDNN-29">
          <mxGeometry y="234" width="810" height="26" as="geometry" />
        </mxCell>
        <mxCell id="KjGgUwtwHEyZhzQTIDNN-67" value="&lt;u&gt;+ allAppointments: List&amp;lt;Appointment&amp;gt;&lt;/u&gt;" style="text;strokeColor=none;fillColor=none;align=left;verticalAlign=top;spacingLeft=4;spacingRight=4;overflow=hidden;rotatable=0;points=[[0,0.5],[1,0.5]];portConstraint=eastwest;whiteSpace=wrap;html=1;" vertex="1" parent="KjGgUwtwHEyZhzQTIDNN-29">
          <mxGeometry y="260" width="810" height="26" as="geometry" />
        </mxCell>
        <mxCell id="KjGgUwtwHEyZhzQTIDNN-39" value="+ getAppointmentId(): String" style="text;strokeColor=none;fillColor=none;align=left;verticalAlign=top;spacingLeft=4;spacingRight=4;overflow=hidden;rotatable=0;points=[[0,0.5],[1,0.5]];portConstraint=eastwest;whiteSpace=wrap;html=1;" vertex="1" parent="KjGgUwtwHEyZhzQTIDNN-29">
          <mxGeometry y="286" width="810" height="26" as="geometry" />
        </mxCell>
        <mxCell id="KjGgUwtwHEyZhzQTIDNN-40" value="+ getDoctorName(): String" style="text;strokeColor=none;fillColor=none;align=left;verticalAlign=top;spacingLeft=4;spacingRight=4;overflow=hidden;rotatable=0;points=[[0,0.5],[1,0.5]];portConstraint=eastwest;whiteSpace=wrap;html=1;" vertex="1" parent="KjGgUwtwHEyZhzQTIDNN-29">
          <mxGeometry y="312" width="810" height="26" as="geometry" />
        </mxCell>
        <mxCell id="KjGgUwtwHEyZhzQTIDNN-41" value="+ getPatientId(): String" style="text;strokeColor=none;fillColor=none;align=left;verticalAlign=top;spacingLeft=4;spacingRight=4;overflow=hidden;rotatable=0;points=[[0,0.5],[1,0.5]];portConstraint=eastwest;whiteSpace=wrap;html=1;" vertex="1" parent="KjGgUwtwHEyZhzQTIDNN-29">
          <mxGeometry y="338" width="810" height="26" as="geometry" />
        </mxCell>
        <mxCell id="KjGgUwtwHEyZhzQTIDNN-42" value="+ getAppointmentDate(): LocalDateTime" style="text;strokeColor=none;fillColor=none;align=left;verticalAlign=top;spacingLeft=4;spacingRight=4;overflow=hidden;rotatable=0;points=[[0,0.5],[1,0.5]];portConstraint=eastwest;whiteSpace=wrap;html=1;" vertex="1" parent="KjGgUwtwHEyZhzQTIDNN-29">
          <mxGeometry y="364" width="810" height="26" as="geometry" />
        </mxCell>
        <mxCell id="KjGgUwtwHEyZhzQTIDNN-43" value="+ setAppointmentDateTime(LocalDateTime appointmentDate): void" style="text;strokeColor=none;fillColor=none;align=left;verticalAlign=top;spacingLeft=4;spacingRight=4;overflow=hidden;rotatable=0;points=[[0,0.5],[1,0.5]];portConstraint=eastwest;whiteSpace=wrap;html=1;" vertex="1" parent="KjGgUwtwHEyZhzQTIDNN-29">
          <mxGeometry y="390" width="810" height="26" as="geometry" />
        </mxCell>
        <mxCell id="KjGgUwtwHEyZhzQTIDNN-44" value="+ getStatus(): String" style="text;strokeColor=none;fillColor=none;align=left;verticalAlign=top;spacingLeft=4;spacingRight=4;overflow=hidden;rotatable=0;points=[[0,0.5],[1,0.5]];portConstraint=eastwest;whiteSpace=wrap;html=1;" vertex="1" parent="KjGgUwtwHEyZhzQTIDNN-29">
          <mxGeometry y="416" width="810" height="26" as="geometry" />
        </mxCell>
        <mxCell id="KjGgUwtwHEyZhzQTIDNN-45" value="+ getServiceType(): String" style="text;strokeColor=none;fillColor=none;align=left;verticalAlign=top;spacingLeft=4;spacingRight=4;overflow=hidden;rotatable=0;points=[[0,0.5],[1,0.5]];portConstraint=eastwest;whiteSpace=wrap;html=1;" vertex="1" parent="KjGgUwtwHEyZhzQTIDNN-29">
          <mxGeometry y="442" width="810" height="26" as="geometry" />
        </mxCell>
        <mxCell id="KjGgUwtwHEyZhzQTIDNN-46" value="+ setStatus(String status): void" style="text;strokeColor=none;fillColor=none;align=left;verticalAlign=top;spacingLeft=4;spacingRight=4;overflow=hidden;rotatable=0;points=[[0,0.5],[1,0.5]];portConstraint=eastwest;whiteSpace=wrap;html=1;" vertex="1" parent="KjGgUwtwHEyZhzQTIDNN-29">
          <mxGeometry y="468" width="810" height="26" as="geometry" />
        </mxCell>
        <mxCell id="KjGgUwtwHEyZhzQTIDNN-47" value="+ getConsultationNotes(): String" style="text;strokeColor=none;fillColor=none;align=left;verticalAlign=top;spacingLeft=4;spacingRight=4;overflow=hidden;rotatable=0;points=[[0,0.5],[1,0.5]];portConstraint=eastwest;whiteSpace=wrap;html=1;" vertex="1" parent="KjGgUwtwHEyZhzQTIDNN-29">
          <mxGeometry y="494" width="810" height="26" as="geometry" />
        </mxCell>
        <mxCell id="KjGgUwtwHEyZhzQTIDNN-48" value="+ getBill(): Integer" style="text;strokeColor=none;fillColor=none;align=left;verticalAlign=top;spacingLeft=4;spacingRight=4;overflow=hidden;rotatable=0;points=[[0,0.5],[1,0.5]];portConstraint=eastwest;whiteSpace=wrap;html=1;" vertex="1" parent="KjGgUwtwHEyZhzQTIDNN-29">
          <mxGeometry y="520" width="810" height="26" as="geometry" />
        </mxCell>
        <mxCell id="KjGgUwtwHEyZhzQTIDNN-49" value="- setBill(String serviceTypeStr): void" style="text;strokeColor=none;fillColor=none;align=left;verticalAlign=top;spacingLeft=4;spacingRight=4;overflow=hidden;rotatable=0;points=[[0,0.5],[1,0.5]];portConstraint=eastwest;whiteSpace=wrap;html=1;" vertex="1" parent="KjGgUwtwHEyZhzQTIDNN-29">
          <mxGeometry y="546" width="810" height="26" as="geometry" />
        </mxCell>
        <mxCell id="KjGgUwtwHEyZhzQTIDNN-50" value="+ toString(): String" style="text;strokeColor=none;fillColor=none;align=left;verticalAlign=top;spacingLeft=4;spacingRight=4;overflow=hidden;rotatable=0;points=[[0,0.5],[1,0.5]];portConstraint=eastwest;whiteSpace=wrap;html=1;" vertex="1" parent="KjGgUwtwHEyZhzQTIDNN-29">
          <mxGeometry y="572" width="810" height="26" as="geometry" />
        </mxCell>
        <mxCell id="KjGgUwtwHEyZhzQTIDNN-51" value="+ setServiceType(String serviceType): void" style="text;strokeColor=none;fillColor=none;align=left;verticalAlign=top;spacingLeft=4;spacingRight=4;overflow=hidden;rotatable=0;points=[[0,0.5],[1,0.5]];portConstraint=eastwest;whiteSpace=wrap;html=1;" vertex="1" parent="KjGgUwtwHEyZhzQTIDNN-29">
          <mxGeometry y="598" width="810" height="26" as="geometry" />
        </mxCell>
        <mxCell id="KjGgUwtwHEyZhzQTIDNN-52" value="+ addMedication(Medication medication): void" style="text;strokeColor=none;fillColor=none;align=left;verticalAlign=top;spacingLeft=4;spacingRight=4;overflow=hidden;rotatable=0;points=[[0,0.5],[1,0.5]];portConstraint=eastwest;whiteSpace=wrap;html=1;" vertex="1" parent="KjGgUwtwHEyZhzQTIDNN-29">
          <mxGeometry y="624" width="810" height="26" as="geometry" />
        </mxCell>
        <mxCell id="KjGgUwtwHEyZhzQTIDNN-53" value="+ recordConsultationNotes(String notes): void" style="text;strokeColor=none;fillColor=none;align=left;verticalAlign=top;spacingLeft=4;spacingRight=4;overflow=hidden;rotatable=0;points=[[0,0.5],[1,0.5]];portConstraint=eastwest;whiteSpace=wrap;html=1;" vertex="1" parent="KjGgUwtwHEyZhzQTIDNN-29">
          <mxGeometry y="650" width="810" height="26" as="geometry" />
        </mxCell>
        <mxCell id="KjGgUwtwHEyZhzQTIDNN-54" value="+ getOutcome(Appointment appointment): void" style="text;strokeColor=none;fillColor=none;align=left;verticalAlign=top;spacingLeft=4;spacingRight=4;overflow=hidden;rotatable=0;points=[[0,0.5],[1,0.5]];portConstraint=eastwest;whiteSpace=wrap;html=1;" vertex="1" parent="KjGgUwtwHEyZhzQTIDNN-29">
          <mxGeometry y="676" width="810" height="26" as="geometry" />
        </mxCell>
        <mxCell id="KjGgUwtwHEyZhzQTIDNN-58" value="&lt;u&gt;+ getAllAppointments(): List&amp;lt;Appointment&amp;gt;&lt;/u&gt;" style="text;strokeColor=none;fillColor=none;align=left;verticalAlign=top;spacingLeft=4;spacingRight=4;overflow=hidden;rotatable=0;points=[[0,0.5],[1,0.5]];portConstraint=eastwest;whiteSpace=wrap;html=1;" vertex="1" parent="KjGgUwtwHEyZhzQTIDNN-29">
          <mxGeometry y="702" width="810" height="26" as="geometry" />
        </mxCell>
        <mxCell id="KjGgUwtwHEyZhzQTIDNN-55" value="+ getPrescribedMedicationList(): ArrayList &amp;lt;Medication&amp;gt;" style="text;strokeColor=none;fillColor=none;align=left;verticalAlign=top;spacingLeft=4;spacingRight=4;overflow=hidden;rotatable=0;points=[[0,0.5],[1,0.5]];portConstraint=eastwest;whiteSpace=wrap;html=1;" vertex="1" parent="KjGgUwtwHEyZhzQTIDNN-29">
          <mxGeometry y="728" width="810" height="26" as="geometry" />
        </mxCell>
        <mxCell id="KjGgUwtwHEyZhzQTIDNN-56" value="+ Appointment(String appointmentId, String doctorName, String patientId, LocalDateTime appointmentTime, String status, String serviceType): " style="text;strokeColor=none;fillColor=none;align=left;verticalAlign=top;spacingLeft=4;spacingRight=4;overflow=hidden;rotatable=0;points=[[0,0.5],[1,0.5]];portConstraint=eastwest;whiteSpace=wrap;html=1;" vertex="1" parent="KjGgUwtwHEyZhzQTIDNN-29">
          <mxGeometry y="754" width="810" height="26" as="geometry" />
        </mxCell>
        <mxCell id="KjGgUwtwHEyZhzQTIDNN-59" value="" style="endArrow=none;html=1;rounded=0;exitX=-0.002;exitY=0.163;exitDx=0;exitDy=0;exitPerimeter=0;entryX=1.001;entryY=0.163;entryDx=0;entryDy=0;entryPerimeter=0;" edge="1" parent="KjGgUwtwHEyZhzQTIDNN-29" source="KjGgUwtwHEyZhzQTIDNN-39" target="KjGgUwtwHEyZhzQTIDNN-39">
          <mxGeometry width="50" height="50" relative="1" as="geometry">
            <mxPoint x="350" y="280" as="sourcePoint" />
            <mxPoint x="400" y="230" as="targetPoint" />
          </mxGeometry>
        </mxCell>
        <mxCell id="KjGgUwtwHEyZhzQTIDNN-60" value="AppointmentManager" style="swimlane;fontStyle=1;align=center;verticalAlign=top;childLayout=stackLayout;horizontal=1;startSize=26;horizontalStack=0;resizeParent=1;resizeParentMax=0;resizeLast=0;collapsible=1;marginBottom=0;whiteSpace=wrap;html=1;" vertex="1" parent="1">
          <mxGeometry x="6210" y="3600" width="530" height="104" as="geometry">
            <mxRectangle x="8390" y="1448" width="160" height="30" as="alternateBounds" />
          </mxGeometry>
        </mxCell>
        <mxCell id="KjGgUwtwHEyZhzQTIDNN-63" value="- appointments: List&amp;lt;Appointment&amp;gt;" style="text;strokeColor=none;fillColor=none;align=left;verticalAlign=top;spacingLeft=4;spacingRight=4;overflow=hidden;rotatable=0;points=[[0,0.5],[1,0.5]];portConstraint=eastwest;whiteSpace=wrap;html=1;" vertex="1" parent="KjGgUwtwHEyZhzQTIDNN-60">
          <mxGeometry y="26" width="530" height="26" as="geometry" />
        </mxCell>
        <mxCell id="KjGgUwtwHEyZhzQTIDNN-61" value="+ viewAppointmentOutcome(): void" style="text;strokeColor=none;fillColor=none;align=left;verticalAlign=top;spacingLeft=4;spacingRight=4;overflow=hidden;rotatable=0;points=[[0,0.5],[1,0.5]];portConstraint=eastwest;whiteSpace=wrap;html=1;" vertex="1" parent="KjGgUwtwHEyZhzQTIDNN-60">
          <mxGeometry y="52" width="530" height="26" as="geometry" />
        </mxCell>
        <mxCell id="KjGgUwtwHEyZhzQTIDNN-62" value="+ updatePrescriptionStatus(): void" style="text;strokeColor=none;fillColor=none;align=left;verticalAlign=top;spacingLeft=4;spacingRight=4;overflow=hidden;rotatable=0;points=[[0,0.5],[1,0.5]];portConstraint=eastwest;whiteSpace=wrap;html=1;" vertex="1" parent="KjGgUwtwHEyZhzQTIDNN-60">
          <mxGeometry y="78" width="530" height="26" as="geometry" />
        </mxCell>
        <mxCell id="KjGgUwtwHEyZhzQTIDNN-65" value="" style="endArrow=none;html=1;rounded=0;" edge="1" parent="KjGgUwtwHEyZhzQTIDNN-60">
          <mxGeometry width="50" height="50" relative="1" as="geometry">
            <mxPoint y="52" as="sourcePoint" />
            <mxPoint x="530" y="52" as="targetPoint" />
          </mxGeometry>
        </mxCell>
        <mxCell id="KjGgUwtwHEyZhzQTIDNN-68" value="AppointmentSlots" style="swimlane;fontStyle=1;align=center;verticalAlign=top;childLayout=stackLayout;horizontal=1;startSize=26;horizontalStack=0;resizeParent=1;resizeParentMax=0;resizeLast=0;collapsible=1;marginBottom=0;whiteSpace=wrap;html=1;" vertex="1" parent="1">
          <mxGeometry x="6260" y="3100" width="560" height="234" as="geometry" />
        </mxCell>
        <mxCell id="KjGgUwtwHEyZhzQTIDNN-69" value="# slots: List&amp;lt;LocalDateTime&amp;gt;" style="text;strokeColor=none;fillColor=none;align=left;verticalAlign=top;spacingLeft=4;spacingRight=4;overflow=hidden;rotatable=0;points=[[0,0.5],[1,0.5]];portConstraint=eastwest;whiteSpace=wrap;html=1;" vertex="1" parent="KjGgUwtwHEyZhzQTIDNN-68">
          <mxGeometry y="26" width="560" height="26" as="geometry" />
        </mxCell>
        <mxCell id="KjGgUwtwHEyZhzQTIDNN-71" value="+ addSlot(LocalDateTime slot): void" style="text;strokeColor=none;fillColor=none;align=left;verticalAlign=top;spacingLeft=4;spacingRight=4;overflow=hidden;rotatable=0;points=[[0,0.5],[1,0.5]];portConstraint=eastwest;whiteSpace=wrap;html=1;" vertex="1" parent="KjGgUwtwHEyZhzQTIDNN-68">
          <mxGeometry y="52" width="560" height="26" as="geometry" />
        </mxCell>
        <mxCell id="KjGgUwtwHEyZhzQTIDNN-72" value="+ getSlots(): List&amp;lt;LocalDateTime&amp;gt;" style="text;strokeColor=none;fillColor=none;align=left;verticalAlign=top;spacingLeft=4;spacingRight=4;overflow=hidden;rotatable=0;points=[[0,0.5],[1,0.5]];portConstraint=eastwest;whiteSpace=wrap;html=1;" vertex="1" parent="KjGgUwtwHEyZhzQTIDNN-68">
          <mxGeometry y="78" width="560" height="26" as="geometry" />
        </mxCell>
        <mxCell id="KjGgUwtwHEyZhzQTIDNN-73" value="+ getSlotsForDate(LocalDate date): List&amp;lt;LocalDateTime&amp;gt;" style="text;strokeColor=none;fillColor=none;align=left;verticalAlign=top;spacingLeft=4;spacingRight=4;overflow=hidden;rotatable=0;points=[[0,0.5],[1,0.5]];portConstraint=eastwest;whiteSpace=wrap;html=1;" vertex="1" parent="KjGgUwtwHEyZhzQTIDNN-68">
          <mxGeometry y="104" width="560" height="26" as="geometry" />
        </mxCell>
        <mxCell id="KjGgUwtwHEyZhzQTIDNN-74" value="+ viewAppointmentSlots(String doctorName): void" style="text;strokeColor=none;fillColor=none;align=left;verticalAlign=top;spacingLeft=4;spacingRight=4;overflow=hidden;rotatable=0;points=[[0,0.5],[1,0.5]];portConstraint=eastwest;whiteSpace=wrap;html=1;" vertex="1" parent="KjGgUwtwHEyZhzQTIDNN-68">
          <mxGeometry y="130" width="560" height="26" as="geometry" />
        </mxCell>
        <mxCell id="KjGgUwtwHEyZhzQTIDNN-75" value="+ viewAppointmentSlotsBoolean(String doctorName): boolean" style="text;strokeColor=none;fillColor=none;align=left;verticalAlign=top;spacingLeft=4;spacingRight=4;overflow=hidden;rotatable=0;points=[[0,0.5],[1,0.5]];portConstraint=eastwest;whiteSpace=wrap;html=1;" vertex="1" parent="KjGgUwtwHEyZhzQTIDNN-68">
          <mxGeometry y="156" width="560" height="26" as="geometry" />
        </mxCell>
        <mxCell id="KjGgUwtwHEyZhzQTIDNN-76" value="+ printTimeSlotsForDate(LocalDateTime date): void" style="text;strokeColor=none;fillColor=none;align=left;verticalAlign=top;spacingLeft=4;spacingRight=4;overflow=hidden;rotatable=0;points=[[0,0.5],[1,0.5]];portConstraint=eastwest;whiteSpace=wrap;html=1;" vertex="1" parent="KjGgUwtwHEyZhzQTIDNN-68">
          <mxGeometry y="182" width="560" height="26" as="geometry" />
        </mxCell>
        <mxCell id="KjGgUwtwHEyZhzQTIDNN-77" value="+ AppointmentSlots(String doctorName): " style="text;strokeColor=none;fillColor=none;align=left;verticalAlign=top;spacingLeft=4;spacingRight=4;overflow=hidden;rotatable=0;points=[[0,0.5],[1,0.5]];portConstraint=eastwest;whiteSpace=wrap;html=1;" vertex="1" parent="KjGgUwtwHEyZhzQTIDNN-68">
          <mxGeometry y="208" width="560" height="26" as="geometry" />
        </mxCell>
        <mxCell id="KjGgUwtwHEyZhzQTIDNN-81" value="" style="endArrow=none;html=1;rounded=0;entryX=1;entryY=0.011;entryDx=0;entryDy=0;entryPerimeter=0;exitX=0.001;exitY=0.99;exitDx=0;exitDy=0;exitPerimeter=0;" edge="1" parent="KjGgUwtwHEyZhzQTIDNN-68" source="KjGgUwtwHEyZhzQTIDNN-69" target="KjGgUwtwHEyZhzQTIDNN-71">
          <mxGeometry width="50" height="50" relative="1" as="geometry">
            <mxPoint y="52" as="sourcePoint" />
            <mxPoint x="300" y="70" as="targetPoint" />
          </mxGeometry>
        </mxCell>
        <mxCell id="KjGgUwtwHEyZhzQTIDNN-82" value="Doctor" style="swimlane;fontStyle=1;align=center;verticalAlign=top;childLayout=stackLayout;horizontal=1;startSize=26;horizontalStack=0;resizeParent=1;resizeParentMax=0;resizeLast=0;collapsible=1;marginBottom=0;whiteSpace=wrap;html=1;" vertex="1" parent="1">
          <mxGeometry x="6070" y="1941" width="510" height="598" as="geometry">
            <mxRectangle x="6340" y="670" width="80" height="30" as="alternateBounds" />
          </mxGeometry>
        </mxCell>
        <mxCell id="KjGgUwtwHEyZhzQTIDNN-83" value="- name: String" style="text;strokeColor=none;fillColor=none;align=left;verticalAlign=top;spacingLeft=4;spacingRight=4;overflow=hidden;rotatable=0;points=[[0,0.5],[1,0.5]];portConstraint=eastwest;whiteSpace=wrap;html=1;" vertex="1" parent="KjGgUwtwHEyZhzQTIDNN-82">
          <mxGeometry y="26" width="510" height="26" as="geometry" />
        </mxCell>
        <mxCell id="KjGgUwtwHEyZhzQTIDNN-84" value="- age: int" style="text;strokeColor=none;fillColor=none;align=left;verticalAlign=top;spacingLeft=4;spacingRight=4;overflow=hidden;rotatable=0;points=[[0,0.5],[1,0.5]];portConstraint=eastwest;whiteSpace=wrap;html=1;" vertex="1" parent="KjGgUwtwHEyZhzQTIDNN-82">
          <mxGeometry y="52" width="510" height="26" as="geometry" />
        </mxCell>
        <mxCell id="KjGgUwtwHEyZhzQTIDNN-85" value="- gender: String" style="text;strokeColor=none;fillColor=none;align=left;verticalAlign=top;spacingLeft=4;spacingRight=4;overflow=hidden;rotatable=0;points=[[0,0.5],[1,0.5]];portConstraint=eastwest;whiteSpace=wrap;html=1;" vertex="1" parent="KjGgUwtwHEyZhzQTIDNN-82">
          <mxGeometry y="78" width="510" height="26" as="geometry" />
        </mxCell>
        <mxCell id="KjGgUwtwHEyZhzQTIDNN-100" value="- patientsMap: HashMap&amp;lt;String, Patients&amp;gt;" style="text;strokeColor=none;fillColor=none;align=left;verticalAlign=top;spacingLeft=4;spacingRight=4;overflow=hidden;rotatable=0;points=[[0,0.5],[1,0.5]];portConstraint=eastwest;whiteSpace=wrap;html=1;" vertex="1" parent="KjGgUwtwHEyZhzQTIDNN-82">
          <mxGeometry y="104" width="510" height="26" as="geometry" />
        </mxCell>
        <mxCell id="KjGgUwtwHEyZhzQTIDNN-86" value="# appointments: List&amp;lt;Appointment&amp;gt;" style="text;strokeColor=none;fillColor=none;align=left;verticalAlign=top;spacingLeft=4;spacingRight=4;overflow=hidden;rotatable=0;points=[[0,0.5],[1,0.5]];portConstraint=eastwest;whiteSpace=wrap;html=1;" vertex="1" parent="KjGgUwtwHEyZhzQTIDNN-82">
          <mxGeometry y="130" width="510" height="26" as="geometry" />
        </mxCell>
        <mxCell id="KjGgUwtwHEyZhzQTIDNN-101" value="# personalSchedule: HashMap&amp;lt;&lt;font face=&quot;Helvetica&quot; style=&quot;font-size: 12px;&quot;&gt;&lt;span style=&quot;white-space: pre;&quot;&gt;LocalDate&lt;/span&gt;&lt;span style=&quot;background-color: rgb(255, 255, 255); white-space: pre;&quot;&gt;, &lt;/span&gt;&lt;span style=&quot;white-space: pre;&quot;&gt;AppointmentSlots&lt;/span&gt;&lt;/font&gt;&lt;span style=&quot;background-color: initial;&quot;&gt;&amp;gt;&lt;/span&gt;" style="text;strokeColor=none;fillColor=none;align=left;verticalAlign=top;spacingLeft=4;spacingRight=4;overflow=hidden;rotatable=0;points=[[0,0.5],[1,0.5]];portConstraint=eastwest;whiteSpace=wrap;html=1;" vertex="1" parent="KjGgUwtwHEyZhzQTIDNN-82">
          <mxGeometry y="156" width="510" height="26" as="geometry" />
        </mxCell>
        <mxCell id="KjGgUwtwHEyZhzQTIDNN-87" value="# appointmentSlots: List&amp;lt;LocalDateTime&amp;gt;" style="text;strokeColor=none;fillColor=none;align=left;verticalAlign=top;spacingLeft=4;spacingRight=4;overflow=hidden;rotatable=0;points=[[0,0.5],[1,0.5]];portConstraint=eastwest;whiteSpace=wrap;html=1;" vertex="1" parent="KjGgUwtwHEyZhzQTIDNN-82">
          <mxGeometry y="182" width="510" height="26" as="geometry" />
        </mxCell>
        <mxCell id="KjGgUwtwHEyZhzQTIDNN-103" value="&lt;u&gt;# doctorNames: List&amp;lt;String&amp;gt;&lt;/u&gt;" style="text;strokeColor=none;fillColor=none;align=left;verticalAlign=top;spacingLeft=4;spacingRight=4;overflow=hidden;rotatable=0;points=[[0,0.5],[1,0.5]];portConstraint=eastwest;whiteSpace=wrap;html=1;" vertex="1" parent="KjGgUwtwHEyZhzQTIDNN-82">
          <mxGeometry y="208" width="510" height="26" as="geometry" />
        </mxCell>
        <mxCell id="KjGgUwtwHEyZhzQTIDNN-104" value="&lt;u&gt;+ doctors: List&amp;lt;Doctor&amp;gt;&lt;/u&gt;" style="text;strokeColor=none;fillColor=none;align=left;verticalAlign=top;spacingLeft=4;spacingRight=4;overflow=hidden;rotatable=0;points=[[0,0.5],[1,0.5]];portConstraint=eastwest;whiteSpace=wrap;html=1;" vertex="1" parent="KjGgUwtwHEyZhzQTIDNN-82">
          <mxGeometry y="234" width="510" height="26" as="geometry" />
        </mxCell>
        <mxCell id="KjGgUwtwHEyZhzQTIDNN-88" value="- doctorMedicalRecord: DoctorMedicalRecord" style="text;strokeColor=none;fillColor=none;align=left;verticalAlign=top;spacingLeft=4;spacingRight=4;overflow=hidden;rotatable=0;points=[[0,0.5],[1,0.5]];portConstraint=eastwest;whiteSpace=wrap;html=1;" vertex="1" parent="KjGgUwtwHEyZhzQTIDNN-82">
          <mxGeometry y="260" width="510" height="26" as="geometry" />
        </mxCell>
        <mxCell id="KjGgUwtwHEyZhzQTIDNN-89" value="- doctorScheduleService: DoctorScheduleService" style="text;strokeColor=none;fillColor=none;align=left;verticalAlign=top;spacingLeft=4;spacingRight=4;overflow=hidden;rotatable=0;points=[[0,0.5],[1,0.5]];portConstraint=eastwest;whiteSpace=wrap;html=1;" vertex="1" parent="KjGgUwtwHEyZhzQTIDNN-82">
          <mxGeometry y="286" width="510" height="26" as="geometry" />
        </mxCell>
        <mxCell id="KjGgUwtwHEyZhzQTIDNN-90" value="- doctorAppointmentService: DoctorAppointmentService" style="text;strokeColor=none;fillColor=none;align=left;verticalAlign=top;spacingLeft=4;spacingRight=4;overflow=hidden;rotatable=0;points=[[0,0.5],[1,0.5]];portConstraint=eastwest;whiteSpace=wrap;html=1;" vertex="1" parent="KjGgUwtwHEyZhzQTIDNN-82">
          <mxGeometry y="312" width="510" height="26" as="geometry" />
        </mxCell>
        <mxCell id="KjGgUwtwHEyZhzQTIDNN-91" value="+ getName(): String" style="text;strokeColor=none;fillColor=none;align=left;verticalAlign=top;spacingLeft=4;spacingRight=4;overflow=hidden;rotatable=0;points=[[0,0.5],[1,0.5]];portConstraint=eastwest;whiteSpace=wrap;html=1;" vertex="1" parent="KjGgUwtwHEyZhzQTIDNN-82">
          <mxGeometry y="338" width="510" height="26" as="geometry" />
        </mxCell>
        <mxCell id="KjGgUwtwHEyZhzQTIDNN-92" value="+ setAvailability(LocalDate date, List&amp;lt;LocalDateTime&amp;gt; availableSlots): void" style="text;strokeColor=none;fillColor=none;align=left;verticalAlign=top;spacingLeft=4;spacingRight=4;overflow=hidden;rotatable=0;points=[[0,0.5],[1,0.5]];portConstraint=eastwest;whiteSpace=wrap;html=1;" vertex="1" parent="KjGgUwtwHEyZhzQTIDNN-82">
          <mxGeometry y="364" width="510" height="26" as="geometry" />
        </mxCell>
        <mxCell id="KjGgUwtwHEyZhzQTIDNN-93" value="+ getAppointmentSlots(String doctorName): AppointmentSlots" style="text;strokeColor=none;fillColor=none;align=left;verticalAlign=top;spacingLeft=4;spacingRight=4;overflow=hidden;rotatable=0;points=[[0,0.5],[1,0.5]];portConstraint=eastwest;whiteSpace=wrap;html=1;" vertex="1" parent="KjGgUwtwHEyZhzQTIDNN-82">
          <mxGeometry y="390" width="510" height="26" as="geometry" />
        </mxCell>
        <mxCell id="KjGgUwtwHEyZhzQTIDNN-105" value="+ returnPersonalSchedule(): HashMap&amp;lt;LocalDate, AppointmentSlots&amp;gt;" style="text;strokeColor=none;fillColor=none;align=left;verticalAlign=top;spacingLeft=4;spacingRight=4;overflow=hidden;rotatable=0;points=[[0,0.5],[1,0.5]];portConstraint=eastwest;whiteSpace=wrap;html=1;" vertex="1" parent="KjGgUwtwHEyZhzQTIDNN-82">
          <mxGeometry y="416" width="510" height="26" as="geometry" />
        </mxCell>
        <mxCell id="KjGgUwtwHEyZhzQTIDNN-94" value="+ returnAppointmentSlots(): List&amp;lt;LocalDateTime&amp;gt;" style="text;strokeColor=none;fillColor=none;align=left;verticalAlign=top;spacingLeft=4;spacingRight=4;overflow=hidden;rotatable=0;points=[[0,0.5],[1,0.5]];portConstraint=eastwest;whiteSpace=wrap;html=1;" vertex="1" parent="KjGgUwtwHEyZhzQTIDNN-82">
          <mxGeometry y="442" width="510" height="26" as="geometry" />
        </mxCell>
        <mxCell id="KjGgUwtwHEyZhzQTIDNN-95" value="+ addAppointment(Appointment appointment): void" style="text;strokeColor=none;fillColor=none;align=left;verticalAlign=top;spacingLeft=4;spacingRight=4;overflow=hidden;rotatable=0;points=[[0,0.5],[1,0.5]];portConstraint=eastwest;whiteSpace=wrap;html=1;" vertex="1" parent="KjGgUwtwHEyZhzQTIDNN-82">
          <mxGeometry y="468" width="510" height="26" as="geometry" />
        </mxCell>
        <mxCell id="KjGgUwtwHEyZhzQTIDNN-96" value="+ getAppointments(): List&amp;lt;Appointment&amp;gt;" style="text;strokeColor=none;fillColor=none;align=left;verticalAlign=top;spacingLeft=4;spacingRight=4;overflow=hidden;rotatable=0;points=[[0,0.5],[1,0.5]];portConstraint=eastwest;whiteSpace=wrap;html=1;" vertex="1" parent="KjGgUwtwHEyZhzQTIDNN-82">
          <mxGeometry y="494" width="510" height="26" as="geometry" />
        </mxCell>
        <mxCell id="KjGgUwtwHEyZhzQTIDNN-97" value="+ setPersonalSchedule(HashMap&amp;lt;LocalDate, AppointmentSlots&amp;gt; schedule): void" style="text;strokeColor=none;fillColor=none;align=left;verticalAlign=top;spacingLeft=4;spacingRight=4;overflow=hidden;rotatable=0;points=[[0,0.5],[1,0.5]];portConstraint=eastwest;whiteSpace=wrap;html=1;" vertex="1" parent="KjGgUwtwHEyZhzQTIDNN-82">
          <mxGeometry y="520" width="510" height="26" as="geometry" />
        </mxCell>
        <mxCell id="KjGgUwtwHEyZhzQTIDNN-98" value="+ displayMenu(String doctorId): void" style="text;strokeColor=none;fillColor=none;align=left;verticalAlign=top;spacingLeft=4;spacingRight=4;overflow=hidden;rotatable=0;points=[[0,0.5],[1,0.5]];portConstraint=eastwest;whiteSpace=wrap;html=1;" vertex="1" parent="KjGgUwtwHEyZhzQTIDNN-82">
          <mxGeometry y="546" width="510" height="26" as="geometry" />
        </mxCell>
        <mxCell id="KjGgUwtwHEyZhzQTIDNN-99" value="+ Doctor(String hospitalId, String password, String role, String name, int age, String gender): " style="text;strokeColor=none;fillColor=none;align=left;verticalAlign=top;spacingLeft=4;spacingRight=4;overflow=hidden;rotatable=0;points=[[0,0.5],[1,0.5]];portConstraint=eastwest;whiteSpace=wrap;html=1;" vertex="1" parent="KjGgUwtwHEyZhzQTIDNN-82">
          <mxGeometry y="572" width="510" height="26" as="geometry" />
        </mxCell>
        <mxCell id="KjGgUwtwHEyZhzQTIDNN-106" value="" style="endArrow=none;html=1;rounded=0;exitX=0.002;exitY=0.05;exitDx=0;exitDy=0;exitPerimeter=0;" edge="1" parent="KjGgUwtwHEyZhzQTIDNN-82" source="KjGgUwtwHEyZhzQTIDNN-91">
          <mxGeometry width="50" height="50" relative="1" as="geometry">
            <mxPoint x="340" y="358" as="sourcePoint" />
            <mxPoint x="510" y="340" as="targetPoint" />
          </mxGeometry>
        </mxCell>
        <mxCell id="KjGgUwtwHEyZhzQTIDNN-107" value="DoctorAppointmentService" style="swimlane;fontStyle=1;align=center;verticalAlign=top;childLayout=stackLayout;horizontal=1;startSize=26;horizontalStack=0;resizeParent=1;resizeParentMax=0;resizeLast=0;collapsible=1;marginBottom=0;whiteSpace=wrap;html=1;" vertex="1" parent="1">
          <mxGeometry x="5680" y="2880" width="350" height="182" as="geometry" />
        </mxCell>
        <mxCell id="KjGgUwtwHEyZhzQTIDNN-108" value="- doctor: Doctor" style="text;strokeColor=none;fillColor=none;align=left;verticalAlign=top;spacingLeft=4;spacingRight=4;overflow=hidden;rotatable=0;points=[[0,0.5],[1,0.5]];portConstraint=eastwest;whiteSpace=wrap;html=1;" vertex="1" parent="KjGgUwtwHEyZhzQTIDNN-107">
          <mxGeometry y="26" width="350" height="26" as="geometry" />
        </mxCell>
        <mxCell id="KjGgUwtwHEyZhzQTIDNN-113" value="&lt;u&gt;- personalSchedule: HashMap&amp;lt;LocalDate, AppointmentSlots&amp;gt;&lt;/u&gt;" style="text;strokeColor=none;fillColor=none;align=left;verticalAlign=top;spacingLeft=4;spacingRight=4;overflow=hidden;rotatable=0;points=[[0,0.5],[1,0.5]];portConstraint=eastwest;whiteSpace=wrap;html=1;" vertex="1" parent="KjGgUwtwHEyZhzQTIDNN-107">
          <mxGeometry y="52" width="350" height="26" as="geometry" />
        </mxCell>
        <mxCell id="KjGgUwtwHEyZhzQTIDNN-109" value="+ appointmentRequest(): void" style="text;strokeColor=none;fillColor=none;align=left;verticalAlign=top;spacingLeft=4;spacingRight=4;overflow=hidden;rotatable=0;points=[[0,0.5],[1,0.5]];portConstraint=eastwest;whiteSpace=wrap;html=1;" vertex="1" parent="KjGgUwtwHEyZhzQTIDNN-107">
          <mxGeometry y="78" width="350" height="26" as="geometry" />
        </mxCell>
        <mxCell id="KjGgUwtwHEyZhzQTIDNN-110" value="+ viewUpcomingAppointments(): void" style="text;strokeColor=none;fillColor=none;align=left;verticalAlign=top;spacingLeft=4;spacingRight=4;overflow=hidden;rotatable=0;points=[[0,0.5],[1,0.5]];portConstraint=eastwest;whiteSpace=wrap;html=1;" vertex="1" parent="KjGgUwtwHEyZhzQTIDNN-107">
          <mxGeometry y="104" width="350" height="26" as="geometry" />
        </mxCell>
        <mxCell id="KjGgUwtwHEyZhzQTIDNN-111" value="+ recordAppointmentOutcome(): void" style="text;strokeColor=none;fillColor=none;align=left;verticalAlign=top;spacingLeft=4;spacingRight=4;overflow=hidden;rotatable=0;points=[[0,0.5],[1,0.5]];portConstraint=eastwest;whiteSpace=wrap;html=1;" vertex="1" parent="KjGgUwtwHEyZhzQTIDNN-107">
          <mxGeometry y="130" width="350" height="26" as="geometry" />
        </mxCell>
        <mxCell id="KjGgUwtwHEyZhzQTIDNN-112" value="+ DoctorAppointmentService(Doctor doctor): " style="text;strokeColor=none;fillColor=none;align=left;verticalAlign=top;spacingLeft=4;spacingRight=4;overflow=hidden;rotatable=0;points=[[0,0.5],[1,0.5]];portConstraint=eastwest;whiteSpace=wrap;html=1;" vertex="1" parent="KjGgUwtwHEyZhzQTIDNN-107">
          <mxGeometry y="156" width="350" height="26" as="geometry" />
        </mxCell>
        <mxCell id="KjGgUwtwHEyZhzQTIDNN-114" value="" style="endArrow=none;html=1;rounded=0;exitX=-0.001;exitY=0.059;exitDx=0;exitDy=0;exitPerimeter=0;" edge="1" parent="KjGgUwtwHEyZhzQTIDNN-107" source="KjGgUwtwHEyZhzQTIDNN-109">
          <mxGeometry width="50" height="50" relative="1" as="geometry">
            <mxPoint x="280" y="280" as="sourcePoint" />
            <mxPoint x="350" y="80" as="targetPoint" />
          </mxGeometry>
        </mxCell>
        <mxCell id="KjGgUwtwHEyZhzQTIDNN-115" value="DoctorMedicalRecord" style="swimlane;fontStyle=1;align=center;verticalAlign=top;childLayout=stackLayout;horizontal=1;startSize=26;horizontalStack=0;resizeParent=1;resizeParentMax=0;resizeLast=0;collapsible=1;marginBottom=0;whiteSpace=wrap;html=1;" vertex="1" parent="1">
          <mxGeometry x="6120" y="2860" width="390" height="182" as="geometry" />
        </mxCell>
        <mxCell id="KjGgUwtwHEyZhzQTIDNN-116" value="- doctor: Doctor" style="text;strokeColor=none;fillColor=none;align=left;verticalAlign=top;spacingLeft=4;spacingRight=4;overflow=hidden;rotatable=0;points=[[0,0.5],[1,0.5]];portConstraint=eastwest;whiteSpace=wrap;html=1;" vertex="1" parent="KjGgUwtwHEyZhzQTIDNN-115">
          <mxGeometry y="26" width="390" height="26" as="geometry" />
        </mxCell>
        <mxCell id="KjGgUwtwHEyZhzQTIDNN-121" value="- patientsMap: HashMap&amp;lt;&lt;font face=&quot;Helvetica&quot; style=&quot;font-size: 12px;&quot;&gt;&lt;span style=&quot;white-space: pre;&quot;&gt;String&lt;/span&gt;&lt;span style=&quot;background-color: rgb(255, 255, 255); white-space: pre;&quot;&gt;, Patients&lt;/span&gt;&lt;/font&gt;&lt;span style=&quot;background-color: initial;&quot;&gt;&amp;gt;&lt;/span&gt;" style="text;strokeColor=none;fillColor=none;align=left;verticalAlign=top;spacingLeft=4;spacingRight=4;overflow=hidden;rotatable=0;points=[[0,0.5],[1,0.5]];portConstraint=eastwest;whiteSpace=wrap;html=1;" vertex="1" parent="KjGgUwtwHEyZhzQTIDNN-115">
          <mxGeometry y="52" width="390" height="26" as="geometry" />
        </mxCell>
        <mxCell id="KjGgUwtwHEyZhzQTIDNN-122" value="- doctorRecord: HashMap&amp;lt;&lt;font face=&quot;Helvetica&quot; style=&quot;font-size: 12px;&quot;&gt;&lt;span style=&quot;white-space: pre;&quot;&gt;String&lt;/span&gt;&lt;span style=&quot;background-color: rgb(255, 255, 255); white-space: pre;&quot;&gt;, &lt;/span&gt;&lt;span style=&quot;white-space: pre;&quot;&gt;MedicalRecord&lt;/span&gt;&lt;/font&gt;&lt;span style=&quot;background-color: initial;&quot;&gt;&amp;gt;&lt;/span&gt;" style="text;strokeColor=none;fillColor=none;align=left;verticalAlign=top;spacingLeft=4;spacingRight=4;overflow=hidden;rotatable=0;points=[[0,0.5],[1,0.5]];portConstraint=eastwest;whiteSpace=wrap;html=1;" vertex="1" parent="KjGgUwtwHEyZhzQTIDNN-115">
          <mxGeometry y="78" width="390" height="26" as="geometry" />
        </mxCell>
        <mxCell id="KjGgUwtwHEyZhzQTIDNN-117" value="+ viewMedicalRecords(): void" style="text;strokeColor=none;fillColor=none;align=left;verticalAlign=top;spacingLeft=4;spacingRight=4;overflow=hidden;rotatable=0;points=[[0,0.5],[1,0.5]];portConstraint=eastwest;whiteSpace=wrap;html=1;" vertex="1" parent="KjGgUwtwHEyZhzQTIDNN-115">
          <mxGeometry y="104" width="390" height="26" as="geometry" />
        </mxCell>
        <mxCell id="KjGgUwtwHEyZhzQTIDNN-118" value="+ updateMedicalRecords(): void" style="text;strokeColor=none;fillColor=none;align=left;verticalAlign=top;spacingLeft=4;spacingRight=4;overflow=hidden;rotatable=0;points=[[0,0.5],[1,0.5]];portConstraint=eastwest;whiteSpace=wrap;html=1;" vertex="1" parent="KjGgUwtwHEyZhzQTIDNN-115">
          <mxGeometry y="130" width="390" height="26" as="geometry" />
        </mxCell>
        <mxCell id="KjGgUwtwHEyZhzQTIDNN-119" value="+ DoctorMedicalRecord(Doctor doctor): " style="text;strokeColor=none;fillColor=none;align=left;verticalAlign=top;spacingLeft=4;spacingRight=4;overflow=hidden;rotatable=0;points=[[0,0.5],[1,0.5]];portConstraint=eastwest;whiteSpace=wrap;html=1;" vertex="1" parent="KjGgUwtwHEyZhzQTIDNN-115">
          <mxGeometry y="156" width="390" height="26" as="geometry" />
        </mxCell>
        <mxCell id="KjGgUwtwHEyZhzQTIDNN-123" value="" style="endArrow=none;html=1;rounded=0;exitX=0.005;exitY=0.084;exitDx=0;exitDy=0;exitPerimeter=0;entryX=0.997;entryY=1.084;entryDx=0;entryDy=0;entryPerimeter=0;" edge="1" parent="KjGgUwtwHEyZhzQTIDNN-115" source="KjGgUwtwHEyZhzQTIDNN-117" target="KjGgUwtwHEyZhzQTIDNN-122">
          <mxGeometry width="50" height="50" relative="1" as="geometry">
            <mxPoint x="300" y="350" as="sourcePoint" />
            <mxPoint x="350" y="300" as="targetPoint" />
          </mxGeometry>
        </mxCell>
        <mxCell id="KjGgUwtwHEyZhzQTIDNN-124" value="DoctorScheduleService" style="swimlane;fontStyle=1;align=center;verticalAlign=top;childLayout=stackLayout;horizontal=1;startSize=26;horizontalStack=0;resizeParent=1;resizeParentMax=0;resizeLast=0;collapsible=1;marginBottom=0;whiteSpace=wrap;html=1;" vertex="1" parent="1">
          <mxGeometry x="5810" y="3250" width="270" height="130" as="geometry" />
        </mxCell>
        <mxCell id="KjGgUwtwHEyZhzQTIDNN-125" value="- doctor: Doctor" style="text;strokeColor=none;fillColor=none;align=left;verticalAlign=top;spacingLeft=4;spacingRight=4;overflow=hidden;rotatable=0;points=[[0,0.5],[1,0.5]];portConstraint=eastwest;whiteSpace=wrap;html=1;" vertex="1" parent="KjGgUwtwHEyZhzQTIDNN-124">
          <mxGeometry y="26" width="270" height="26" as="geometry" />
        </mxCell>
        <mxCell id="KjGgUwtwHEyZhzQTIDNN-126" value="+ viewPersonalSchedule(): void" style="text;strokeColor=none;fillColor=none;align=left;verticalAlign=top;spacingLeft=4;spacingRight=4;overflow=hidden;rotatable=0;points=[[0,0.5],[1,0.5]];portConstraint=eastwest;whiteSpace=wrap;html=1;" vertex="1" parent="KjGgUwtwHEyZhzQTIDNN-124">
          <mxGeometry y="52" width="270" height="26" as="geometry" />
        </mxCell>
        <mxCell id="KjGgUwtwHEyZhzQTIDNN-127" value="+ setAvailability(): void" style="text;strokeColor=none;fillColor=none;align=left;verticalAlign=top;spacingLeft=4;spacingRight=4;overflow=hidden;rotatable=0;points=[[0,0.5],[1,0.5]];portConstraint=eastwest;whiteSpace=wrap;html=1;" vertex="1" parent="KjGgUwtwHEyZhzQTIDNN-124">
          <mxGeometry y="78" width="270" height="26" as="geometry" />
        </mxCell>
        <mxCell id="KjGgUwtwHEyZhzQTIDNN-128" value="+ DoctorScheduleService(Doctor doctor): " style="text;strokeColor=none;fillColor=none;align=left;verticalAlign=top;spacingLeft=4;spacingRight=4;overflow=hidden;rotatable=0;points=[[0,0.5],[1,0.5]];portConstraint=eastwest;whiteSpace=wrap;html=1;" vertex="1" parent="KjGgUwtwHEyZhzQTIDNN-124">
          <mxGeometry y="104" width="270" height="26" as="geometry" />
        </mxCell>
        <mxCell id="KjGgUwtwHEyZhzQTIDNN-129" value="" style="endArrow=none;html=1;rounded=0;exitX=0;exitY=-0.027;exitDx=0;exitDy=0;exitPerimeter=0;entryX=0.999;entryY=0.003;entryDx=0;entryDy=0;entryPerimeter=0;" edge="1" parent="KjGgUwtwHEyZhzQTIDNN-124" source="KjGgUwtwHEyZhzQTIDNN-126" target="KjGgUwtwHEyZhzQTIDNN-126">
          <mxGeometry width="50" height="50" relative="1" as="geometry">
            <mxPoint x="300" y="250" as="sourcePoint" />
            <mxPoint x="350" y="200" as="targetPoint" />
          </mxGeometry>
        </mxCell>
        <mxCell id="KjGgUwtwHEyZhzQTIDNN-130" value="FileRead" style="swimlane;fontStyle=1;align=center;verticalAlign=top;childLayout=stackLayout;horizontal=1;startSize=26;horizontalStack=0;resizeParent=1;resizeParentMax=0;resizeLast=0;collapsible=1;marginBottom=0;whiteSpace=wrap;html=1;" vertex="1" parent="1">
          <mxGeometry x="7230" y="1964" width="420" height="78" as="geometry" />
        </mxCell>
        <mxCell id="KjGgUwtwHEyZhzQTIDNN-132" value="&amp;nbsp; &amp;nbsp; &amp;nbsp; &amp;nbsp;&amp;nbsp;" style="text;strokeColor=none;fillColor=none;align=left;verticalAlign=top;spacingLeft=4;spacingRight=4;overflow=hidden;rotatable=0;points=[[0,0.5],[1,0.5]];portConstraint=eastwest;whiteSpace=wrap;html=1;" vertex="1" parent="KjGgUwtwHEyZhzQTIDNN-130">
          <mxGeometry y="26" width="420" height="26" as="geometry" />
        </mxCell>
        <mxCell id="KjGgUwtwHEyZhzQTIDNN-131" value="&lt;u&gt;+ fileRead(): void&lt;/u&gt;" style="text;strokeColor=none;fillColor=none;align=left;verticalAlign=top;spacingLeft=4;spacingRight=4;overflow=hidden;rotatable=0;points=[[0,0.5],[1,0.5]];portConstraint=eastwest;whiteSpace=wrap;html=1;" vertex="1" parent="KjGgUwtwHEyZhzQTIDNN-130">
          <mxGeometry y="52" width="420" height="26" as="geometry" />
        </mxCell>
        <mxCell id="KjGgUwtwHEyZhzQTIDNN-133" value="" style="endArrow=none;html=1;rounded=0;entryX=1.001;entryY=1.018;entryDx=0;entryDy=0;entryPerimeter=0;" edge="1" parent="KjGgUwtwHEyZhzQTIDNN-130" target="KjGgUwtwHEyZhzQTIDNN-132">
          <mxGeometry width="50" height="50" relative="1" as="geometry">
            <mxPoint y="52" as="sourcePoint" />
            <mxPoint x="200" y="160" as="targetPoint" />
          </mxGeometry>
        </mxCell>
        <mxCell id="KjGgUwtwHEyZhzQTIDNN-134" value="InventoryManager" style="swimlane;fontStyle=1;align=center;verticalAlign=top;childLayout=stackLayout;horizontal=1;startSize=26;horizontalStack=0;resizeParent=1;resizeParentMax=0;resizeLast=0;collapsible=1;marginBottom=0;whiteSpace=wrap;html=1;" vertex="1" parent="1">
          <mxGeometry x="5170" y="1961" width="270" height="260" as="geometry" />
        </mxCell>
        <mxCell id="KjGgUwtwHEyZhzQTIDNN-135" value="- lowStockAlert: int" style="text;strokeColor=none;fillColor=none;align=left;verticalAlign=top;spacingLeft=4;spacingRight=4;overflow=hidden;rotatable=0;points=[[0,0.5],[1,0.5]];portConstraint=eastwest;whiteSpace=wrap;html=1;" vertex="1" parent="KjGgUwtwHEyZhzQTIDNN-134">
          <mxGeometry y="26" width="270" height="26" as="geometry" />
        </mxCell>
        <mxCell id="KjGgUwtwHEyZhzQTIDNN-150" value="&lt;u&gt;- inventory: Map&amp;lt;MedicationName, Integer&amp;gt;&lt;/u&gt;" style="text;strokeColor=none;fillColor=none;align=left;verticalAlign=top;spacingLeft=4;spacingRight=4;overflow=hidden;rotatable=0;points=[[0,0.5],[1,0.5]];portConstraint=eastwest;whiteSpace=wrap;html=1;" vertex="1" parent="KjGgUwtwHEyZhzQTIDNN-134">
          <mxGeometry y="52" width="270" height="26" as="geometry" />
        </mxCell>
        <mxCell id="KjGgUwtwHEyZhzQTIDNN-151" value="&lt;u&gt;# medicationStock: MedicationStock&lt;/u&gt;" style="text;strokeColor=none;fillColor=none;align=left;verticalAlign=top;spacingLeft=4;spacingRight=4;overflow=hidden;rotatable=0;points=[[0,0.5],[1,0.5]];portConstraint=eastwest;whiteSpace=wrap;html=1;" vertex="1" parent="KjGgUwtwHEyZhzQTIDNN-134">
          <mxGeometry y="78" width="270" height="26" as="geometry" />
        </mxCell>
        <mxCell id="KjGgUwtwHEyZhzQTIDNN-136" value="+ viewInventory(): void" style="text;strokeColor=none;fillColor=none;align=left;verticalAlign=top;spacingLeft=4;spacingRight=4;overflow=hidden;rotatable=0;points=[[0,0.5],[1,0.5]];portConstraint=eastwest;whiteSpace=wrap;html=1;" vertex="1" parent="KjGgUwtwHEyZhzQTIDNN-134">
          <mxGeometry y="104" width="270" height="26" as="geometry" />
        </mxCell>
        <mxCell id="KjGgUwtwHEyZhzQTIDNN-137" value="+ addingStock(): void" style="text;strokeColor=none;fillColor=none;align=left;verticalAlign=top;spacingLeft=4;spacingRight=4;overflow=hidden;rotatable=0;points=[[0,0.5],[1,0.5]];portConstraint=eastwest;whiteSpace=wrap;html=1;" vertex="1" parent="KjGgUwtwHEyZhzQTIDNN-134">
          <mxGeometry y="130" width="270" height="26" as="geometry" />
        </mxCell>
        <mxCell id="KjGgUwtwHEyZhzQTIDNN-138" value="+ removingStock(): void" style="text;strokeColor=none;fillColor=none;align=left;verticalAlign=top;spacingLeft=4;spacingRight=4;overflow=hidden;rotatable=0;points=[[0,0.5],[1,0.5]];portConstraint=eastwest;whiteSpace=wrap;html=1;" vertex="1" parent="KjGgUwtwHEyZhzQTIDNN-134">
          <mxGeometry y="156" width="270" height="26" as="geometry" />
        </mxCell>
        <mxCell id="KjGgUwtwHEyZhzQTIDNN-139" value="+ alertUpdate(): void" style="text;strokeColor=none;fillColor=none;align=left;verticalAlign=top;spacingLeft=4;spacingRight=4;overflow=hidden;rotatable=0;points=[[0,0.5],[1,0.5]];portConstraint=eastwest;whiteSpace=wrap;html=1;" vertex="1" parent="KjGgUwtwHEyZhzQTIDNN-134">
          <mxGeometry y="182" width="270" height="26" as="geometry" />
        </mxCell>
        <mxCell id="KjGgUwtwHEyZhzQTIDNN-140" value="+ showAlert(): void" style="text;strokeColor=none;fillColor=none;align=left;verticalAlign=top;spacingLeft=4;spacingRight=4;overflow=hidden;rotatable=0;points=[[0,0.5],[1,0.5]];portConstraint=eastwest;whiteSpace=wrap;html=1;" vertex="1" parent="KjGgUwtwHEyZhzQTIDNN-134">
          <mxGeometry y="208" width="270" height="26" as="geometry" />
        </mxCell>
        <mxCell id="KjGgUwtwHEyZhzQTIDNN-141" value="+ InventoryManager(): " style="text;strokeColor=none;fillColor=none;align=left;verticalAlign=top;spacingLeft=4;spacingRight=4;overflow=hidden;rotatable=0;points=[[0,0.5],[1,0.5]];portConstraint=eastwest;whiteSpace=wrap;html=1;" vertex="1" parent="KjGgUwtwHEyZhzQTIDNN-134">
          <mxGeometry y="234" width="270" height="26" as="geometry" />
        </mxCell>
        <mxCell id="KjGgUwtwHEyZhzQTIDNN-152" value="" style="endArrow=none;html=1;rounded=0;exitX=0.003;exitY=0.117;exitDx=0;exitDy=0;exitPerimeter=0;entryX=1.001;entryY=0.144;entryDx=0;entryDy=0;entryPerimeter=0;" edge="1" parent="KjGgUwtwHEyZhzQTIDNN-134" source="KjGgUwtwHEyZhzQTIDNN-136" target="KjGgUwtwHEyZhzQTIDNN-136">
          <mxGeometry width="50" height="50" relative="1" as="geometry">
            <mxPoint x="120" y="320" as="sourcePoint" />
            <mxPoint x="170" y="270" as="targetPoint" />
          </mxGeometry>
        </mxCell>
        <mxCell id="KjGgUwtwHEyZhzQTIDNN-153" value="InventoryMonitor" style="swimlane;fontStyle=1;align=center;verticalAlign=top;childLayout=stackLayout;horizontal=1;startSize=26;horizontalStack=0;resizeParent=1;resizeParentMax=0;resizeLast=0;collapsible=1;marginBottom=0;whiteSpace=wrap;html=1;" vertex="1" parent="1">
          <mxGeometry x="4570" y="1470" width="390" height="182" as="geometry" />
        </mxCell>
        <mxCell id="KjGgUwtwHEyZhzQTIDNN-154" value="- inventory: MedicationStock" style="text;strokeColor=none;fillColor=none;align=left;verticalAlign=top;spacingLeft=4;spacingRight=4;overflow=hidden;rotatable=0;points=[[0,0.5],[1,0.5]];portConstraint=eastwest;whiteSpace=wrap;html=1;" vertex="1" parent="KjGgUwtwHEyZhzQTIDNN-153">
          <mxGeometry y="26" width="390" height="26" as="geometry" />
        </mxCell>
        <mxCell id="KjGgUwtwHEyZhzQTIDNN-155" value="- medication: Medication" style="text;strokeColor=none;fillColor=none;align=left;verticalAlign=top;spacingLeft=4;spacingRight=4;overflow=hidden;rotatable=0;points=[[0,0.5],[1,0.5]];portConstraint=eastwest;whiteSpace=wrap;html=1;" vertex="1" parent="KjGgUwtwHEyZhzQTIDNN-153">
          <mxGeometry y="52" width="390" height="26" as="geometry" />
        </mxCell>
        <mxCell id="KjGgUwtwHEyZhzQTIDNN-159" value="&lt;u&gt;- replenishmentRequest: ArrayList&amp;lt;ReplenishmentRequest&amp;gt;&lt;/u&gt;" style="text;strokeColor=none;fillColor=none;align=left;verticalAlign=top;spacingLeft=4;spacingRight=4;overflow=hidden;rotatable=0;points=[[0,0.5],[1,0.5]];portConstraint=eastwest;whiteSpace=wrap;html=1;" vertex="1" parent="KjGgUwtwHEyZhzQTIDNN-153">
          <mxGeometry y="78" width="390" height="26" as="geometry" />
        </mxCell>
        <mxCell id="KjGgUwtwHEyZhzQTIDNN-156" value="+ viewInventory(): void" style="text;strokeColor=none;fillColor=none;align=left;verticalAlign=top;spacingLeft=4;spacingRight=4;overflow=hidden;rotatable=0;points=[[0,0.5],[1,0.5]];portConstraint=eastwest;whiteSpace=wrap;html=1;" vertex="1" parent="KjGgUwtwHEyZhzQTIDNN-153">
          <mxGeometry y="104" width="390" height="26" as="geometry" />
        </mxCell>
        <mxCell id="KjGgUwtwHEyZhzQTIDNN-157" value="+ submitReplenishmentRequest(): void" style="text;strokeColor=none;fillColor=none;align=left;verticalAlign=top;spacingLeft=4;spacingRight=4;overflow=hidden;rotatable=0;points=[[0,0.5],[1,0.5]];portConstraint=eastwest;whiteSpace=wrap;html=1;" vertex="1" parent="KjGgUwtwHEyZhzQTIDNN-153">
          <mxGeometry y="130" width="390" height="26" as="geometry" />
        </mxCell>
        <mxCell id="KjGgUwtwHEyZhzQTIDNN-158" value="+ InventoryMonitor(): " style="text;strokeColor=none;fillColor=none;align=left;verticalAlign=top;spacingLeft=4;spacingRight=4;overflow=hidden;rotatable=0;points=[[0,0.5],[1,0.5]];portConstraint=eastwest;whiteSpace=wrap;html=1;" vertex="1" parent="KjGgUwtwHEyZhzQTIDNN-153">
          <mxGeometry y="156" width="390" height="26" as="geometry" />
        </mxCell>
        <mxCell id="KjGgUwtwHEyZhzQTIDNN-160" value="" style="endArrow=none;html=1;rounded=0;exitX=0.004;exitY=0.049;exitDx=0;exitDy=0;exitPerimeter=0;entryX=0.999;entryY=0.051;entryDx=0;entryDy=0;entryPerimeter=0;" edge="1" parent="KjGgUwtwHEyZhzQTIDNN-153" target="KjGgUwtwHEyZhzQTIDNN-156">
          <mxGeometry width="50" height="50" relative="1" as="geometry">
            <mxPoint x="0.5599999999999454" y="105.27399999999989" as="sourcePoint" />
            <mxPoint x="390.55999999999995" y="105.27400000000011" as="targetPoint" />
          </mxGeometry>
        </mxCell>
        <mxCell id="KjGgUwtwHEyZhzQTIDNN-161" value="Main" style="swimlane;fontStyle=1;align=center;verticalAlign=top;childLayout=stackLayout;horizontal=1;startSize=26;horizontalStack=0;resizeParent=1;resizeParentMax=0;resizeLast=0;collapsible=1;marginBottom=0;whiteSpace=wrap;html=1;" vertex="1" parent="1">
          <mxGeometry x="6870" y="1830" width="220" height="78" as="geometry" />
        </mxCell>
        <mxCell id="KjGgUwtwHEyZhzQTIDNN-162" value="&amp;nbsp; &amp;nbsp; &amp;nbsp; &amp;nbsp;" style="text;strokeColor=none;fillColor=none;align=left;verticalAlign=top;spacingLeft=4;spacingRight=4;overflow=hidden;rotatable=0;points=[[0,0.5],[1,0.5]];portConstraint=eastwest;whiteSpace=wrap;html=1;" vertex="1" parent="KjGgUwtwHEyZhzQTIDNN-161">
          <mxGeometry y="26" width="220" height="26" as="geometry" />
        </mxCell>
        <mxCell id="KjGgUwtwHEyZhzQTIDNN-163" value="&lt;u&gt;+ main(String[] args): void&lt;/u&gt;" style="text;strokeColor=none;fillColor=none;align=left;verticalAlign=top;spacingLeft=4;spacingRight=4;overflow=hidden;rotatable=0;points=[[0,0.5],[1,0.5]];portConstraint=eastwest;whiteSpace=wrap;html=1;" vertex="1" parent="KjGgUwtwHEyZhzQTIDNN-161">
          <mxGeometry y="52" width="220" height="26" as="geometry" />
        </mxCell>
        <mxCell id="KjGgUwtwHEyZhzQTIDNN-164" value="" style="endArrow=none;html=1;rounded=0;exitX=0;exitY=0.987;exitDx=0;exitDy=0;exitPerimeter=0;entryX=0.997;entryY=0.977;entryDx=0;entryDy=0;entryPerimeter=0;" edge="1" parent="KjGgUwtwHEyZhzQTIDNN-161" source="KjGgUwtwHEyZhzQTIDNN-162" target="KjGgUwtwHEyZhzQTIDNN-162">
          <mxGeometry width="50" height="50" relative="1" as="geometry">
            <mxPoint x="-130" y="260" as="sourcePoint" />
            <mxPoint x="221" y="50" as="targetPoint" />
          </mxGeometry>
        </mxCell>
        <mxCell id="KjGgUwtwHEyZhzQTIDNN-165" value="MedicalRecord" style="swimlane;fontStyle=1;align=center;verticalAlign=top;childLayout=stackLayout;horizontal=1;startSize=26;horizontalStack=0;resizeParent=1;resizeParentMax=0;resizeLast=0;collapsible=1;marginBottom=0;whiteSpace=wrap;html=1;" vertex="1" parent="1">
          <mxGeometry x="8030" y="3040" width="810" height="650" as="geometry" />
        </mxCell>
        <mxCell id="KjGgUwtwHEyZhzQTIDNN-166" value="- patientId: String" style="text;strokeColor=none;fillColor=none;align=left;verticalAlign=top;spacingLeft=4;spacingRight=4;overflow=hidden;rotatable=0;points=[[0,0.5],[1,0.5]];portConstraint=eastwest;whiteSpace=wrap;html=1;" vertex="1" parent="KjGgUwtwHEyZhzQTIDNN-165">
          <mxGeometry y="26" width="810" height="26" as="geometry" />
        </mxCell>
        <mxCell id="KjGgUwtwHEyZhzQTIDNN-167" value="- patientName: String" style="text;strokeColor=none;fillColor=none;align=left;verticalAlign=top;spacingLeft=4;spacingRight=4;overflow=hidden;rotatable=0;points=[[0,0.5],[1,0.5]];portConstraint=eastwest;whiteSpace=wrap;html=1;" vertex="1" parent="KjGgUwtwHEyZhzQTIDNN-165">
          <mxGeometry y="52" width="810" height="26" as="geometry" />
        </mxCell>
        <mxCell id="KjGgUwtwHEyZhzQTIDNN-168" value="- dob: String" style="text;strokeColor=none;fillColor=none;align=left;verticalAlign=top;spacingLeft=4;spacingRight=4;overflow=hidden;rotatable=0;points=[[0,0.5],[1,0.5]];portConstraint=eastwest;whiteSpace=wrap;html=1;" vertex="1" parent="KjGgUwtwHEyZhzQTIDNN-165">
          <mxGeometry y="78" width="810" height="26" as="geometry" />
        </mxCell>
        <mxCell id="KjGgUwtwHEyZhzQTIDNN-169" value="- gender: String" style="text;strokeColor=none;fillColor=none;align=left;verticalAlign=top;spacingLeft=4;spacingRight=4;overflow=hidden;rotatable=0;points=[[0,0.5],[1,0.5]];portConstraint=eastwest;whiteSpace=wrap;html=1;" vertex="1" parent="KjGgUwtwHEyZhzQTIDNN-165">
          <mxGeometry y="104" width="810" height="26" as="geometry" />
        </mxCell>
        <mxCell id="KjGgUwtwHEyZhzQTIDNN-170" value="- bloodType: String" style="text;strokeColor=none;fillColor=none;align=left;verticalAlign=top;spacingLeft=4;spacingRight=4;overflow=hidden;rotatable=0;points=[[0,0.5],[1,0.5]];portConstraint=eastwest;whiteSpace=wrap;html=1;" vertex="1" parent="KjGgUwtwHEyZhzQTIDNN-165">
          <mxGeometry y="130" width="810" height="26" as="geometry" />
        </mxCell>
        <mxCell id="KjGgUwtwHEyZhzQTIDNN-171" value="- phoneNumber: String" style="text;strokeColor=none;fillColor=none;align=left;verticalAlign=top;spacingLeft=4;spacingRight=4;overflow=hidden;rotatable=0;points=[[0,0.5],[1,0.5]];portConstraint=eastwest;whiteSpace=wrap;html=1;" vertex="1" parent="KjGgUwtwHEyZhzQTIDNN-165">
          <mxGeometry y="156" width="810" height="26" as="geometry" />
        </mxCell>
        <mxCell id="KjGgUwtwHEyZhzQTIDNN-172" value="- emailAddress: String" style="text;strokeColor=none;fillColor=none;align=left;verticalAlign=top;spacingLeft=4;spacingRight=4;overflow=hidden;rotatable=0;points=[[0,0.5],[1,0.5]];portConstraint=eastwest;whiteSpace=wrap;html=1;" vertex="1" parent="KjGgUwtwHEyZhzQTIDNN-165">
          <mxGeometry y="182" width="810" height="26" as="geometry" />
        </mxCell>
        <mxCell id="KjGgUwtwHEyZhzQTIDNN-173" value="- diagnoses: ArrayList&amp;lt;String&amp;gt;" style="text;strokeColor=none;fillColor=none;align=left;verticalAlign=top;spacingLeft=4;spacingRight=4;overflow=hidden;rotatable=0;points=[[0,0.5],[1,0.5]];portConstraint=eastwest;whiteSpace=wrap;html=1;" vertex="1" parent="KjGgUwtwHEyZhzQTIDNN-165">
          <mxGeometry y="208" width="810" height="26" as="geometry" />
        </mxCell>
        <mxCell id="KjGgUwtwHEyZhzQTIDNN-174" value="- treatments: ArrayList&amp;lt;String&amp;gt;" style="text;strokeColor=none;fillColor=none;align=left;verticalAlign=top;spacingLeft=4;spacingRight=4;overflow=hidden;rotatable=0;points=[[0,0.5],[1,0.5]];portConstraint=eastwest;whiteSpace=wrap;html=1;" vertex="1" parent="KjGgUwtwHEyZhzQTIDNN-165">
          <mxGeometry y="234" width="810" height="26" as="geometry" />
        </mxCell>
        <mxCell id="KjGgUwtwHEyZhzQTIDNN-175" value="- prescriptions: ArrayList&amp;lt;String&amp;gt;" style="text;strokeColor=none;fillColor=none;align=left;verticalAlign=top;spacingLeft=4;spacingRight=4;overflow=hidden;rotatable=0;points=[[0,0.5],[1,0.5]];portConstraint=eastwest;whiteSpace=wrap;html=1;" vertex="1" parent="KjGgUwtwHEyZhzQTIDNN-165">
          <mxGeometry y="260" width="810" height="26" as="geometry" />
        </mxCell>
        <mxCell id="KjGgUwtwHEyZhzQTIDNN-187" value="&lt;u&gt;# patientRecordMap: HashMap&amp;lt;String, MedicalRecord&amp;gt;&lt;/u&gt;" style="text;strokeColor=none;fillColor=none;align=left;verticalAlign=top;spacingLeft=4;spacingRight=4;overflow=hidden;rotatable=0;points=[[0,0.5],[1,0.5]];portConstraint=eastwest;whiteSpace=wrap;html=1;" vertex="1" parent="KjGgUwtwHEyZhzQTIDNN-165">
          <mxGeometry y="286" width="810" height="26" as="geometry" />
        </mxCell>
        <mxCell id="KjGgUwtwHEyZhzQTIDNN-176" value="+ getBloodType(): String" style="text;strokeColor=none;fillColor=none;align=left;verticalAlign=top;spacingLeft=4;spacingRight=4;overflow=hidden;rotatable=0;points=[[0,0.5],[1,0.5]];portConstraint=eastwest;whiteSpace=wrap;html=1;" vertex="1" parent="KjGgUwtwHEyZhzQTIDNN-165">
          <mxGeometry y="312" width="810" height="26" as="geometry" />
        </mxCell>
        <mxCell id="KjGgUwtwHEyZhzQTIDNN-177" value="+ getDiagnoses(): ArrayList&amp;lt;String&amp;gt;" style="text;strokeColor=none;fillColor=none;align=left;verticalAlign=top;spacingLeft=4;spacingRight=4;overflow=hidden;rotatable=0;points=[[0,0.5],[1,0.5]];portConstraint=eastwest;whiteSpace=wrap;html=1;" vertex="1" parent="KjGgUwtwHEyZhzQTIDNN-165">
          <mxGeometry y="338" width="810" height="26" as="geometry" />
        </mxCell>
        <mxCell id="KjGgUwtwHEyZhzQTIDNN-178" value="+ getTreatments(): ArrayList&amp;lt;String&amp;gt;" style="text;strokeColor=none;fillColor=none;align=left;verticalAlign=top;spacingLeft=4;spacingRight=4;overflow=hidden;rotatable=0;points=[[0,0.5],[1,0.5]];portConstraint=eastwest;whiteSpace=wrap;html=1;" vertex="1" parent="KjGgUwtwHEyZhzQTIDNN-165">
          <mxGeometry y="364" width="810" height="26" as="geometry" />
        </mxCell>
        <mxCell id="KjGgUwtwHEyZhzQTIDNN-179" value="+ addDiagnosis(String diagnosis): void" style="text;strokeColor=none;fillColor=none;align=left;verticalAlign=top;spacingLeft=4;spacingRight=4;overflow=hidden;rotatable=0;points=[[0,0.5],[1,0.5]];portConstraint=eastwest;whiteSpace=wrap;html=1;" vertex="1" parent="KjGgUwtwHEyZhzQTIDNN-165">
          <mxGeometry y="390" width="810" height="26" as="geometry" />
        </mxCell>
        <mxCell id="KjGgUwtwHEyZhzQTIDNN-180" value="+ addPrescription(String prescription): void" style="text;strokeColor=none;fillColor=none;align=left;verticalAlign=top;spacingLeft=4;spacingRight=4;overflow=hidden;rotatable=0;points=[[0,0.5],[1,0.5]];portConstraint=eastwest;whiteSpace=wrap;html=1;" vertex="1" parent="KjGgUwtwHEyZhzQTIDNN-165">
          <mxGeometry y="416" width="810" height="26" as="geometry" />
        </mxCell>
        <mxCell id="KjGgUwtwHEyZhzQTIDNN-181" value="+ addTreatment(String treatment): void" style="text;strokeColor=none;fillColor=none;align=left;verticalAlign=top;spacingLeft=4;spacingRight=4;overflow=hidden;rotatable=0;points=[[0,0.5],[1,0.5]];portConstraint=eastwest;whiteSpace=wrap;html=1;" vertex="1" parent="KjGgUwtwHEyZhzQTIDNN-165">
          <mxGeometry y="442" width="810" height="26" as="geometry" />
        </mxCell>
        <mxCell id="KjGgUwtwHEyZhzQTIDNN-188" value="&lt;u&gt;+ addMedicalRecord(String patientId, MedicalRecord record): void&lt;/u&gt;" style="text;strokeColor=none;fillColor=none;align=left;verticalAlign=top;spacingLeft=4;spacingRight=4;overflow=hidden;rotatable=0;points=[[0,0.5],[1,0.5]];portConstraint=eastwest;whiteSpace=wrap;html=1;" vertex="1" parent="KjGgUwtwHEyZhzQTIDNN-165">
          <mxGeometry y="468" width="810" height="26" as="geometry" />
        </mxCell>
        <mxCell id="KjGgUwtwHEyZhzQTIDNN-189" value="&lt;u&gt;+ getMedicalRecordById(String patientId): void&lt;/u&gt;" style="text;strokeColor=none;fillColor=none;align=left;verticalAlign=top;spacingLeft=4;spacingRight=4;overflow=hidden;rotatable=0;points=[[0,0.5],[1,0.5]];portConstraint=eastwest;whiteSpace=wrap;html=1;" vertex="1" parent="KjGgUwtwHEyZhzQTIDNN-165">
          <mxGeometry y="494" width="810" height="26" as="geometry" />
        </mxCell>
        <mxCell id="KjGgUwtwHEyZhzQTIDNN-182" value="+ displayRecords(String patientIdString): void" style="text;strokeColor=none;fillColor=none;align=left;verticalAlign=top;spacingLeft=4;spacingRight=4;overflow=hidden;rotatable=0;points=[[0,0.5],[1,0.5]];portConstraint=eastwest;whiteSpace=wrap;html=1;" vertex="1" parent="KjGgUwtwHEyZhzQTIDNN-165">
          <mxGeometry y="520" width="810" height="26" as="geometry" />
        </mxCell>
        <mxCell id="KjGgUwtwHEyZhzQTIDNN-183" value="+ updatePhoneNumber(String newPhoneNumber): void" style="text;strokeColor=none;fillColor=none;align=left;verticalAlign=top;spacingLeft=4;spacingRight=4;overflow=hidden;rotatable=0;points=[[0,0.5],[1,0.5]];portConstraint=eastwest;whiteSpace=wrap;html=1;" vertex="1" parent="KjGgUwtwHEyZhzQTIDNN-165">
          <mxGeometry y="546" width="810" height="26" as="geometry" />
        </mxCell>
        <mxCell id="KjGgUwtwHEyZhzQTIDNN-184" value="+ updateEmailAddress(String newEmailAddress): void" style="text;strokeColor=none;fillColor=none;align=left;verticalAlign=top;spacingLeft=4;spacingRight=4;overflow=hidden;rotatable=0;points=[[0,0.5],[1,0.5]];portConstraint=eastwest;whiteSpace=wrap;html=1;" vertex="1" parent="KjGgUwtwHEyZhzQTIDNN-165">
          <mxGeometry y="572" width="810" height="26" as="geometry" />
        </mxCell>
        <mxCell id="KjGgUwtwHEyZhzQTIDNN-185" value="+ viewMedicalRecord(): void" style="text;strokeColor=none;fillColor=none;align=left;verticalAlign=top;spacingLeft=4;spacingRight=4;overflow=hidden;rotatable=0;points=[[0,0.5],[1,0.5]];portConstraint=eastwest;whiteSpace=wrap;html=1;" vertex="1" parent="KjGgUwtwHEyZhzQTIDNN-165">
          <mxGeometry y="598" width="810" height="26" as="geometry" />
        </mxCell>
        <mxCell id="KjGgUwtwHEyZhzQTIDNN-186" value="+ MedicalRecord(String patientId, String patientName, String dob, String gender, String bloodType, String phoneNumber, String emailAddress): " style="text;strokeColor=none;fillColor=none;align=left;verticalAlign=top;spacingLeft=4;spacingRight=4;overflow=hidden;rotatable=0;points=[[0,0.5],[1,0.5]];portConstraint=eastwest;whiteSpace=wrap;html=1;" vertex="1" parent="KjGgUwtwHEyZhzQTIDNN-165">
          <mxGeometry y="624" width="810" height="26" as="geometry" />
        </mxCell>
        <mxCell id="KjGgUwtwHEyZhzQTIDNN-190" value="Medication" style="swimlane;fontStyle=1;align=center;verticalAlign=top;childLayout=stackLayout;horizontal=1;startSize=26;horizontalStack=0;resizeParent=1;resizeParentMax=0;resizeLast=0;collapsible=1;marginBottom=0;whiteSpace=wrap;html=1;" vertex="1" parent="1">
          <mxGeometry x="4090" y="1466" width="270" height="208" as="geometry" />
        </mxCell>
        <mxCell id="KjGgUwtwHEyZhzQTIDNN-191" value="- name: MedicationName" style="text;strokeColor=none;fillColor=none;align=left;verticalAlign=top;spacingLeft=4;spacingRight=4;overflow=hidden;rotatable=0;points=[[0,0.5],[1,0.5]];portConstraint=eastwest;whiteSpace=wrap;html=1;" vertex="1" parent="KjGgUwtwHEyZhzQTIDNN-190">
          <mxGeometry y="26" width="270" height="26" as="geometry" />
        </mxCell>
        <mxCell id="KjGgUwtwHEyZhzQTIDNN-192" value="- status: String" style="text;strokeColor=none;fillColor=none;align=left;verticalAlign=top;spacingLeft=4;spacingRight=4;overflow=hidden;rotatable=0;points=[[0,0.5],[1,0.5]];portConstraint=eastwest;whiteSpace=wrap;html=1;" vertex="1" parent="KjGgUwtwHEyZhzQTIDNN-190">
          <mxGeometry y="52" width="270" height="26" as="geometry" />
        </mxCell>
        <mxCell id="KjGgUwtwHEyZhzQTIDNN-193" value="+ getName(): String" style="text;strokeColor=none;fillColor=none;align=left;verticalAlign=top;spacingLeft=4;spacingRight=4;overflow=hidden;rotatable=0;points=[[0,0.5],[1,0.5]];portConstraint=eastwest;whiteSpace=wrap;html=1;" vertex="1" parent="KjGgUwtwHEyZhzQTIDNN-190">
          <mxGeometry y="78" width="270" height="26" as="geometry" />
        </mxCell>
        <mxCell id="KjGgUwtwHEyZhzQTIDNN-194" value="+ getStatus(): String" style="text;strokeColor=none;fillColor=none;align=left;verticalAlign=top;spacingLeft=4;spacingRight=4;overflow=hidden;rotatable=0;points=[[0,0.5],[1,0.5]];portConstraint=eastwest;whiteSpace=wrap;html=1;" vertex="1" parent="KjGgUwtwHEyZhzQTIDNN-190">
          <mxGeometry y="104" width="270" height="26" as="geometry" />
        </mxCell>
        <mxCell id="KjGgUwtwHEyZhzQTIDNN-195" value="+ setStatus(String status): void" style="text;strokeColor=none;fillColor=none;align=left;verticalAlign=top;spacingLeft=4;spacingRight=4;overflow=hidden;rotatable=0;points=[[0,0.5],[1,0.5]];portConstraint=eastwest;whiteSpace=wrap;html=1;" vertex="1" parent="KjGgUwtwHEyZhzQTIDNN-190">
          <mxGeometry y="130" width="270" height="26" as="geometry" />
        </mxCell>
        <mxCell id="KjGgUwtwHEyZhzQTIDNN-196" value="+ toString(): String" style="text;strokeColor=none;fillColor=none;align=left;verticalAlign=top;spacingLeft=4;spacingRight=4;overflow=hidden;rotatable=0;points=[[0,0.5],[1,0.5]];portConstraint=eastwest;whiteSpace=wrap;html=1;" vertex="1" parent="KjGgUwtwHEyZhzQTIDNN-190">
          <mxGeometry y="156" width="270" height="26" as="geometry" />
        </mxCell>
        <mxCell id="KjGgUwtwHEyZhzQTIDNN-197" value="+ Medication(MedicationName name): " style="text;strokeColor=none;fillColor=none;align=left;verticalAlign=top;spacingLeft=4;spacingRight=4;overflow=hidden;rotatable=0;points=[[0,0.5],[1,0.5]];portConstraint=eastwest;whiteSpace=wrap;html=1;" vertex="1" parent="KjGgUwtwHEyZhzQTIDNN-190">
          <mxGeometry y="182" width="270" height="26" as="geometry" />
        </mxCell>
        <mxCell id="KjGgUwtwHEyZhzQTIDNN-199" value="" style="endArrow=none;html=1;rounded=0;entryX=1.002;entryY=0.029;entryDx=0;entryDy=0;entryPerimeter=0;" edge="1" parent="KjGgUwtwHEyZhzQTIDNN-190" target="KjGgUwtwHEyZhzQTIDNN-193">
          <mxGeometry width="50" height="50" relative="1" as="geometry">
            <mxPoint x="1" y="80" as="sourcePoint" />
            <mxPoint x="290" y="270" as="targetPoint" />
          </mxGeometry>
        </mxCell>
        <mxCell id="KjGgUwtwHEyZhzQTIDNN-198" value="" style="endArrow=open;html=1;rounded=0;entryX=0;entryY=0;entryDx=0;entryDy=0;dashed=1;endFill=0;exitX=0.469;exitY=0.957;exitDx=0;exitDy=0;exitPerimeter=0;" edge="1" parent="1" source="KjGgUwtwHEyZhzQTIDNN-131" target="KjGgUwtwHEyZhzQTIDNN-165">
          <mxGeometry width="50" height="50" relative="1" as="geometry">
            <mxPoint x="7460" y="2040" as="sourcePoint" />
            <mxPoint x="1340" y="1720" as="targetPoint" />
          </mxGeometry>
        </mxCell>
        <mxCell id="KjGgUwtwHEyZhzQTIDNN-200" value="&lt;div style=&quot;line-height: 120%;&quot;&gt;&lt;span style=&quot;background-color: initial;&quot;&gt;MedicationName&amp;nbsp;&lt;/span&gt;&amp;lt;&amp;lt;enumeration&amp;gt;&amp;gt;&lt;/div&gt;" style="swimlane;fontStyle=1;align=center;verticalAlign=top;childLayout=stackLayout;horizontal=1;startSize=26;horizontalStack=0;resizeParent=1;resizeParentMax=0;resizeLast=0;collapsible=1;marginBottom=0;whiteSpace=wrap;html=1;" vertex="1" parent="1">
          <mxGeometry x="4290" y="2120" width="340" height="182" as="geometry">
            <mxRectangle x="1800" y="1460" width="140" height="40" as="alternateBounds" />
          </mxGeometry>
        </mxCell>
        <mxCell id="KjGgUwtwHEyZhzQTIDNN-201" value="ASPIRIN(&quot;Aspirin&quot;)" style="text;strokeColor=none;fillColor=none;align=left;verticalAlign=top;spacingLeft=4;spacingRight=4;overflow=hidden;rotatable=0;points=[[0,0.5],[1,0.5]];portConstraint=eastwest;whiteSpace=wrap;html=1;" vertex="1" parent="KjGgUwtwHEyZhzQTIDNN-200">
          <mxGeometry y="26" width="340" height="26" as="geometry" />
        </mxCell>
        <mxCell id="KjGgUwtwHEyZhzQTIDNN-209" value="IBUPROFEN(&quot;Ibuprofen&quot;)" style="text;strokeColor=none;fillColor=none;align=left;verticalAlign=top;spacingLeft=4;spacingRight=4;overflow=hidden;rotatable=0;points=[[0,0.5],[1,0.5]];portConstraint=eastwest;whiteSpace=wrap;html=1;" vertex="1" parent="KjGgUwtwHEyZhzQTIDNN-200">
          <mxGeometry y="52" width="340" height="26" as="geometry" />
        </mxCell>
        <mxCell id="KjGgUwtwHEyZhzQTIDNN-210" value="PARACETAMOL(&quot;Paracetamol&quot;)" style="text;strokeColor=none;fillColor=none;align=left;verticalAlign=top;spacingLeft=4;spacingRight=4;overflow=hidden;rotatable=0;points=[[0,0.5],[1,0.5]];portConstraint=eastwest;whiteSpace=wrap;html=1;" vertex="1" parent="KjGgUwtwHEyZhzQTIDNN-200">
          <mxGeometry y="78" width="340" height="26" as="geometry" />
        </mxCell>
        <mxCell id="KjGgUwtwHEyZhzQTIDNN-202" value="- name: String" style="text;strokeColor=none;fillColor=none;align=left;verticalAlign=top;spacingLeft=4;spacingRight=4;overflow=hidden;rotatable=0;points=[[0,0.5],[1,0.5]];portConstraint=eastwest;whiteSpace=wrap;html=1;" vertex="1" parent="KjGgUwtwHEyZhzQTIDNN-200">
          <mxGeometry y="104" width="340" height="26" as="geometry" />
        </mxCell>
        <mxCell id="KjGgUwtwHEyZhzQTIDNN-203" value="+ getName(): String" style="text;strokeColor=none;fillColor=none;align=left;verticalAlign=top;spacingLeft=4;spacingRight=4;overflow=hidden;rotatable=0;points=[[0,0.5],[1,0.5]];portConstraint=eastwest;whiteSpace=wrap;html=1;" vertex="1" parent="KjGgUwtwHEyZhzQTIDNN-200">
          <mxGeometry y="130" width="340" height="26" as="geometry" />
        </mxCell>
        <mxCell id="KjGgUwtwHEyZhzQTIDNN-207" value="+ MedicationName(String name): " style="text;strokeColor=none;fillColor=none;align=left;verticalAlign=top;spacingLeft=4;spacingRight=4;overflow=hidden;rotatable=0;points=[[0,0.5],[1,0.5]];portConstraint=eastwest;whiteSpace=wrap;html=1;" vertex="1" parent="KjGgUwtwHEyZhzQTIDNN-200">
          <mxGeometry y="156" width="340" height="26" as="geometry" />
        </mxCell>
        <mxCell id="KjGgUwtwHEyZhzQTIDNN-208" value="" style="endArrow=none;html=1;rounded=0;entryX=0.999;entryY=0.071;entryDx=0;entryDy=0;entryPerimeter=0;exitX=0.006;exitY=0.103;exitDx=0;exitDy=0;exitPerimeter=0;" edge="1" parent="KjGgUwtwHEyZhzQTIDNN-200" source="KjGgUwtwHEyZhzQTIDNN-203" target="KjGgUwtwHEyZhzQTIDNN-203">
          <mxGeometry width="50" height="50" relative="1" as="geometry">
            <mxPoint x="-10" y="430" as="sourcePoint" />
            <mxPoint x="329.67999999999984" y="454.7539999999999" as="targetPoint" />
          </mxGeometry>
        </mxCell>
        <mxCell id="KjGgUwtwHEyZhzQTIDNN-211" value="MedicationStock" style="swimlane;fontStyle=1;align=center;verticalAlign=top;childLayout=stackLayout;horizontal=1;startSize=26;horizontalStack=0;resizeParent=1;resizeParentMax=0;resizeLast=0;collapsible=1;marginBottom=0;whiteSpace=wrap;html=1;" vertex="1" parent="1">
          <mxGeometry x="4620" y="1790" width="440" height="260" as="geometry" />
        </mxCell>
        <mxCell id="KjGgUwtwHEyZhzQTIDNN-219" value="&lt;u&gt;- stock: Map&amp;lt;MedicationName, Integer&amp;gt;&lt;/u&gt;" style="text;strokeColor=none;fillColor=none;align=left;verticalAlign=top;spacingLeft=4;spacingRight=4;overflow=hidden;rotatable=0;points=[[0,0.5],[1,0.5]];portConstraint=eastwest;whiteSpace=wrap;html=1;" vertex="1" parent="KjGgUwtwHEyZhzQTIDNN-211">
          <mxGeometry y="26" width="440" height="26" as="geometry" />
        </mxCell>
        <mxCell id="KjGgUwtwHEyZhzQTIDNN-220" value="&lt;u&gt;- alert: Map&amp;lt;MedicationName, Integer&amp;gt;&lt;/u&gt;" style="text;strokeColor=none;fillColor=none;align=left;verticalAlign=top;spacingLeft=4;spacingRight=4;overflow=hidden;rotatable=0;points=[[0,0.5],[1,0.5]];portConstraint=eastwest;whiteSpace=wrap;html=1;" vertex="1" parent="KjGgUwtwHEyZhzQTIDNN-211">
          <mxGeometry y="52" width="440" height="26" as="geometry" />
        </mxCell>
        <mxCell id="KjGgUwtwHEyZhzQTIDNN-212" value="+ addStock(MedicationName medication, int amount): void" style="text;strokeColor=none;fillColor=none;align=left;verticalAlign=top;spacingLeft=4;spacingRight=4;overflow=hidden;rotatable=0;points=[[0,0.5],[1,0.5]];portConstraint=eastwest;whiteSpace=wrap;html=1;" vertex="1" parent="KjGgUwtwHEyZhzQTIDNN-211">
          <mxGeometry y="78" width="440" height="26" as="geometry" />
        </mxCell>
        <mxCell id="KjGgUwtwHEyZhzQTIDNN-213" value="+ removeStock(MedicationName medication, int amount): void" style="text;strokeColor=none;fillColor=none;align=left;verticalAlign=top;spacingLeft=4;spacingRight=4;overflow=hidden;rotatable=0;points=[[0,0.5],[1,0.5]];portConstraint=eastwest;whiteSpace=wrap;html=1;" vertex="1" parent="KjGgUwtwHEyZhzQTIDNN-211">
          <mxGeometry y="104" width="440" height="26" as="geometry" />
        </mxCell>
        <mxCell id="KjGgUwtwHEyZhzQTIDNN-214" value="+ getStock(MedicationName medication): int" style="text;strokeColor=none;fillColor=none;align=left;verticalAlign=top;spacingLeft=4;spacingRight=4;overflow=hidden;rotatable=0;points=[[0,0.5],[1,0.5]];portConstraint=eastwest;whiteSpace=wrap;html=1;" vertex="1" parent="KjGgUwtwHEyZhzQTIDNN-211">
          <mxGeometry y="130" width="440" height="26" as="geometry" />
        </mxCell>
        <mxCell id="KjGgUwtwHEyZhzQTIDNN-215" value="+ setAlert(MedicationName medication, int level): void" style="text;strokeColor=none;fillColor=none;align=left;verticalAlign=top;spacingLeft=4;spacingRight=4;overflow=hidden;rotatable=0;points=[[0,0.5],[1,0.5]];portConstraint=eastwest;whiteSpace=wrap;html=1;" vertex="1" parent="KjGgUwtwHEyZhzQTIDNN-211">
          <mxGeometry y="156" width="440" height="26" as="geometry" />
        </mxCell>
        <mxCell id="KjGgUwtwHEyZhzQTIDNN-216" value="+ showAlert(MedicationName medication): void" style="text;strokeColor=none;fillColor=none;align=left;verticalAlign=top;spacingLeft=4;spacingRight=4;overflow=hidden;rotatable=0;points=[[0,0.5],[1,0.5]];portConstraint=eastwest;whiteSpace=wrap;html=1;" vertex="1" parent="KjGgUwtwHEyZhzQTIDNN-211">
          <mxGeometry y="182" width="440" height="26" as="geometry" />
        </mxCell>
        <mxCell id="KjGgUwtwHEyZhzQTIDNN-217" value="+ getAlert(MedicationName medication): Integer" style="text;strokeColor=none;fillColor=none;align=left;verticalAlign=top;spacingLeft=4;spacingRight=4;overflow=hidden;rotatable=0;points=[[0,0.5],[1,0.5]];portConstraint=eastwest;whiteSpace=wrap;html=1;" vertex="1" parent="KjGgUwtwHEyZhzQTIDNN-211">
          <mxGeometry y="208" width="440" height="26" as="geometry" />
        </mxCell>
        <mxCell id="KjGgUwtwHEyZhzQTIDNN-218" value="- MedicationStock(): " style="text;strokeColor=none;fillColor=none;align=left;verticalAlign=top;spacingLeft=4;spacingRight=4;overflow=hidden;rotatable=0;points=[[0,0.5],[1,0.5]];portConstraint=eastwest;whiteSpace=wrap;html=1;" vertex="1" parent="KjGgUwtwHEyZhzQTIDNN-211">
          <mxGeometry y="234" width="440" height="26" as="geometry" />
        </mxCell>
        <mxCell id="KjGgUwtwHEyZhzQTIDNN-221" value="" style="endArrow=none;html=1;rounded=0;exitX=-0.001;exitY=0.053;exitDx=0;exitDy=0;exitPerimeter=0;entryX=0.999;entryY=-0.033;entryDx=0;entryDy=0;entryPerimeter=0;" edge="1" parent="KjGgUwtwHEyZhzQTIDNN-211" source="KjGgUwtwHEyZhzQTIDNN-212" target="KjGgUwtwHEyZhzQTIDNN-212">
          <mxGeometry width="50" height="50" relative="1" as="geometry">
            <mxPoint x="-20" y="348" as="sourcePoint" />
            <mxPoint x="30" y="298" as="targetPoint" />
          </mxGeometry>
        </mxCell>
        <mxCell id="KjGgUwtwHEyZhzQTIDNN-222" value="Patients" style="swimlane;fontStyle=1;align=center;verticalAlign=top;childLayout=stackLayout;horizontal=1;startSize=26;horizontalStack=0;resizeParent=1;resizeParentMax=0;resizeLast=0;collapsible=1;marginBottom=0;whiteSpace=wrap;html=1;" vertex="1" parent="1">
          <mxGeometry x="8020" y="1860" width="870" height="702" as="geometry">
            <mxRectangle x="6980" y="552" width="80" height="30" as="alternateBounds" />
          </mxGeometry>
        </mxCell>
        <mxCell id="KjGgUwtwHEyZhzQTIDNN-223" value="# name: String" style="text;strokeColor=none;fillColor=none;align=left;verticalAlign=top;spacingLeft=4;spacingRight=4;overflow=hidden;rotatable=0;points=[[0,0.5],[1,0.5]];portConstraint=eastwest;whiteSpace=wrap;html=1;" vertex="1" parent="KjGgUwtwHEyZhzQTIDNN-222">
          <mxGeometry y="26" width="870" height="26" as="geometry" />
        </mxCell>
        <mxCell id="KjGgUwtwHEyZhzQTIDNN-224" value="- dob: String" style="text;strokeColor=none;fillColor=none;align=left;verticalAlign=top;spacingLeft=4;spacingRight=4;overflow=hidden;rotatable=0;points=[[0,0.5],[1,0.5]];portConstraint=eastwest;whiteSpace=wrap;html=1;" vertex="1" parent="KjGgUwtwHEyZhzQTIDNN-222">
          <mxGeometry y="52" width="870" height="26" as="geometry" />
        </mxCell>
        <mxCell id="KjGgUwtwHEyZhzQTIDNN-225" value="# phoneNumber: String" style="text;strokeColor=none;fillColor=none;align=left;verticalAlign=top;spacingLeft=4;spacingRight=4;overflow=hidden;rotatable=0;points=[[0,0.5],[1,0.5]];portConstraint=eastwest;whiteSpace=wrap;html=1;" vertex="1" parent="KjGgUwtwHEyZhzQTIDNN-222">
          <mxGeometry y="78" width="870" height="26" as="geometry" />
        </mxCell>
        <mxCell id="KjGgUwtwHEyZhzQTIDNN-226" value="# emailAddress: String" style="text;strokeColor=none;fillColor=none;align=left;verticalAlign=top;spacingLeft=4;spacingRight=4;overflow=hidden;rotatable=0;points=[[0,0.5],[1,0.5]];portConstraint=eastwest;whiteSpace=wrap;html=1;" vertex="1" parent="KjGgUwtwHEyZhzQTIDNN-222">
          <mxGeometry y="104" width="870" height="26" as="geometry" />
        </mxCell>
        <mxCell id="KjGgUwtwHEyZhzQTIDNN-227" value="- gender: String" style="text;strokeColor=none;fillColor=none;align=left;verticalAlign=top;spacingLeft=4;spacingRight=4;overflow=hidden;rotatable=0;points=[[0,0.5],[1,0.5]];portConstraint=eastwest;whiteSpace=wrap;html=1;" vertex="1" parent="KjGgUwtwHEyZhzQTIDNN-222">
          <mxGeometry y="130" width="870" height="26" as="geometry" />
        </mxCell>
        <mxCell id="KjGgUwtwHEyZhzQTIDNN-228" value="- hospitalId: String" style="text;strokeColor=none;fillColor=none;align=left;verticalAlign=top;spacingLeft=4;spacingRight=4;overflow=hidden;rotatable=0;points=[[0,0.5],[1,0.5]];portConstraint=eastwest;whiteSpace=wrap;html=1;" vertex="1" parent="KjGgUwtwHEyZhzQTIDNN-222">
          <mxGeometry y="156" width="870" height="26" as="geometry" />
        </mxCell>
        <mxCell id="KjGgUwtwHEyZhzQTIDNN-229" value="- bloodType: String" style="text;strokeColor=none;fillColor=none;align=left;verticalAlign=top;spacingLeft=4;spacingRight=4;overflow=hidden;rotatable=0;points=[[0,0.5],[1,0.5]];portConstraint=eastwest;whiteSpace=wrap;html=1;" vertex="1" parent="KjGgUwtwHEyZhzQTIDNN-222">
          <mxGeometry y="182" width="870" height="26" as="geometry" />
        </mxCell>
        <mxCell id="KjGgUwtwHEyZhzQTIDNN-230" value="- medicalRecord: MedicalRecord" style="text;strokeColor=none;fillColor=none;align=left;verticalAlign=top;spacingLeft=4;spacingRight=4;overflow=hidden;rotatable=0;points=[[0,0.5],[1,0.5]];portConstraint=eastwest;whiteSpace=wrap;html=1;" vertex="1" parent="KjGgUwtwHEyZhzQTIDNN-222">
          <mxGeometry y="208" width="870" height="26" as="geometry" />
        </mxCell>
        <mxCell id="KjGgUwtwHEyZhzQTIDNN-231" value="- contactInfo: PatientsContactInfo" style="text;strokeColor=none;fillColor=none;align=left;verticalAlign=top;spacingLeft=4;spacingRight=4;overflow=hidden;rotatable=0;points=[[0,0.5],[1,0.5]];portConstraint=eastwest;whiteSpace=wrap;html=1;" vertex="1" parent="KjGgUwtwHEyZhzQTIDNN-222">
          <mxGeometry y="234" width="870" height="26" as="geometry" />
        </mxCell>
        <mxCell id="KjGgUwtwHEyZhzQTIDNN-232" value="- appointments: List&amp;lt;Appointment&amp;gt;" style="text;strokeColor=none;fillColor=none;align=left;verticalAlign=top;spacingLeft=4;spacingRight=4;overflow=hidden;rotatable=0;points=[[0,0.5],[1,0.5]];portConstraint=eastwest;whiteSpace=wrap;html=1;" vertex="1" parent="KjGgUwtwHEyZhzQTIDNN-222">
          <mxGeometry y="260" width="870" height="26" as="geometry" />
        </mxCell>
        <mxCell id="KjGgUwtwHEyZhzQTIDNN-233" value="# appointmentSlots: AppointmentSlots" style="text;strokeColor=none;fillColor=none;align=left;verticalAlign=top;spacingLeft=4;spacingRight=4;overflow=hidden;rotatable=0;points=[[0,0.5],[1,0.5]];portConstraint=eastwest;whiteSpace=wrap;html=1;" vertex="1" parent="KjGgUwtwHEyZhzQTIDNN-222">
          <mxGeometry y="286" width="870" height="26" as="geometry" />
        </mxCell>
        <mxCell id="KjGgUwtwHEyZhzQTIDNN-246" value="&lt;u&gt;# patientList: HashMap&amp;lt;String, Patients&amp;gt;&lt;/u&gt;" style="text;strokeColor=none;fillColor=none;align=left;verticalAlign=top;spacingLeft=4;spacingRight=4;overflow=hidden;rotatable=0;points=[[0,0.5],[1,0.5]];portConstraint=eastwest;whiteSpace=wrap;html=1;" vertex="1" parent="KjGgUwtwHEyZhzQTIDNN-222">
          <mxGeometry y="312" width="870" height="26" as="geometry" />
        </mxCell>
        <mxCell id="KjGgUwtwHEyZhzQTIDNN-247" value="&lt;u&gt;+ patients: List&amp;lt;Patients&amp;gt;&lt;/u&gt;" style="text;strokeColor=none;fillColor=none;align=left;verticalAlign=top;spacingLeft=4;spacingRight=4;overflow=hidden;rotatable=0;points=[[0,0.5],[1,0.5]];portConstraint=eastwest;whiteSpace=wrap;html=1;" vertex="1" parent="KjGgUwtwHEyZhzQTIDNN-222">
          <mxGeometry y="338" width="870" height="26" as="geometry" />
        </mxCell>
        <mxCell id="KjGgUwtwHEyZhzQTIDNN-234" value="- patientAppointments: PatientsAppointments" style="text;strokeColor=none;fillColor=none;align=left;verticalAlign=top;spacingLeft=4;spacingRight=4;overflow=hidden;rotatable=0;points=[[0,0.5],[1,0.5]];portConstraint=eastwest;whiteSpace=wrap;html=1;" vertex="1" parent="KjGgUwtwHEyZhzQTIDNN-222">
          <mxGeometry y="364" width="870" height="26" as="geometry" />
        </mxCell>
        <mxCell id="KjGgUwtwHEyZhzQTIDNN-235" value="+ displayMenu(): void" style="text;strokeColor=none;fillColor=none;align=left;verticalAlign=top;spacingLeft=4;spacingRight=4;overflow=hidden;rotatable=0;points=[[0,0.5],[1,0.5]];portConstraint=eastwest;whiteSpace=wrap;html=1;" vertex="1" parent="KjGgUwtwHEyZhzQTIDNN-222">
          <mxGeometry y="390" width="870" height="26" as="geometry" />
        </mxCell>
        <mxCell id="KjGgUwtwHEyZhzQTIDNN-236" value="+ getPatientId(): String" style="text;strokeColor=none;fillColor=none;align=left;verticalAlign=top;spacingLeft=4;spacingRight=4;overflow=hidden;rotatable=0;points=[[0,0.5],[1,0.5]];portConstraint=eastwest;whiteSpace=wrap;html=1;" vertex="1" parent="KjGgUwtwHEyZhzQTIDNN-222">
          <mxGeometry y="416" width="870" height="26" as="geometry" />
        </mxCell>
        <mxCell id="KjGgUwtwHEyZhzQTIDNN-237" value="+ getName(): String" style="text;strokeColor=none;fillColor=none;align=left;verticalAlign=top;spacingLeft=4;spacingRight=4;overflow=hidden;rotatable=0;points=[[0,0.5],[1,0.5]];portConstraint=eastwest;whiteSpace=wrap;html=1;" vertex="1" parent="KjGgUwtwHEyZhzQTIDNN-222">
          <mxGeometry y="442" width="870" height="26" as="geometry" />
        </mxCell>
        <mxCell id="KjGgUwtwHEyZhzQTIDNN-238" value="+ getDob(): String" style="text;strokeColor=none;fillColor=none;align=left;verticalAlign=top;spacingLeft=4;spacingRight=4;overflow=hidden;rotatable=0;points=[[0,0.5],[1,0.5]];portConstraint=eastwest;whiteSpace=wrap;html=1;" vertex="1" parent="KjGgUwtwHEyZhzQTIDNN-222">
          <mxGeometry y="468" width="870" height="26" as="geometry" />
        </mxCell>
        <mxCell id="KjGgUwtwHEyZhzQTIDNN-239" value="+ getGender(): String" style="text;strokeColor=none;fillColor=none;align=left;verticalAlign=top;spacingLeft=4;spacingRight=4;overflow=hidden;rotatable=0;points=[[0,0.5],[1,0.5]];portConstraint=eastwest;whiteSpace=wrap;html=1;" vertex="1" parent="KjGgUwtwHEyZhzQTIDNN-222">
          <mxGeometry y="494" width="870" height="26" as="geometry" />
        </mxCell>
        <mxCell id="KjGgUwtwHEyZhzQTIDNN-240" value="+ getEmail(): String" style="text;strokeColor=none;fillColor=none;align=left;verticalAlign=top;spacingLeft=4;spacingRight=4;overflow=hidden;rotatable=0;points=[[0,0.5],[1,0.5]];portConstraint=eastwest;whiteSpace=wrap;html=1;" vertex="1" parent="KjGgUwtwHEyZhzQTIDNN-222">
          <mxGeometry y="520" width="870" height="26" as="geometry" />
        </mxCell>
        <mxCell id="KjGgUwtwHEyZhzQTIDNN-241" value="+ getPhone(): String" style="text;strokeColor=none;fillColor=none;align=left;verticalAlign=top;spacingLeft=4;spacingRight=4;overflow=hidden;rotatable=0;points=[[0,0.5],[1,0.5]];portConstraint=eastwest;whiteSpace=wrap;html=1;" vertex="1" parent="KjGgUwtwHEyZhzQTIDNN-222">
          <mxGeometry y="546" width="870" height="26" as="geometry" />
        </mxCell>
        <mxCell id="KjGgUwtwHEyZhzQTIDNN-242" value="+ getBlood(): String" style="text;strokeColor=none;fillColor=none;align=left;verticalAlign=top;spacingLeft=4;spacingRight=4;overflow=hidden;rotatable=0;points=[[0,0.5],[1,0.5]];portConstraint=eastwest;whiteSpace=wrap;html=1;" vertex="1" parent="KjGgUwtwHEyZhzQTIDNN-222">
          <mxGeometry y="572" width="870" height="26" as="geometry" />
        </mxCell>
        <mxCell id="KjGgUwtwHEyZhzQTIDNN-243" value="+ addAppointment(Appointment appointment): void" style="text;strokeColor=none;fillColor=none;align=left;verticalAlign=top;spacingLeft=4;spacingRight=4;overflow=hidden;rotatable=0;points=[[0,0.5],[1,0.5]];portConstraint=eastwest;whiteSpace=wrap;html=1;" vertex="1" parent="KjGgUwtwHEyZhzQTIDNN-222">
          <mxGeometry y="598" width="870" height="26" as="geometry" />
        </mxCell>
        <mxCell id="KjGgUwtwHEyZhzQTIDNN-244" value="+ getAppointments(): List&amp;lt;Appointment&amp;gt;" style="text;strokeColor=none;fillColor=none;align=left;verticalAlign=top;spacingLeft=4;spacingRight=4;overflow=hidden;rotatable=0;points=[[0,0.5],[1,0.5]];portConstraint=eastwest;whiteSpace=wrap;html=1;" vertex="1" parent="KjGgUwtwHEyZhzQTIDNN-222">
          <mxGeometry y="624" width="870" height="26" as="geometry" />
        </mxCell>
        <mxCell id="KjGgUwtwHEyZhzQTIDNN-248" value="&lt;u&gt;+ getPatientList(): HashMap&amp;lt;String, Patients&amp;gt;&lt;/u&gt;" style="text;strokeColor=none;fillColor=none;align=left;verticalAlign=top;spacingLeft=4;spacingRight=4;overflow=hidden;rotatable=0;points=[[0,0.5],[1,0.5]];portConstraint=eastwest;whiteSpace=wrap;html=1;" vertex="1" parent="KjGgUwtwHEyZhzQTIDNN-222">
          <mxGeometry y="650" width="870" height="26" as="geometry" />
        </mxCell>
        <mxCell id="KjGgUwtwHEyZhzQTIDNN-245" value="+ Patients(String hospitalId, String password, String role, String name, String dob, String gender, String phoneNumber, String emailAddress, String bloodType): " style="text;strokeColor=none;fillColor=none;align=left;verticalAlign=top;spacingLeft=4;spacingRight=4;overflow=hidden;rotatable=0;points=[[0,0.5],[1,0.5]];portConstraint=eastwest;whiteSpace=wrap;html=1;" vertex="1" parent="KjGgUwtwHEyZhzQTIDNN-222">
          <mxGeometry y="676" width="870" height="26" as="geometry" />
        </mxCell>
        <mxCell id="KjGgUwtwHEyZhzQTIDNN-249" value="" style="endArrow=none;html=1;rounded=0;exitX=-0.001;exitY=-0.041;exitDx=0;exitDy=0;exitPerimeter=0;entryX=1;entryY=-0.041;entryDx=0;entryDy=0;entryPerimeter=0;" edge="1" parent="KjGgUwtwHEyZhzQTIDNN-222" source="KjGgUwtwHEyZhzQTIDNN-235" target="KjGgUwtwHEyZhzQTIDNN-235">
          <mxGeometry width="50" height="50" relative="1" as="geometry">
            <mxPoint x="400" y="270" as="sourcePoint" />
            <mxPoint x="450" y="220" as="targetPoint" />
          </mxGeometry>
        </mxCell>
        <mxCell id="KjGgUwtwHEyZhzQTIDNN-250" value="PatientsAppointments" style="swimlane;fontStyle=1;align=center;verticalAlign=top;childLayout=stackLayout;horizontal=1;startSize=26;horizontalStack=0;resizeParent=1;resizeParentMax=0;resizeLast=0;collapsible=1;marginBottom=0;whiteSpace=wrap;html=1;" vertex="1" parent="1">
          <mxGeometry x="6710" y="2190" width="350" height="208" as="geometry" />
        </mxCell>
        <mxCell id="KjGgUwtwHEyZhzQTIDNN-251" value="- currentPatient: Patients" style="text;strokeColor=none;fillColor=none;align=left;verticalAlign=top;spacingLeft=4;spacingRight=4;overflow=hidden;rotatable=0;points=[[0,0.5],[1,0.5]];portConstraint=eastwest;whiteSpace=wrap;html=1;" vertex="1" parent="KjGgUwtwHEyZhzQTIDNN-250">
          <mxGeometry y="26" width="350" height="26" as="geometry" />
        </mxCell>
        <mxCell id="KjGgUwtwHEyZhzQTIDNN-252" value="+ scheduleAppointment(): void" style="text;strokeColor=none;fillColor=none;align=left;verticalAlign=top;spacingLeft=4;spacingRight=4;overflow=hidden;rotatable=0;points=[[0,0.5],[1,0.5]];portConstraint=eastwest;whiteSpace=wrap;html=1;" vertex="1" parent="KjGgUwtwHEyZhzQTIDNN-250">
          <mxGeometry y="52" width="350" height="26" as="geometry" />
        </mxCell>
        <mxCell id="KjGgUwtwHEyZhzQTIDNN-253" value="+ cancelAppointment(String appointmentId): void" style="text;strokeColor=none;fillColor=none;align=left;verticalAlign=top;spacingLeft=4;spacingRight=4;overflow=hidden;rotatable=0;points=[[0,0.5],[1,0.5]];portConstraint=eastwest;whiteSpace=wrap;html=1;" vertex="1" parent="KjGgUwtwHEyZhzQTIDNN-250">
          <mxGeometry y="78" width="350" height="26" as="geometry" />
        </mxCell>
        <mxCell id="KjGgUwtwHEyZhzQTIDNN-254" value="+ rescheduleAppointment(String appointmentId): void" style="text;strokeColor=none;fillColor=none;align=left;verticalAlign=top;spacingLeft=4;spacingRight=4;overflow=hidden;rotatable=0;points=[[0,0.5],[1,0.5]];portConstraint=eastwest;whiteSpace=wrap;html=1;" vertex="1" parent="KjGgUwtwHEyZhzQTIDNN-250">
          <mxGeometry y="104" width="350" height="26" as="geometry" />
        </mxCell>
        <mxCell id="KjGgUwtwHEyZhzQTIDNN-255" value="+ viewScheduledAppointments(): void" style="text;strokeColor=none;fillColor=none;align=left;verticalAlign=top;spacingLeft=4;spacingRight=4;overflow=hidden;rotatable=0;points=[[0,0.5],[1,0.5]];portConstraint=eastwest;whiteSpace=wrap;html=1;" vertex="1" parent="KjGgUwtwHEyZhzQTIDNN-250">
          <mxGeometry y="130" width="350" height="26" as="geometry" />
        </mxCell>
        <mxCell id="KjGgUwtwHEyZhzQTIDNN-256" value="+ viewPastRecords(): void" style="text;strokeColor=none;fillColor=none;align=left;verticalAlign=top;spacingLeft=4;spacingRight=4;overflow=hidden;rotatable=0;points=[[0,0.5],[1,0.5]];portConstraint=eastwest;whiteSpace=wrap;html=1;" vertex="1" parent="KjGgUwtwHEyZhzQTIDNN-250">
          <mxGeometry y="156" width="350" height="26" as="geometry" />
        </mxCell>
        <mxCell id="KjGgUwtwHEyZhzQTIDNN-257" value="+ PatientsAppointments(Patients patient): " style="text;strokeColor=none;fillColor=none;align=left;verticalAlign=top;spacingLeft=4;spacingRight=4;overflow=hidden;rotatable=0;points=[[0,0.5],[1,0.5]];portConstraint=eastwest;whiteSpace=wrap;html=1;" vertex="1" parent="KjGgUwtwHEyZhzQTIDNN-250">
          <mxGeometry y="182" width="350" height="26" as="geometry" />
        </mxCell>
        <mxCell id="KjGgUwtwHEyZhzQTIDNN-258" value="" style="endArrow=none;html=1;rounded=0;exitX=-0.004;exitY=1.026;exitDx=0;exitDy=0;exitPerimeter=0;entryX=0.997;entryY=0.013;entryDx=0;entryDy=0;entryPerimeter=0;" edge="1" parent="KjGgUwtwHEyZhzQTIDNN-250">
          <mxGeometry width="50" height="50" relative="1" as="geometry">
            <mxPoint x="-0.40000000000009095" y="52.67599999999993" as="sourcePoint" />
            <mxPoint x="349.9499999999998" y="52.337999999999965" as="targetPoint" />
          </mxGeometry>
        </mxCell>
        <mxCell id="KjGgUwtwHEyZhzQTIDNN-259" value="PatientsContactInfo" style="swimlane;fontStyle=1;align=center;verticalAlign=top;childLayout=stackLayout;horizontal=1;startSize=26;horizontalStack=0;resizeParent=1;resizeParentMax=0;resizeLast=0;collapsible=1;marginBottom=0;whiteSpace=wrap;html=1;" vertex="1" parent="1">
          <mxGeometry x="7600" y="2107" width="390" height="208" as="geometry" />
        </mxCell>
        <mxCell id="KjGgUwtwHEyZhzQTIDNN-260" value="- phoneNumber: String" style="text;strokeColor=none;fillColor=none;align=left;verticalAlign=top;spacingLeft=4;spacingRight=4;overflow=hidden;rotatable=0;points=[[0,0.5],[1,0.5]];portConstraint=eastwest;whiteSpace=wrap;html=1;" vertex="1" parent="KjGgUwtwHEyZhzQTIDNN-259">
          <mxGeometry y="26" width="390" height="26" as="geometry" />
        </mxCell>
        <mxCell id="KjGgUwtwHEyZhzQTIDNN-261" value="- emailAddress: String" style="text;strokeColor=none;fillColor=none;align=left;verticalAlign=top;spacingLeft=4;spacingRight=4;overflow=hidden;rotatable=0;points=[[0,0.5],[1,0.5]];portConstraint=eastwest;whiteSpace=wrap;html=1;" vertex="1" parent="KjGgUwtwHEyZhzQTIDNN-259">
          <mxGeometry y="52" width="390" height="26" as="geometry" />
        </mxCell>
        <mxCell id="KjGgUwtwHEyZhzQTIDNN-262" value="&lt;u&gt;#contactInfoMap: HashMap&amp;lt;String, PatientsContactInfo&amp;gt;&lt;/u&gt;" style="text;strokeColor=none;fillColor=none;align=left;verticalAlign=top;spacingLeft=4;spacingRight=4;overflow=hidden;rotatable=0;points=[[0,0.5],[1,0.5]];portConstraint=eastwest;whiteSpace=wrap;html=1;" vertex="1" parent="KjGgUwtwHEyZhzQTIDNN-259">
          <mxGeometry y="78" width="390" height="26" as="geometry" />
        </mxCell>
        <mxCell id="KjGgUwtwHEyZhzQTIDNN-266" value="&lt;u&gt;-patientMedicalRecordMap: HashMap&amp;lt;String, MedicalRecord&amp;gt;&lt;/u&gt;" style="text;strokeColor=none;fillColor=none;align=left;verticalAlign=top;spacingLeft=4;spacingRight=4;overflow=hidden;rotatable=0;points=[[0,0.5],[1,0.5]];portConstraint=eastwest;whiteSpace=wrap;html=1;" vertex="1" parent="KjGgUwtwHEyZhzQTIDNN-259">
          <mxGeometry y="104" width="390" height="26" as="geometry" />
        </mxCell>
        <mxCell id="KjGgUwtwHEyZhzQTIDNN-263" value="+ updatePhoneNumber(String hospitalId): void" style="text;strokeColor=none;fillColor=none;align=left;verticalAlign=top;spacingLeft=4;spacingRight=4;overflow=hidden;rotatable=0;points=[[0,0.5],[1,0.5]];portConstraint=eastwest;whiteSpace=wrap;html=1;" vertex="1" parent="KjGgUwtwHEyZhzQTIDNN-259">
          <mxGeometry y="130" width="390" height="26" as="geometry" />
        </mxCell>
        <mxCell id="KjGgUwtwHEyZhzQTIDNN-264" value="+ updateEmailAddress(String hospitalId): void" style="text;strokeColor=none;fillColor=none;align=left;verticalAlign=top;spacingLeft=4;spacingRight=4;overflow=hidden;rotatable=0;points=[[0,0.5],[1,0.5]];portConstraint=eastwest;whiteSpace=wrap;html=1;" vertex="1" parent="KjGgUwtwHEyZhzQTIDNN-259">
          <mxGeometry y="156" width="390" height="26" as="geometry" />
        </mxCell>
        <mxCell id="KjGgUwtwHEyZhzQTIDNN-265" value="+ PatientsContactInfo(String phoneNumber, String emailAddress): " style="text;strokeColor=none;fillColor=none;align=left;verticalAlign=top;spacingLeft=4;spacingRight=4;overflow=hidden;rotatable=0;points=[[0,0.5],[1,0.5]];portConstraint=eastwest;whiteSpace=wrap;html=1;" vertex="1" parent="KjGgUwtwHEyZhzQTIDNN-259">
          <mxGeometry y="182" width="390" height="26" as="geometry" />
        </mxCell>
        <mxCell id="KjGgUwtwHEyZhzQTIDNN-267" value="" style="endArrow=none;html=1;rounded=0;exitX=0;exitY=1.153;exitDx=0;exitDy=0;exitPerimeter=0;entryX=0.999;entryY=0.072;entryDx=0;entryDy=0;entryPerimeter=0;" edge="1" parent="KjGgUwtwHEyZhzQTIDNN-259" source="KjGgUwtwHEyZhzQTIDNN-266" target="KjGgUwtwHEyZhzQTIDNN-263">
          <mxGeometry width="50" height="50" relative="1" as="geometry">
            <mxPoint x="290" y="298" as="sourcePoint" />
            <mxPoint x="340" y="248" as="targetPoint" />
          </mxGeometry>
        </mxCell>
        <mxCell id="KjGgUwtwHEyZhzQTIDNN-268" value="Pharmacist" style="swimlane;fontStyle=1;align=center;verticalAlign=top;childLayout=stackLayout;horizontal=1;startSize=26;horizontalStack=0;resizeParent=1;resizeParentMax=0;resizeLast=0;collapsible=1;marginBottom=0;whiteSpace=wrap;html=1;" vertex="1" parent="1">
          <mxGeometry x="5010" y="960" width="700" height="416" as="geometry">
            <mxRectangle x="8040" y="300" width="100" height="30" as="alternateBounds" />
          </mxGeometry>
        </mxCell>
        <mxCell id="KjGgUwtwHEyZhzQTIDNN-269" value="- name: String" style="text;strokeColor=none;fillColor=none;align=left;verticalAlign=top;spacingLeft=4;spacingRight=4;overflow=hidden;rotatable=0;points=[[0,0.5],[1,0.5]];portConstraint=eastwest;whiteSpace=wrap;html=1;" vertex="1" parent="KjGgUwtwHEyZhzQTIDNN-268">
          <mxGeometry y="26" width="700" height="26" as="geometry" />
        </mxCell>
        <mxCell id="KjGgUwtwHEyZhzQTIDNN-270" value="- age: int" style="text;strokeColor=none;fillColor=none;align=left;verticalAlign=top;spacingLeft=4;spacingRight=4;overflow=hidden;rotatable=0;points=[[0,0.5],[1,0.5]];portConstraint=eastwest;whiteSpace=wrap;html=1;" vertex="1" parent="KjGgUwtwHEyZhzQTIDNN-268">
          <mxGeometry y="52" width="700" height="26" as="geometry" />
        </mxCell>
        <mxCell id="KjGgUwtwHEyZhzQTIDNN-271" value="- gender: String" style="text;strokeColor=none;fillColor=none;align=left;verticalAlign=top;spacingLeft=4;spacingRight=4;overflow=hidden;rotatable=0;points=[[0,0.5],[1,0.5]];portConstraint=eastwest;whiteSpace=wrap;html=1;" vertex="1" parent="KjGgUwtwHEyZhzQTIDNN-268">
          <mxGeometry y="78" width="700" height="26" as="geometry" />
        </mxCell>
        <mxCell id="KjGgUwtwHEyZhzQTIDNN-272" value="- appointmentManager: AppointmentManager" style="text;strokeColor=none;fillColor=none;align=left;verticalAlign=top;spacingLeft=4;spacingRight=4;overflow=hidden;rotatable=0;points=[[0,0.5],[1,0.5]];portConstraint=eastwest;whiteSpace=wrap;html=1;" vertex="1" parent="KjGgUwtwHEyZhzQTIDNN-268">
          <mxGeometry y="104" width="700" height="26" as="geometry" />
        </mxCell>
        <mxCell id="KjGgUwtwHEyZhzQTIDNN-273" value="- inventoryManager: InventoryManager" style="text;strokeColor=none;fillColor=none;align=left;verticalAlign=top;spacingLeft=4;spacingRight=4;overflow=hidden;rotatable=0;points=[[0,0.5],[1,0.5]];portConstraint=eastwest;whiteSpace=wrap;html=1;" vertex="1" parent="KjGgUwtwHEyZhzQTIDNN-268">
          <mxGeometry y="130" width="700" height="26" as="geometry" />
        </mxCell>
        <mxCell id="KjGgUwtwHEyZhzQTIDNN-274" value="- inventoryMonitor: InventoryMonitor" style="text;strokeColor=none;fillColor=none;align=left;verticalAlign=top;spacingLeft=4;spacingRight=4;overflow=hidden;rotatable=0;points=[[0,0.5],[1,0.5]];portConstraint=eastwest;whiteSpace=wrap;html=1;" vertex="1" parent="KjGgUwtwHEyZhzQTIDNN-268">
          <mxGeometry y="156" width="700" height="26" as="geometry" />
        </mxCell>
        <mxCell id="KjGgUwtwHEyZhzQTIDNN-282" value="&lt;u&gt;+ pharmacists: List&amp;lt;Pharmacist&amp;gt;&lt;/u&gt;" style="text;strokeColor=none;fillColor=none;align=left;verticalAlign=top;spacingLeft=4;spacingRight=4;overflow=hidden;rotatable=0;points=[[0,0.5],[1,0.5]];portConstraint=eastwest;whiteSpace=wrap;html=1;" vertex="1" parent="KjGgUwtwHEyZhzQTIDNN-268">
          <mxGeometry y="182" width="700" height="26" as="geometry" />
        </mxCell>
        <mxCell id="KjGgUwtwHEyZhzQTIDNN-283" value="- inventory: Map&amp;lt;MedicationName, Integer&amp;gt;" style="text;strokeColor=none;fillColor=none;align=left;verticalAlign=top;spacingLeft=4;spacingRight=4;overflow=hidden;rotatable=0;points=[[0,0.5],[1,0.5]];portConstraint=eastwest;whiteSpace=wrap;html=1;" vertex="1" parent="KjGgUwtwHEyZhzQTIDNN-268">
          <mxGeometry y="208" width="700" height="26" as="geometry" />
        </mxCell>
        <mxCell id="KjGgUwtwHEyZhzQTIDNN-275" value="+ DisplayMenu(): void" style="text;strokeColor=none;fillColor=none;align=left;verticalAlign=top;spacingLeft=4;spacingRight=4;overflow=hidden;rotatable=0;points=[[0,0.5],[1,0.5]];portConstraint=eastwest;whiteSpace=wrap;html=1;" vertex="1" parent="KjGgUwtwHEyZhzQTIDNN-268">
          <mxGeometry y="234" width="700" height="26" as="geometry" />
        </mxCell>
        <mxCell id="KjGgUwtwHEyZhzQTIDNN-276" value="+ viewAppointmentOutcome(): void" style="text;strokeColor=none;fillColor=none;align=left;verticalAlign=top;spacingLeft=4;spacingRight=4;overflow=hidden;rotatable=0;points=[[0,0.5],[1,0.5]];portConstraint=eastwest;whiteSpace=wrap;html=1;" vertex="1" parent="KjGgUwtwHEyZhzQTIDNN-268">
          <mxGeometry y="260" width="700" height="26" as="geometry" />
        </mxCell>
        <mxCell id="KjGgUwtwHEyZhzQTIDNN-277" value="+ updatePrescriptionStatus(): void" style="text;strokeColor=none;fillColor=none;align=left;verticalAlign=top;spacingLeft=4;spacingRight=4;overflow=hidden;rotatable=0;points=[[0,0.5],[1,0.5]];portConstraint=eastwest;whiteSpace=wrap;html=1;" vertex="1" parent="KjGgUwtwHEyZhzQTIDNN-268">
          <mxGeometry y="286" width="700" height="26" as="geometry" />
        </mxCell>
        <mxCell id="KjGgUwtwHEyZhzQTIDNN-278" value="+ viewInventory(): void" style="text;strokeColor=none;fillColor=none;align=left;verticalAlign=top;spacingLeft=4;spacingRight=4;overflow=hidden;rotatable=0;points=[[0,0.5],[1,0.5]];portConstraint=eastwest;whiteSpace=wrap;html=1;" vertex="1" parent="KjGgUwtwHEyZhzQTIDNN-268">
          <mxGeometry y="312" width="700" height="26" as="geometry" />
        </mxCell>
        <mxCell id="KjGgUwtwHEyZhzQTIDNN-279" value="+ submitReplenishmentRequest(): void" style="text;strokeColor=none;fillColor=none;align=left;verticalAlign=top;spacingLeft=4;spacingRight=4;overflow=hidden;rotatable=0;points=[[0,0.5],[1,0.5]];portConstraint=eastwest;whiteSpace=wrap;html=1;" vertex="1" parent="KjGgUwtwHEyZhzQTIDNN-268">
          <mxGeometry y="338" width="700" height="26" as="geometry" />
        </mxCell>
        <mxCell id="KjGgUwtwHEyZhzQTIDNN-280" value="+ logout(): void" style="text;strokeColor=none;fillColor=none;align=left;verticalAlign=top;spacingLeft=4;spacingRight=4;overflow=hidden;rotatable=0;points=[[0,0.5],[1,0.5]];portConstraint=eastwest;whiteSpace=wrap;html=1;" vertex="1" parent="KjGgUwtwHEyZhzQTIDNN-268">
          <mxGeometry y="364" width="700" height="26" as="geometry" />
        </mxCell>
        <mxCell id="KjGgUwtwHEyZhzQTIDNN-281" value="+ Pharmacist(String hospitalId, String password, String role, String name, int age, String gender, List&amp;lt;Medication&amp;gt; inventory): " style="text;strokeColor=none;fillColor=none;align=left;verticalAlign=top;spacingLeft=4;spacingRight=4;overflow=hidden;rotatable=0;points=[[0,0.5],[1,0.5]];portConstraint=eastwest;whiteSpace=wrap;html=1;" vertex="1" parent="KjGgUwtwHEyZhzQTIDNN-268">
          <mxGeometry y="390" width="700" height="26" as="geometry" />
        </mxCell>
        <mxCell id="KjGgUwtwHEyZhzQTIDNN-284" value="" style="endArrow=none;html=1;rounded=0;exitX=0.001;exitY=0.128;exitDx=0;exitDy=0;exitPerimeter=0;" edge="1" parent="KjGgUwtwHEyZhzQTIDNN-268" source="KjGgUwtwHEyZhzQTIDNN-275">
          <mxGeometry width="50" height="50" relative="1" as="geometry">
            <mxPoint x="310" y="318" as="sourcePoint" />
            <mxPoint x="700" y="237" as="targetPoint" />
          </mxGeometry>
        </mxCell>
        <mxCell id="KjGgUwtwHEyZhzQTIDNN-285" value="ReplenishmentManager" style="swimlane;fontStyle=1;align=center;verticalAlign=top;childLayout=stackLayout;horizontal=1;startSize=26;horizontalStack=0;resizeParent=1;resizeParentMax=0;resizeLast=0;collapsible=1;marginBottom=0;whiteSpace=wrap;html=1;" vertex="1" parent="1">
          <mxGeometry x="5160" y="2305" width="310" height="130" as="geometry" />
        </mxCell>
        <mxCell id="KjGgUwtwHEyZhzQTIDNN-286" value="- inventory: MedicationStock" style="text;strokeColor=none;fillColor=none;align=left;verticalAlign=top;spacingLeft=4;spacingRight=4;overflow=hidden;rotatable=0;points=[[0,0.5],[1,0.5]];portConstraint=eastwest;whiteSpace=wrap;html=1;" vertex="1" parent="KjGgUwtwHEyZhzQTIDNN-285">
          <mxGeometry y="26" width="310" height="26" as="geometry" />
        </mxCell>
        <mxCell id="KjGgUwtwHEyZhzQTIDNN-289" value="- inventoryMap: Map&amp;lt;MedicationName, Integer&amp;gt;" style="text;strokeColor=none;fillColor=none;align=left;verticalAlign=top;spacingLeft=4;spacingRight=4;overflow=hidden;rotatable=0;points=[[0,0.5],[1,0.5]];portConstraint=eastwest;whiteSpace=wrap;html=1;" vertex="1" parent="KjGgUwtwHEyZhzQTIDNN-285">
          <mxGeometry y="52" width="310" height="26" as="geometry" />
        </mxCell>
        <mxCell id="KjGgUwtwHEyZhzQTIDNN-287" value="+ approveReplenishmentRequest(): void" style="text;strokeColor=none;fillColor=none;align=left;verticalAlign=top;spacingLeft=4;spacingRight=4;overflow=hidden;rotatable=0;points=[[0,0.5],[1,0.5]];portConstraint=eastwest;whiteSpace=wrap;html=1;" vertex="1" parent="KjGgUwtwHEyZhzQTIDNN-285">
          <mxGeometry y="78" width="310" height="26" as="geometry" />
        </mxCell>
        <mxCell id="KjGgUwtwHEyZhzQTIDNN-288" value="+ ReplenishmentManager(): " style="text;strokeColor=none;fillColor=none;align=left;verticalAlign=top;spacingLeft=4;spacingRight=4;overflow=hidden;rotatable=0;points=[[0,0.5],[1,0.5]];portConstraint=eastwest;whiteSpace=wrap;html=1;" vertex="1" parent="KjGgUwtwHEyZhzQTIDNN-285">
          <mxGeometry y="104" width="310" height="26" as="geometry" />
        </mxCell>
        <mxCell id="KjGgUwtwHEyZhzQTIDNN-290" value="" style="endArrow=none;html=1;rounded=0;exitX=0.009;exitY=0.073;exitDx=0;exitDy=0;exitPerimeter=0;entryX=0.994;entryY=0.016;entryDx=0;entryDy=0;entryPerimeter=0;" edge="1" parent="KjGgUwtwHEyZhzQTIDNN-285" source="KjGgUwtwHEyZhzQTIDNN-287" target="KjGgUwtwHEyZhzQTIDNN-287">
          <mxGeometry width="50" height="50" relative="1" as="geometry">
            <mxPoint x="160" y="250" as="sourcePoint" />
            <mxPoint x="210" y="200" as="targetPoint" />
          </mxGeometry>
        </mxCell>
        <mxCell id="KjGgUwtwHEyZhzQTIDNN-291" value="ReplenishmentRequest" style="swimlane;fontStyle=1;align=center;verticalAlign=top;childLayout=stackLayout;horizontal=1;startSize=26;horizontalStack=0;resizeParent=1;resizeParentMax=0;resizeLast=0;collapsible=1;marginBottom=0;whiteSpace=wrap;html=1;" vertex="1" parent="1">
          <mxGeometry x="4390" y="1080" width="390" height="182" as="geometry" />
        </mxCell>
        <mxCell id="KjGgUwtwHEyZhzQTIDNN-292" value="- quantity: int" style="text;strokeColor=none;fillColor=none;align=left;verticalAlign=top;spacingLeft=4;spacingRight=4;overflow=hidden;rotatable=0;points=[[0,0.5],[1,0.5]];portConstraint=eastwest;whiteSpace=wrap;html=1;" vertex="1" parent="KjGgUwtwHEyZhzQTIDNN-291">
          <mxGeometry y="26" width="390" height="26" as="geometry" />
        </mxCell>
        <mxCell id="KjGgUwtwHEyZhzQTIDNN-293" value="- medicineName: String" style="text;strokeColor=none;fillColor=none;align=left;verticalAlign=top;spacingLeft=4;spacingRight=4;overflow=hidden;rotatable=0;points=[[0,0.5],[1,0.5]];portConstraint=eastwest;whiteSpace=wrap;html=1;" vertex="1" parent="KjGgUwtwHEyZhzQTIDNN-291">
          <mxGeometry y="52" width="390" height="26" as="geometry" />
        </mxCell>
        <mxCell id="KjGgUwtwHEyZhzQTIDNN-294" value="+ getQuantity(): int" style="text;strokeColor=none;fillColor=none;align=left;verticalAlign=top;spacingLeft=4;spacingRight=4;overflow=hidden;rotatable=0;points=[[0,0.5],[1,0.5]];portConstraint=eastwest;whiteSpace=wrap;html=1;" vertex="1" parent="KjGgUwtwHEyZhzQTIDNN-291">
          <mxGeometry y="78" width="390" height="26" as="geometry" />
        </mxCell>
        <mxCell id="KjGgUwtwHEyZhzQTIDNN-295" value="+ getName(): String" style="text;strokeColor=none;fillColor=none;align=left;verticalAlign=top;spacingLeft=4;spacingRight=4;overflow=hidden;rotatable=0;points=[[0,0.5],[1,0.5]];portConstraint=eastwest;whiteSpace=wrap;html=1;" vertex="1" parent="KjGgUwtwHEyZhzQTIDNN-291">
          <mxGeometry y="104" width="390" height="26" as="geometry" />
        </mxCell>
        <mxCell id="KjGgUwtwHEyZhzQTIDNN-296" value="+ toString(): String" style="text;strokeColor=none;fillColor=none;align=left;verticalAlign=top;spacingLeft=4;spacingRight=4;overflow=hidden;rotatable=0;points=[[0,0.5],[1,0.5]];portConstraint=eastwest;whiteSpace=wrap;html=1;" vertex="1" parent="KjGgUwtwHEyZhzQTIDNN-291">
          <mxGeometry y="130" width="390" height="26" as="geometry" />
        </mxCell>
        <mxCell id="KjGgUwtwHEyZhzQTIDNN-297" value="+ ReplenishmentRequest(String medicineName, int quantity): " style="text;strokeColor=none;fillColor=none;align=left;verticalAlign=top;spacingLeft=4;spacingRight=4;overflow=hidden;rotatable=0;points=[[0,0.5],[1,0.5]];portConstraint=eastwest;whiteSpace=wrap;html=1;" vertex="1" parent="KjGgUwtwHEyZhzQTIDNN-291">
          <mxGeometry y="156" width="390" height="26" as="geometry" />
        </mxCell>
        <mxCell id="KjGgUwtwHEyZhzQTIDNN-298" value="" style="endArrow=none;html=1;rounded=0;" edge="1" parent="KjGgUwtwHEyZhzQTIDNN-291">
          <mxGeometry width="50" height="50" relative="1" as="geometry">
            <mxPoint y="80" as="sourcePoint" />
            <mxPoint x="390" y="80" as="targetPoint" />
          </mxGeometry>
        </mxCell>
        <mxCell id="KjGgUwtwHEyZhzQTIDNN-299" value="&lt;div style=&quot;line-height: 120%;&quot;&gt;&lt;span style=&quot;background-color: initial;&quot;&gt;ServiceType&lt;/span&gt;&amp;lt;&amp;lt;enumeration&amp;gt;&amp;gt;&lt;/div&gt;" style="swimlane;fontStyle=1;align=center;verticalAlign=top;childLayout=stackLayout;horizontal=1;startSize=26;horizontalStack=0;resizeParent=1;resizeParentMax=0;resizeLast=0;collapsible=1;marginBottom=0;whiteSpace=wrap;html=1;" vertex="1" parent="1">
          <mxGeometry x="5820" y="3418" width="340" height="182" as="geometry">
            <mxRectangle x="1800" y="1460" width="140" height="40" as="alternateBounds" />
          </mxGeometry>
        </mxCell>
        <mxCell id="KjGgUwtwHEyZhzQTIDNN-300" value="CONSULTATION" style="text;strokeColor=none;fillColor=none;align=left;verticalAlign=top;spacingLeft=4;spacingRight=4;overflow=hidden;rotatable=0;points=[[0,0.5],[1,0.5]];portConstraint=eastwest;whiteSpace=wrap;html=1;" vertex="1" parent="KjGgUwtwHEyZhzQTIDNN-299">
          <mxGeometry y="26" width="340" height="26" as="geometry" />
        </mxCell>
        <mxCell id="KjGgUwtwHEyZhzQTIDNN-301" value="XRAY" style="text;strokeColor=none;fillColor=none;align=left;verticalAlign=top;spacingLeft=4;spacingRight=4;overflow=hidden;rotatable=0;points=[[0,0.5],[1,0.5]];portConstraint=eastwest;whiteSpace=wrap;html=1;" vertex="1" parent="KjGgUwtwHEyZhzQTIDNN-299">
          <mxGeometry y="52" width="340" height="26" as="geometry" />
        </mxCell>
        <mxCell id="KjGgUwtwHEyZhzQTIDNN-302" value="BLOOD_TEST" style="text;strokeColor=none;fillColor=none;align=left;verticalAlign=top;spacingLeft=4;spacingRight=4;overflow=hidden;rotatable=0;points=[[0,0.5],[1,0.5]];portConstraint=eastwest;whiteSpace=wrap;html=1;" vertex="1" parent="KjGgUwtwHEyZhzQTIDNN-299">
          <mxGeometry y="78" width="340" height="26" as="geometry" />
        </mxCell>
        <mxCell id="KjGgUwtwHEyZhzQTIDNN-303" value="SURGERY" style="text;strokeColor=none;fillColor=none;align=left;verticalAlign=top;spacingLeft=4;spacingRight=4;overflow=hidden;rotatable=0;points=[[0,0.5],[1,0.5]];portConstraint=eastwest;whiteSpace=wrap;html=1;" vertex="1" parent="KjGgUwtwHEyZhzQTIDNN-299">
          <mxGeometry y="104" width="340" height="26" as="geometry" />
        </mxCell>
        <mxCell id="KjGgUwtwHEyZhzQTIDNN-307" value="OTHER" style="text;strokeColor=none;fillColor=none;align=left;verticalAlign=top;spacingLeft=4;spacingRight=4;overflow=hidden;rotatable=0;points=[[0,0.5],[1,0.5]];portConstraint=eastwest;whiteSpace=wrap;html=1;" vertex="1" parent="KjGgUwtwHEyZhzQTIDNN-299">
          <mxGeometry y="130" width="340" height="26" as="geometry" />
        </mxCell>
        <mxCell id="KjGgUwtwHEyZhzQTIDNN-304" value="&amp;nbsp; &amp;nbsp; &amp;nbsp; &amp;nbsp; &amp;nbsp; &amp;nbsp; &amp;nbsp;&amp;nbsp;" style="text;strokeColor=none;fillColor=none;align=left;verticalAlign=top;spacingLeft=4;spacingRight=4;overflow=hidden;rotatable=0;points=[[0,0.5],[1,0.5]];portConstraint=eastwest;whiteSpace=wrap;html=1;" vertex="1" parent="KjGgUwtwHEyZhzQTIDNN-299">
          <mxGeometry y="156" width="340" height="26" as="geometry" />
        </mxCell>
        <mxCell id="KjGgUwtwHEyZhzQTIDNN-306" value="" style="endArrow=none;html=1;rounded=0;entryX=0.999;entryY=0.071;entryDx=0;entryDy=0;entryPerimeter=0;exitX=0.006;exitY=0.103;exitDx=0;exitDy=0;exitPerimeter=0;" edge="1" parent="KjGgUwtwHEyZhzQTIDNN-299" source="KjGgUwtwHEyZhzQTIDNN-304" target="KjGgUwtwHEyZhzQTIDNN-304">
          <mxGeometry width="50" height="50" relative="1" as="geometry">
            <mxPoint x="-10" y="430" as="sourcePoint" />
            <mxPoint x="329.67999999999984" y="454.7539999999999" as="targetPoint" />
          </mxGeometry>
        </mxCell>
        <mxCell id="KjGgUwtwHEyZhzQTIDNN-308" value="StaffInfo" style="swimlane;fontStyle=1;align=center;verticalAlign=top;childLayout=stackLayout;horizontal=1;startSize=26;horizontalStack=0;resizeParent=1;resizeParentMax=0;resizeLast=0;collapsible=1;marginBottom=0;whiteSpace=wrap;html=1;" vertex="1" parent="1">
          <mxGeometry x="7130" y="2420" width="530" height="520" as="geometry">
            <mxRectangle x="7640" y="2120" width="80" height="30" as="alternateBounds" />
          </mxGeometry>
        </mxCell>
        <mxCell id="KjGgUwtwHEyZhzQTIDNN-309" value="# name: String" style="text;strokeColor=none;fillColor=none;align=left;verticalAlign=top;spacingLeft=4;spacingRight=4;overflow=hidden;rotatable=0;points=[[0,0.5],[1,0.5]];portConstraint=eastwest;whiteSpace=wrap;html=1;" vertex="1" parent="KjGgUwtwHEyZhzQTIDNN-308">
          <mxGeometry y="26" width="530" height="26" as="geometry" />
        </mxCell>
        <mxCell id="KjGgUwtwHEyZhzQTIDNN-310" value="- dob: String" style="text;strokeColor=none;fillColor=none;align=left;verticalAlign=top;spacingLeft=4;spacingRight=4;overflow=hidden;rotatable=0;points=[[0,0.5],[1,0.5]];portConstraint=eastwest;whiteSpace=wrap;html=1;" vertex="1" parent="KjGgUwtwHEyZhzQTIDNN-308">
          <mxGeometry y="52" width="530" height="26" as="geometry" />
        </mxCell>
        <mxCell id="KjGgUwtwHEyZhzQTIDNN-311" value="- age: Integer" style="text;strokeColor=none;fillColor=none;align=left;verticalAlign=top;spacingLeft=4;spacingRight=4;overflow=hidden;rotatable=0;points=[[0,0.5],[1,0.5]];portConstraint=eastwest;whiteSpace=wrap;html=1;" vertex="1" parent="KjGgUwtwHEyZhzQTIDNN-308">
          <mxGeometry y="78" width="530" height="26" as="geometry" />
        </mxCell>
        <mxCell id="KjGgUwtwHEyZhzQTIDNN-312" value="- gender: String" style="text;strokeColor=none;fillColor=none;align=left;verticalAlign=top;spacingLeft=4;spacingRight=4;overflow=hidden;rotatable=0;points=[[0,0.5],[1,0.5]];portConstraint=eastwest;whiteSpace=wrap;html=1;" vertex="1" parent="KjGgUwtwHEyZhzQTIDNN-308">
          <mxGeometry y="104" width="530" height="26" as="geometry" />
        </mxCell>
        <mxCell id="KjGgUwtwHEyZhzQTIDNN-313" value="- hospitalId: String" style="text;strokeColor=none;fillColor=none;align=left;verticalAlign=top;spacingLeft=4;spacingRight=4;overflow=hidden;rotatable=0;points=[[0,0.5],[1,0.5]];portConstraint=eastwest;whiteSpace=wrap;html=1;" vertex="1" parent="KjGgUwtwHEyZhzQTIDNN-308">
          <mxGeometry y="130" width="530" height="26" as="geometry" />
        </mxCell>
        <mxCell id="KjGgUwtwHEyZhzQTIDNN-314" value="- role: String" style="text;strokeColor=none;fillColor=none;align=left;verticalAlign=top;spacingLeft=4;spacingRight=4;overflow=hidden;rotatable=0;points=[[0,0.5],[1,0.5]];portConstraint=eastwest;whiteSpace=wrap;html=1;" vertex="1" parent="KjGgUwtwHEyZhzQTIDNN-308">
          <mxGeometry y="156" width="530" height="26" as="geometry" />
        </mxCell>
        <mxCell id="KjGgUwtwHEyZhzQTIDNN-315" value="+ getName(): String" style="text;strokeColor=none;fillColor=none;align=left;verticalAlign=top;spacingLeft=4;spacingRight=4;overflow=hidden;rotatable=0;points=[[0,0.5],[1,0.5]];portConstraint=eastwest;whiteSpace=wrap;html=1;" vertex="1" parent="KjGgUwtwHEyZhzQTIDNN-308">
          <mxGeometry y="182" width="530" height="26" as="geometry" />
        </mxCell>
        <mxCell id="KjGgUwtwHEyZhzQTIDNN-316" value="+ setName(String name): void" style="text;strokeColor=none;fillColor=none;align=left;verticalAlign=top;spacingLeft=4;spacingRight=4;overflow=hidden;rotatable=0;points=[[0,0.5],[1,0.5]];portConstraint=eastwest;whiteSpace=wrap;html=1;" vertex="1" parent="KjGgUwtwHEyZhzQTIDNN-308">
          <mxGeometry y="208" width="530" height="26" as="geometry" />
        </mxCell>
        <mxCell id="KjGgUwtwHEyZhzQTIDNN-317" value="+ getDob(): String" style="text;strokeColor=none;fillColor=none;align=left;verticalAlign=top;spacingLeft=4;spacingRight=4;overflow=hidden;rotatable=0;points=[[0,0.5],[1,0.5]];portConstraint=eastwest;whiteSpace=wrap;html=1;" vertex="1" parent="KjGgUwtwHEyZhzQTIDNN-308">
          <mxGeometry y="234" width="530" height="26" as="geometry" />
        </mxCell>
        <mxCell id="KjGgUwtwHEyZhzQTIDNN-318" value="+ setDob(String dob): void" style="text;strokeColor=none;fillColor=none;align=left;verticalAlign=top;spacingLeft=4;spacingRight=4;overflow=hidden;rotatable=0;points=[[0,0.5],[1,0.5]];portConstraint=eastwest;whiteSpace=wrap;html=1;" vertex="1" parent="KjGgUwtwHEyZhzQTIDNN-308">
          <mxGeometry y="260" width="530" height="26" as="geometry" />
        </mxCell>
        <mxCell id="KjGgUwtwHEyZhzQTIDNN-319" value="+ getAge(): Integer" style="text;strokeColor=none;fillColor=none;align=left;verticalAlign=top;spacingLeft=4;spacingRight=4;overflow=hidden;rotatable=0;points=[[0,0.5],[1,0.5]];portConstraint=eastwest;whiteSpace=wrap;html=1;" vertex="1" parent="KjGgUwtwHEyZhzQTIDNN-308">
          <mxGeometry y="286" width="530" height="26" as="geometry" />
        </mxCell>
        <mxCell id="KjGgUwtwHEyZhzQTIDNN-320" value="+ setAge(Integer age): void" style="text;strokeColor=none;fillColor=none;align=left;verticalAlign=top;spacingLeft=4;spacingRight=4;overflow=hidden;rotatable=0;points=[[0,0.5],[1,0.5]];portConstraint=eastwest;whiteSpace=wrap;html=1;" vertex="1" parent="KjGgUwtwHEyZhzQTIDNN-308">
          <mxGeometry y="312" width="530" height="26" as="geometry" />
        </mxCell>
        <mxCell id="KjGgUwtwHEyZhzQTIDNN-321" value="+ getGender(): String" style="text;strokeColor=none;fillColor=none;align=left;verticalAlign=top;spacingLeft=4;spacingRight=4;overflow=hidden;rotatable=0;points=[[0,0.5],[1,0.5]];portConstraint=eastwest;whiteSpace=wrap;html=1;" vertex="1" parent="KjGgUwtwHEyZhzQTIDNN-308">
          <mxGeometry y="338" width="530" height="26" as="geometry" />
        </mxCell>
        <mxCell id="KjGgUwtwHEyZhzQTIDNN-322" value="+ setGender(String gender): void" style="text;strokeColor=none;fillColor=none;align=left;verticalAlign=top;spacingLeft=4;spacingRight=4;overflow=hidden;rotatable=0;points=[[0,0.5],[1,0.5]];portConstraint=eastwest;whiteSpace=wrap;html=1;" vertex="1" parent="KjGgUwtwHEyZhzQTIDNN-308">
          <mxGeometry y="364" width="530" height="26" as="geometry" />
        </mxCell>
        <mxCell id="KjGgUwtwHEyZhzQTIDNN-323" value="+ getHospitalId(): String" style="text;strokeColor=none;fillColor=none;align=left;verticalAlign=top;spacingLeft=4;spacingRight=4;overflow=hidden;rotatable=0;points=[[0,0.5],[1,0.5]];portConstraint=eastwest;whiteSpace=wrap;html=1;" vertex="1" parent="KjGgUwtwHEyZhzQTIDNN-308">
          <mxGeometry y="390" width="530" height="26" as="geometry" />
        </mxCell>
        <mxCell id="KjGgUwtwHEyZhzQTIDNN-324" value="+ setHospitalId(String hospitalId): void" style="text;strokeColor=none;fillColor=none;align=left;verticalAlign=top;spacingLeft=4;spacingRight=4;overflow=hidden;rotatable=0;points=[[0,0.5],[1,0.5]];portConstraint=eastwest;whiteSpace=wrap;html=1;" vertex="1" parent="KjGgUwtwHEyZhzQTIDNN-308">
          <mxGeometry y="416" width="530" height="26" as="geometry" />
        </mxCell>
        <mxCell id="KjGgUwtwHEyZhzQTIDNN-325" value="+ getRole(): String" style="text;strokeColor=none;fillColor=none;align=left;verticalAlign=top;spacingLeft=4;spacingRight=4;overflow=hidden;rotatable=0;points=[[0,0.5],[1,0.5]];portConstraint=eastwest;whiteSpace=wrap;html=1;" vertex="1" parent="KjGgUwtwHEyZhzQTIDNN-308">
          <mxGeometry y="442" width="530" height="26" as="geometry" />
        </mxCell>
        <mxCell id="KjGgUwtwHEyZhzQTIDNN-326" value="+ setRole(String role): void" style="text;strokeColor=none;fillColor=none;align=left;verticalAlign=top;spacingLeft=4;spacingRight=4;overflow=hidden;rotatable=0;points=[[0,0.5],[1,0.5]];portConstraint=eastwest;whiteSpace=wrap;html=1;" vertex="1" parent="KjGgUwtwHEyZhzQTIDNN-308">
          <mxGeometry y="468" width="530" height="26" as="geometry" />
        </mxCell>
        <mxCell id="KjGgUwtwHEyZhzQTIDNN-327" value="+ StaffInfo(String hospitalId, Integer age, String role, String name, String dob, String gender): " style="text;strokeColor=none;fillColor=none;align=left;verticalAlign=top;spacingLeft=4;spacingRight=4;overflow=hidden;rotatable=0;points=[[0,0.5],[1,0.5]];portConstraint=eastwest;whiteSpace=wrap;html=1;" vertex="1" parent="KjGgUwtwHEyZhzQTIDNN-308">
          <mxGeometry y="494" width="530" height="26" as="geometry" />
        </mxCell>
        <mxCell id="KjGgUwtwHEyZhzQTIDNN-328" value="" style="endArrow=none;html=1;rounded=0;exitX=-0.001;exitY=0.084;exitDx=0;exitDy=0;exitPerimeter=0;entryX=0.998;entryY=1.084;entryDx=0;entryDy=0;entryPerimeter=0;" edge="1" parent="KjGgUwtwHEyZhzQTIDNN-308" source="KjGgUwtwHEyZhzQTIDNN-315" target="KjGgUwtwHEyZhzQTIDNN-314">
          <mxGeometry width="50" height="50" relative="1" as="geometry">
            <mxPoint x="140" y="318" as="sourcePoint" />
            <mxPoint x="190" y="268" as="targetPoint" />
          </mxGeometry>
        </mxCell>
        <mxCell id="KjGgUwtwHEyZhzQTIDNN-329" value="StaffManager" style="swimlane;fontStyle=1;align=center;verticalAlign=top;childLayout=stackLayout;horizontal=1;startSize=26;horizontalStack=0;resizeParent=1;resizeParentMax=0;resizeLast=0;collapsible=1;marginBottom=0;whiteSpace=wrap;html=1;" vertex="1" parent="1">
          <mxGeometry x="5220" y="1580" width="450" height="156" as="geometry" />
        </mxCell>
        <mxCell id="KjGgUwtwHEyZhzQTIDNN-330" value="&amp;nbsp; &amp;nbsp; &amp;nbsp; &amp;nbsp; &amp;nbsp; &amp;nbsp; &amp;nbsp; &amp;nbsp;&amp;nbsp;" style="text;strokeColor=none;fillColor=none;align=left;verticalAlign=top;spacingLeft=4;spacingRight=4;overflow=hidden;rotatable=0;points=[[0,0.5],[1,0.5]];portConstraint=eastwest;whiteSpace=wrap;html=1;" vertex="1" parent="KjGgUwtwHEyZhzQTIDNN-329">
          <mxGeometry y="26" width="450" height="26" as="geometry" />
        </mxCell>
        <mxCell id="KjGgUwtwHEyZhzQTIDNN-334" value="+ addStaff(): void" style="text;strokeColor=none;fillColor=none;align=left;verticalAlign=top;spacingLeft=4;spacingRight=4;overflow=hidden;rotatable=0;points=[[0,0.5],[1,0.5]];portConstraint=eastwest;whiteSpace=wrap;html=1;" vertex="1" parent="KjGgUwtwHEyZhzQTIDNN-329">
          <mxGeometry y="52" width="450" height="26" as="geometry" />
        </mxCell>
        <mxCell id="KjGgUwtwHEyZhzQTIDNN-331" value="+ removeStaff(): void" style="text;strokeColor=none;fillColor=none;align=left;verticalAlign=top;spacingLeft=4;spacingRight=4;overflow=hidden;rotatable=0;points=[[0,0.5],[1,0.5]];portConstraint=eastwest;whiteSpace=wrap;html=1;" vertex="1" parent="KjGgUwtwHEyZhzQTIDNN-329">
          <mxGeometry y="78" width="450" height="26" as="geometry" />
        </mxCell>
        <mxCell id="KjGgUwtwHEyZhzQTIDNN-333" value="&lt;u&gt;+ displayStaff(&lt;font style=&quot;font-size: 12px;&quot; face=&quot;Helvetica&quot;&gt;&lt;span style=&quot;white-space: pre;&quot;&gt;String&lt;/span&gt;&lt;span style=&quot;background-color: rgb(255, 255, 255); white-space: pre;&quot;&gt; &lt;/span&gt;&lt;span style=&quot;white-space: pre;&quot;&gt;roleFilter&lt;/span&gt;&lt;span style=&quot;background-color: rgb(255, 255, 255); white-space: pre;&quot;&gt;, &lt;/span&gt;&lt;span style=&quot;white-space: pre;&quot;&gt;String&lt;/span&gt;&lt;span style=&quot;background-color: rgb(255, 255, 255); white-space: pre;&quot;&gt; &lt;/span&gt;&lt;span style=&quot;white-space: pre;&quot;&gt;genderFilter&lt;/span&gt;&lt;span style=&quot;background-color: rgb(255, 255, 255); white-space: pre;&quot;&gt;, &lt;/span&gt;&lt;span style=&quot;white-space: pre;&quot;&gt;int&lt;/span&gt;&lt;span style=&quot;background-color: rgb(255, 255, 255); white-space: pre;&quot;&gt; &lt;/span&gt;&lt;span style=&quot;white-space: pre;&quot;&gt;minAge&lt;/span&gt;&lt;span style=&quot;background-color: rgb(255, 255, 255); white-space: pre;&quot;&gt;, &lt;/span&gt;&lt;span style=&quot;white-space: pre;&quot;&gt;int&lt;/span&gt;&lt;span style=&quot;background-color: rgb(255, 255, 255); white-space: pre;&quot;&gt; &lt;/span&gt;&lt;span style=&quot;white-space: pre;&quot;&gt;maxAge&lt;/span&gt;&lt;/font&gt;&lt;span style=&quot;background-color: initial;&quot;&gt;): void&lt;/span&gt;&lt;/u&gt;" style="text;strokeColor=none;fillColor=none;align=left;verticalAlign=top;spacingLeft=4;spacingRight=4;overflow=hidden;rotatable=0;points=[[0,0.5],[1,0.5]];portConstraint=eastwest;whiteSpace=wrap;html=1;" vertex="1" parent="KjGgUwtwHEyZhzQTIDNN-329">
          <mxGeometry y="104" width="450" height="26" as="geometry" />
        </mxCell>
        <mxCell id="KjGgUwtwHEyZhzQTIDNN-332" value="+ StaffManager(String hospitalId, String password, String role): " style="text;strokeColor=none;fillColor=none;align=left;verticalAlign=top;spacingLeft=4;spacingRight=4;overflow=hidden;rotatable=0;points=[[0,0.5],[1,0.5]];portConstraint=eastwest;whiteSpace=wrap;html=1;" vertex="1" parent="KjGgUwtwHEyZhzQTIDNN-329">
          <mxGeometry y="130" width="450" height="26" as="geometry" />
        </mxCell>
        <mxCell id="KjGgUwtwHEyZhzQTIDNN-336" value="" style="endArrow=none;html=1;rounded=0;exitX=-0.001;exitY=-0.13;exitDx=0;exitDy=0;exitPerimeter=0;entryX=1;entryY=0.826;entryDx=0;entryDy=0;entryPerimeter=0;" edge="1" parent="KjGgUwtwHEyZhzQTIDNN-329" source="KjGgUwtwHEyZhzQTIDNN-334" target="KjGgUwtwHEyZhzQTIDNN-330">
          <mxGeometry width="50" height="50" relative="1" as="geometry">
            <mxPoint x="290" y="208" as="sourcePoint" />
            <mxPoint x="340" y="158" as="targetPoint" />
          </mxGeometry>
        </mxCell>
        <mxCell id="KjGgUwtwHEyZhzQTIDNN-337" value="Test" style="swimlane;fontStyle=1;align=center;verticalAlign=top;childLayout=stackLayout;horizontal=1;startSize=26;horizontalStack=0;resizeParent=1;resizeParentMax=0;resizeLast=0;collapsible=1;marginBottom=0;whiteSpace=wrap;html=1;" vertex="1" parent="1">
          <mxGeometry x="7130" y="1570" width="160" height="104" as="geometry" />
        </mxCell>
        <mxCell id="KjGgUwtwHEyZhzQTIDNN-338" value="&lt;u&gt;+ ANSI_RESET: String&lt;/u&gt;" style="text;strokeColor=none;fillColor=none;align=left;verticalAlign=top;spacingLeft=4;spacingRight=4;overflow=hidden;rotatable=0;points=[[0,0.5],[1,0.5]];portConstraint=eastwest;whiteSpace=wrap;html=1;" vertex="1" parent="KjGgUwtwHEyZhzQTIDNN-337">
          <mxGeometry y="26" width="160" height="26" as="geometry" />
        </mxCell>
        <mxCell id="KjGgUwtwHEyZhzQTIDNN-339" value="&lt;u&gt;+ ANSI_GREEN: String&lt;/u&gt;" style="text;strokeColor=none;fillColor=none;align=left;verticalAlign=top;spacingLeft=4;spacingRight=4;overflow=hidden;rotatable=0;points=[[0,0.5],[1,0.5]];portConstraint=eastwest;whiteSpace=wrap;html=1;" vertex="1" parent="KjGgUwtwHEyZhzQTIDNN-337">
          <mxGeometry y="52" width="160" height="26" as="geometry" />
        </mxCell>
        <mxCell id="KjGgUwtwHEyZhzQTIDNN-340" value="&lt;u&gt;+ run(): void&lt;/u&gt;" style="text;strokeColor=none;fillColor=none;align=left;verticalAlign=top;spacingLeft=4;spacingRight=4;overflow=hidden;rotatable=0;points=[[0,0.5],[1,0.5]];portConstraint=eastwest;whiteSpace=wrap;html=1;" vertex="1" parent="KjGgUwtwHEyZhzQTIDNN-337">
          <mxGeometry y="78" width="160" height="26" as="geometry" />
        </mxCell>
        <mxCell id="KjGgUwtwHEyZhzQTIDNN-341" value="" style="endArrow=none;html=1;rounded=0;" edge="1" parent="KjGgUwtwHEyZhzQTIDNN-337">
          <mxGeometry width="50" height="50" relative="1" as="geometry">
            <mxPoint y="79" as="sourcePoint" />
            <mxPoint x="159" y="79" as="targetPoint" />
          </mxGeometry>
        </mxCell>
        <mxCell id="KjGgUwtwHEyZhzQTIDNN-342" value="" style="endArrow=block;endFill=0;endSize=12;html=1;rounded=0;entryX=0;entryY=0.5;entryDx=0;entryDy=0;exitX=0.5;exitY=0;exitDx=0;exitDy=0;" edge="1" parent="1" source="KjGgUwtwHEyZhzQTIDNN-1" target="KjGgUwtwHEyZhzQTIDNN-21">
          <mxGeometry width="160" relative="1" as="geometry">
            <mxPoint x="5750" y="1741" as="sourcePoint" />
            <mxPoint x="6750" y="1680" as="targetPoint" />
          </mxGeometry>
        </mxCell>
        <mxCell id="KjGgUwtwHEyZhzQTIDNN-343" value="" style="endArrow=block;endFill=0;endSize=12;html=1;rounded=0;entryX=0.487;entryY=0.942;entryDx=0;entryDy=0;exitX=0.75;exitY=0;exitDx=0;exitDy=0;entryPerimeter=0;" edge="1" parent="1" source="KjGgUwtwHEyZhzQTIDNN-82" target="KjGgUwtwHEyZhzQTIDNN-24">
          <mxGeometry width="160" relative="1" as="geometry">
            <mxPoint x="6300" y="1840.9999999999995" as="sourcePoint" />
            <mxPoint x="6165" y="1699" as="targetPoint" />
          </mxGeometry>
        </mxCell>
        <mxCell id="KjGgUwtwHEyZhzQTIDNN-344" value="" style="endArrow=block;endFill=0;endSize=12;html=1;rounded=0;entryX=1;entryY=0.5;entryDx=0;entryDy=0;exitX=0;exitY=0;exitDx=0;exitDy=0;" edge="1" parent="1" source="KjGgUwtwHEyZhzQTIDNN-222" target="KjGgUwtwHEyZhzQTIDNN-21">
          <mxGeometry width="160" relative="1" as="geometry">
            <mxPoint x="8230" y="2062.0000000000005" as="sourcePoint" />
            <mxPoint x="6355" y="1840" as="targetPoint" />
          </mxGeometry>
        </mxCell>
        <mxCell id="KjGgUwtwHEyZhzQTIDNN-345" value="" style="endArrow=block;endFill=0;endSize=12;html=1;rounded=0;entryX=0;entryY=0.5;entryDx=0;entryDy=0;exitX=1;exitY=0;exitDx=0;exitDy=0;" edge="1" parent="1" source="KjGgUwtwHEyZhzQTIDNN-268" target="KjGgUwtwHEyZhzQTIDNN-18">
          <mxGeometry width="160" relative="1" as="geometry">
            <mxPoint x="7975" y="1599.9679999999994" as="sourcePoint" />
            <mxPoint x="6555" y="1699" as="targetPoint" />
          </mxGeometry>
        </mxCell>
        <mxCell id="KjGgUwtwHEyZhzQTIDNN-346" value="" style="endArrow=block;endFill=0;endSize=12;html=1;rounded=0;entryX=0;entryY=0.5;entryDx=0;entryDy=0;exitX=1;exitY=0.5;exitDx=0;exitDy=0;" edge="1" parent="1" source="KjGgUwtwHEyZhzQTIDNN-331" target="KjGgUwtwHEyZhzQTIDNN-19">
          <mxGeometry width="160" relative="1" as="geometry">
            <mxPoint x="5835" y="1881" as="sourcePoint" />
            <mxPoint x="6750" y="1550" as="targetPoint" />
          </mxGeometry>
        </mxCell>
        <mxCell id="KjGgUwtwHEyZhzQTIDNN-347" value="" style="endArrow=diamondThin;endFill=1;endSize=24;html=1;rounded=0;exitX=1;exitY=0.5;exitDx=0;exitDy=0;entryX=0.25;entryY=0;entryDx=0;entryDy=0;" edge="1" parent="1" source="KjGgUwtwHEyZhzQTIDNN-332" target="KjGgUwtwHEyZhzQTIDNN-1">
          <mxGeometry width="160" relative="1" as="geometry">
            <mxPoint x="5420" y="1891" as="sourcePoint" />
            <mxPoint x="5580" y="1891" as="targetPoint" />
          </mxGeometry>
        </mxCell>
        <mxCell id="KjGgUwtwHEyZhzQTIDNN-349" value="" style="endArrow=diamondThin;endFill=1;endSize=24;html=1;rounded=0;exitX=0.998;exitY=0.054;exitDx=0;exitDy=0;entryX=0;entryY=0.5;entryDx=0;entryDy=0;exitPerimeter=0;" edge="1" parent="1" source="KjGgUwtwHEyZhzQTIDNN-134" target="KjGgUwtwHEyZhzQTIDNN-2">
          <mxGeometry width="160" relative="1" as="geometry">
            <mxPoint x="5680" y="1774" as="sourcePoint" />
            <mxPoint x="5758" y="1881" as="targetPoint" />
          </mxGeometry>
        </mxCell>
        <mxCell id="KjGgUwtwHEyZhzQTIDNN-350" value="" style="endArrow=diamondThin;endFill=1;endSize=24;html=1;rounded=0;exitX=0.75;exitY=0;exitDx=0;exitDy=0;entryX=0;entryY=0.5;entryDx=0;entryDy=0;" edge="1" parent="1" source="KjGgUwtwHEyZhzQTIDNN-285" target="KjGgUwtwHEyZhzQTIDNN-3">
          <mxGeometry width="160" relative="1" as="geometry">
            <mxPoint x="5690" y="1784" as="sourcePoint" />
            <mxPoint x="5768" y="1891" as="targetPoint" />
          </mxGeometry>
        </mxCell>
        <mxCell id="KjGgUwtwHEyZhzQTIDNN-352" value="" style="endArrow=diamond;endFill=0;endSize=24;html=1;rounded=0;entryX=1;entryY=0.5;entryDx=0;entryDy=0;exitX=0;exitY=0.5;exitDx=0;exitDy=0;" edge="1" parent="1" source="KjGgUwtwHEyZhzQTIDNN-48" target="KjGgUwtwHEyZhzQTIDNN-63">
          <mxGeometry width="160" relative="1" as="geometry">
            <mxPoint x="7229.610000000001" y="3839.9960000000005" as="sourcePoint" />
            <mxPoint x="7440" y="3260.23" as="targetPoint" />
          </mxGeometry>
        </mxCell>
        <mxCell id="KjGgUwtwHEyZhzQTIDNN-353" value="" style="endArrow=diamond;endFill=0;endSize=24;html=1;rounded=0;entryX=0.5;entryY=0;entryDx=0;entryDy=0;exitX=1;exitY=0.5;exitDx=0;exitDy=0;" edge="1" parent="1" source="KjGgUwtwHEyZhzQTIDNN-99" target="KjGgUwtwHEyZhzQTIDNN-68">
          <mxGeometry width="160" relative="1" as="geometry">
            <mxPoint x="6660" y="2780" as="sourcePoint" />
            <mxPoint x="5940" y="2731" as="targetPoint" />
          </mxGeometry>
        </mxCell>
        <mxCell id="KjGgUwtwHEyZhzQTIDNN-354" value="" style="endArrow=diamondThin;endFill=1;endSize=24;html=1;rounded=0;exitX=0.5;exitY=0;exitDx=0;exitDy=0;entryX=0.505;entryY=1;entryDx=0;entryDy=0;entryPerimeter=0;" edge="1" parent="1" source="KjGgUwtwHEyZhzQTIDNN-115" target="KjGgUwtwHEyZhzQTIDNN-99">
          <mxGeometry width="160" relative="1" as="geometry">
            <mxPoint x="6337.5" y="2731" as="sourcePoint" />
            <mxPoint x="5950" y="2741" as="targetPoint" />
          </mxGeometry>
        </mxCell>
        <mxCell id="KjGgUwtwHEyZhzQTIDNN-356" value="" style="endArrow=diamondThin;endFill=1;endSize=24;html=1;rounded=0;exitX=0.75;exitY=0;exitDx=0;exitDy=0;entryX=0.186;entryY=1;entryDx=0;entryDy=0;entryPerimeter=0;" edge="1" parent="1" source="KjGgUwtwHEyZhzQTIDNN-124" target="KjGgUwtwHEyZhzQTIDNN-99">
          <mxGeometry width="160" relative="1" as="geometry">
            <mxPoint x="6481" y="2742" as="sourcePoint" />
            <mxPoint x="6605" y="2930" as="targetPoint" />
          </mxGeometry>
        </mxCell>
        <mxCell id="KjGgUwtwHEyZhzQTIDNN-355" value="" style="endArrow=diamondThin;endFill=1;endSize=24;html=1;rounded=0;exitX=0.5;exitY=0;exitDx=0;exitDy=0;entryX=0;entryY=0.5;entryDx=0;entryDy=0;" edge="1" parent="1" source="KjGgUwtwHEyZhzQTIDNN-107" target="KjGgUwtwHEyZhzQTIDNN-99">
          <mxGeometry width="160" relative="1" as="geometry">
            <mxPoint x="6875" y="2731" as="sourcePoint" />
            <mxPoint x="6445" y="2741" as="targetPoint" />
          </mxGeometry>
        </mxCell>
        <mxCell id="KjGgUwtwHEyZhzQTIDNN-357" value="" style="endArrow=diamondThin;endFill=1;endSize=24;html=1;rounded=0;exitX=0.386;exitY=0;exitDx=0;exitDy=0;entryX=1;entryY=0.5;entryDx=0;entryDy=0;exitPerimeter=0;" edge="1" parent="1" source="KjGgUwtwHEyZhzQTIDNN-29" target="KjGgUwtwHEyZhzQTIDNN-98">
          <mxGeometry width="160" relative="1" as="geometry">
            <mxPoint x="7035" y="2920" as="sourcePoint" />
            <mxPoint x="6699" y="2729" as="targetPoint" />
          </mxGeometry>
        </mxCell>
        <mxCell id="KjGgUwtwHEyZhzQTIDNN-358" value="" style="endArrow=open;endSize=12;dashed=1;html=1;rounded=0;entryX=0;entryY=0.5;entryDx=0;entryDy=0;exitX=1;exitY=0.5;exitDx=0;exitDy=0;" edge="1" parent="1" source="KjGgUwtwHEyZhzQTIDNN-127" target="KjGgUwtwHEyZhzQTIDNN-40">
          <mxGeometry width="160" relative="1" as="geometry">
            <mxPoint x="6380" y="3230" as="sourcePoint" />
            <mxPoint x="7100" y="3251" as="targetPoint" />
          </mxGeometry>
        </mxCell>
        <mxCell id="KjGgUwtwHEyZhzQTIDNN-359" value="" style="endArrow=diamondThin;endFill=1;endSize=24;html=1;rounded=0;exitX=0;exitY=0.5;exitDx=0;exitDy=0;entryX=0.75;entryY=0;entryDx=0;entryDy=0;" edge="1" parent="1" source="KjGgUwtwHEyZhzQTIDNN-340" target="KjGgUwtwHEyZhzQTIDNN-161">
          <mxGeometry width="160" relative="1" as="geometry">
            <mxPoint x="6330" y="1638" as="sourcePoint" />
            <mxPoint x="6490" y="1638" as="targetPoint" />
          </mxGeometry>
        </mxCell>
        <mxCell id="KjGgUwtwHEyZhzQTIDNN-360" value="" style="endArrow=diamondThin;endFill=1;endSize=24;html=1;rounded=0;exitX=0;exitY=0.25;exitDx=0;exitDy=0;entryX=1;entryY=0;entryDx=0;entryDy=0;" edge="1" parent="1" source="KjGgUwtwHEyZhzQTIDNN-130" target="KjGgUwtwHEyZhzQTIDNN-161">
          <mxGeometry width="160" relative="1" as="geometry">
            <mxPoint x="6870" y="1858" as="sourcePoint" />
            <mxPoint x="6640" y="1757" as="targetPoint" />
          </mxGeometry>
        </mxCell>
        <mxCell id="KjGgUwtwHEyZhzQTIDNN-362" value="" style="endArrow=open;endSize=12;dashed=1;html=1;rounded=0;exitX=0.5;exitY=0;exitDx=0;exitDy=0;entryX=1;entryY=0.5;entryDx=0;entryDy=0;" edge="1" parent="1" source="KjGgUwtwHEyZhzQTIDNN-130" target="KjGgUwtwHEyZhzQTIDNN-24">
          <mxGeometry width="160" relative="1" as="geometry">
            <mxPoint x="7060" y="1780" as="sourcePoint" />
            <mxPoint x="7220" y="1780" as="targetPoint" />
          </mxGeometry>
        </mxCell>
        <mxCell id="KjGgUwtwHEyZhzQTIDNN-363" value="" style="endArrow=open;endSize=12;dashed=1;html=1;rounded=0;entryX=0.5;entryY=0;entryDx=0;entryDy=0;exitX=0;exitY=0.5;exitDx=0;exitDy=0;" edge="1" parent="1" source="KjGgUwtwHEyZhzQTIDNN-131" target="KjGgUwtwHEyZhzQTIDNN-308">
          <mxGeometry width="160" relative="1" as="geometry">
            <mxPoint x="7880" y="2260" as="sourcePoint" />
            <mxPoint x="8040" y="2260" as="targetPoint" />
          </mxGeometry>
        </mxCell>
        <mxCell id="KjGgUwtwHEyZhzQTIDNN-366" value="" style="endArrow=open;endSize=12;dashed=1;html=1;rounded=0;entryX=0.75;entryY=0;entryDx=0;entryDy=0;exitX=1;exitY=0.5;exitDx=0;exitDy=0;" edge="1" parent="1" source="KjGgUwtwHEyZhzQTIDNN-131" target="KjGgUwtwHEyZhzQTIDNN-259">
          <mxGeometry width="160" relative="1" as="geometry">
            <mxPoint x="7490" y="2010" as="sourcePoint" />
            <mxPoint x="7650" y="2010" as="targetPoint" />
          </mxGeometry>
        </mxCell>
        <mxCell id="KjGgUwtwHEyZhzQTIDNN-368" value="" style="endArrow=diamondThin;endFill=1;endSize=24;html=1;rounded=0;exitX=0.996;exitY=0.053;exitDx=0;exitDy=0;exitPerimeter=0;entryX=0;entryY=0.5;entryDx=0;entryDy=0;" edge="1" parent="1" source="KjGgUwtwHEyZhzQTIDNN-211" target="KjGgUwtwHEyZhzQTIDNN-135">
          <mxGeometry width="160" relative="1" as="geometry">
            <mxPoint x="4740" y="1920" as="sourcePoint" />
            <mxPoint x="4900" y="1920" as="targetPoint" />
          </mxGeometry>
        </mxCell>
        <mxCell id="KjGgUwtwHEyZhzQTIDNN-369" value="" style="endArrow=open;endSize=12;dashed=1;html=1;rounded=0;exitX=1.014;exitY=-0.15;exitDx=0;exitDy=0;exitPerimeter=0;entryX=0;entryY=0.5;entryDx=0;entryDy=0;" edge="1" parent="1" source="KjGgUwtwHEyZhzQTIDNN-210" target="KjGgUwtwHEyZhzQTIDNN-136">
          <mxGeometry width="160" relative="1" as="geometry">
            <mxPoint x="4860" y="2120" as="sourcePoint" />
            <mxPoint x="5020" y="2120" as="targetPoint" />
          </mxGeometry>
        </mxCell>
        <mxCell id="KjGgUwtwHEyZhzQTIDNN-370" value="" style="endArrow=diamondThin;endFill=1;endSize=24;html=1;rounded=0;exitX=1;exitY=0.5;exitDx=0;exitDy=0;entryX=0;entryY=0.5;entryDx=0;entryDy=0;" edge="1" parent="1" source="KjGgUwtwHEyZhzQTIDNN-194" target="KjGgUwtwHEyZhzQTIDNN-157">
          <mxGeometry width="160" relative="1" as="geometry">
            <mxPoint x="3950" y="2570" as="sourcePoint" />
            <mxPoint x="4380" y="2580" as="targetPoint" />
          </mxGeometry>
        </mxCell>
        <mxCell id="KjGgUwtwHEyZhzQTIDNN-372" value="" style="endArrow=diamondThin;endFill=1;endSize=24;html=1;rounded=0;exitX=0.5;exitY=0;exitDx=0;exitDy=0;" edge="1" parent="1" source="KjGgUwtwHEyZhzQTIDNN-211" target="KjGgUwtwHEyZhzQTIDNN-158">
          <mxGeometry width="160" relative="1" as="geometry">
            <mxPoint x="4430" y="2170" as="sourcePoint" />
            <mxPoint x="4590" y="2170" as="targetPoint" />
          </mxGeometry>
        </mxCell>
        <mxCell id="KjGgUwtwHEyZhzQTIDNN-373" value="" style="endArrow=open;endSize=12;dashed=1;html=1;rounded=0;exitX=0;exitY=0;exitDx=0;exitDy=0;entryX=1;entryY=0.5;entryDx=0;entryDy=0;" edge="1" parent="1" source="KjGgUwtwHEyZhzQTIDNN-134" target="KjGgUwtwHEyZhzQTIDNN-158">
          <mxGeometry width="160" relative="1" as="geometry">
            <mxPoint x="5060" y="1690" as="sourcePoint" />
            <mxPoint x="5220" y="1690" as="targetPoint" />
          </mxGeometry>
        </mxCell>
        <mxCell id="KjGgUwtwHEyZhzQTIDNN-374" value="" style="endArrow=open;endSize=12;dashed=1;html=1;rounded=0;exitX=0.5;exitY=0;exitDx=0;exitDy=0;entryX=0;entryY=0.5;entryDx=0;entryDy=0;" edge="1" parent="1" source="KjGgUwtwHEyZhzQTIDNN-200" target="KjGgUwtwHEyZhzQTIDNN-158">
          <mxGeometry width="160" relative="1" as="geometry">
            <mxPoint x="4620" y="1860" as="sourcePoint" />
            <mxPoint x="4780" y="1860" as="targetPoint" />
          </mxGeometry>
        </mxCell>
        <mxCell id="KjGgUwtwHEyZhzQTIDNN-375" value="" style="endArrow=diamondThin;endFill=0;endSize=24;html=1;rounded=0;exitX=0.25;exitY=0;exitDx=0;exitDy=0;entryX=1;entryY=0.5;entryDx=0;entryDy=0;" edge="1" parent="1" source="KjGgUwtwHEyZhzQTIDNN-200" target="KjGgUwtwHEyZhzQTIDNN-197">
          <mxGeometry width="160" relative="1" as="geometry">
            <mxPoint x="4620" y="1860" as="sourcePoint" />
            <mxPoint x="4780" y="1860" as="targetPoint" />
          </mxGeometry>
        </mxCell>
        <mxCell id="KjGgUwtwHEyZhzQTIDNN-376" value="" style="endArrow=open;endSize=12;dashed=1;html=1;rounded=0;exitX=0.75;exitY=0;exitDx=0;exitDy=0;entryX=0;entryY=0.5;entryDx=0;entryDy=0;" edge="1" parent="1" source="KjGgUwtwHEyZhzQTIDNN-200" target="KjGgUwtwHEyZhzQTIDNN-214">
          <mxGeometry width="160" relative="1" as="geometry">
            <mxPoint x="4620" y="2030" as="sourcePoint" />
            <mxPoint x="4780" y="2030" as="targetPoint" />
          </mxGeometry>
        </mxCell>
        <mxCell id="KjGgUwtwHEyZhzQTIDNN-377" value="" style="endArrow=diamondThin;endSize=12;html=1;rounded=0;exitX=0;exitY=0.5;exitDx=0;exitDy=0;entryX=1;entryY=0;entryDx=0;entryDy=0;endFill=1;" edge="1" parent="1" source="KjGgUwtwHEyZhzQTIDNN-227" target="KjGgUwtwHEyZhzQTIDNN-259">
          <mxGeometry width="160" relative="1" as="geometry">
            <mxPoint x="8030" y="2220" as="sourcePoint" />
            <mxPoint x="7940" y="2003" as="targetPoint" />
          </mxGeometry>
        </mxCell>
        <mxCell id="KjGgUwtwHEyZhzQTIDNN-378" value="" style="endArrow=diamondThin;endFill=1;endSize=24;html=1;rounded=0;entryX=0.25;entryY=0;entryDx=0;entryDy=0;" edge="1" parent="1" source="KjGgUwtwHEyZhzQTIDNN-245" target="KjGgUwtwHEyZhzQTIDNN-165">
          <mxGeometry width="160" relative="1" as="geometry">
            <mxPoint x="8240" y="2930" as="sourcePoint" />
            <mxPoint x="8400" y="2930" as="targetPoint" />
          </mxGeometry>
        </mxCell>
        <mxCell id="KjGgUwtwHEyZhzQTIDNN-380" value="" style="endArrow=open;endSize=12;dashed=1;html=1;rounded=0;exitX=1.002;exitY=0.03;exitDx=0;exitDy=0;exitPerimeter=0;entryX=0;entryY=0.5;entryDx=0;entryDy=0;" edge="1" parent="1" source="KjGgUwtwHEyZhzQTIDNN-82" target="KjGgUwtwHEyZhzQTIDNN-224">
          <mxGeometry width="160" relative="1" as="geometry">
            <mxPoint x="6720" y="1910" as="sourcePoint" />
            <mxPoint x="6790" y="1990" as="targetPoint" />
          </mxGeometry>
        </mxCell>
        <mxCell id="KjGgUwtwHEyZhzQTIDNN-379" value="" style="endArrow=diamondThin;endFill=1;endSize=24;html=1;rounded=0;exitX=1;exitY=0.5;exitDx=0;exitDy=0;entryX=0;entryY=0.5;entryDx=0;entryDy=0;" edge="1" parent="1" source="KjGgUwtwHEyZhzQTIDNN-254" target="KjGgUwtwHEyZhzQTIDNN-241">
          <mxGeometry width="160" relative="1" as="geometry">
            <mxPoint x="8710" y="2160" as="sourcePoint" />
            <mxPoint x="8870" y="2160" as="targetPoint" />
          </mxGeometry>
        </mxCell>
        <mxCell id="KjGgUwtwHEyZhzQTIDNN-382" value="" style="endArrow=open;endSize=12;dashed=1;html=1;rounded=0;exitX=1;exitY=0.5;exitDx=0;exitDy=0;entryX=-0.011;entryY=0.107;entryDx=0;entryDy=0;entryPerimeter=0;" edge="1" parent="1" source="KjGgUwtwHEyZhzQTIDNN-91" target="KjGgUwtwHEyZhzQTIDNN-255">
          <mxGeometry width="160" relative="1" as="geometry">
            <mxPoint x="6840" y="1930" as="sourcePoint" />
            <mxPoint x="7000" y="1930" as="targetPoint" />
          </mxGeometry>
        </mxCell>
        <mxCell id="KjGgUwtwHEyZhzQTIDNN-384" value="" style="endArrow=open;endSize=12;dashed=1;html=1;rounded=0;exitX=0.5;exitY=0;exitDx=0;exitDy=0;entryX=0.143;entryY=1.077;entryDx=0;entryDy=0;entryPerimeter=0;" edge="1" parent="1" source="KjGgUwtwHEyZhzQTIDNN-29" target="KjGgUwtwHEyZhzQTIDNN-257">
          <mxGeometry width="160" relative="1" as="geometry">
            <mxPoint x="6900" y="2890" as="sourcePoint" />
            <mxPoint x="7060" y="2890" as="targetPoint" />
          </mxGeometry>
        </mxCell>
        <mxCell id="KjGgUwtwHEyZhzQTIDNN-385" value="Use" style="endArrow=open;endSize=12;dashed=1;html=1;rounded=0;entryX=0;entryY=0.5;entryDx=0;entryDy=0;exitX=0.75;exitY=0;exitDx=0;exitDy=0;" edge="1" parent="1" source="KjGgUwtwHEyZhzQTIDNN-68" target="KjGgUwtwHEyZhzQTIDNN-257">
          <mxGeometry width="160" relative="1" as="geometry">
            <mxPoint x="6440" y="2760" as="sourcePoint" />
            <mxPoint x="6600" y="2760" as="targetPoint" />
          </mxGeometry>
        </mxCell>
        <mxCell id="KjGgUwtwHEyZhzQTIDNN-386" value="" style="endArrow=diamondThin;endFill=1;endSize=24;html=1;rounded=0;entryX=0;entryY=0.5;entryDx=0;entryDy=0;exitX=1;exitY=0;exitDx=0;exitDy=0;" edge="1" parent="1" source="KjGgUwtwHEyZhzQTIDNN-153" target="KjGgUwtwHEyZhzQTIDNN-281">
          <mxGeometry width="160" relative="1" as="geometry">
            <mxPoint x="4970" y="1680" as="sourcePoint" />
            <mxPoint x="5130" y="1680" as="targetPoint" />
          </mxGeometry>
        </mxCell>
        <mxCell id="KjGgUwtwHEyZhzQTIDNN-388" value="" style="endArrow=diamondThin;endFill=1;endSize=24;html=1;rounded=0;exitX=0;exitY=0.5;exitDx=0;exitDy=0;entryX=1;entryY=0.5;entryDx=0;entryDy=0;" edge="1" parent="1" source="KjGgUwtwHEyZhzQTIDNN-286" target="KjGgUwtwHEyZhzQTIDNN-218">
          <mxGeometry width="160" relative="1" as="geometry">
            <mxPoint x="4960" y="2170" as="sourcePoint" />
            <mxPoint x="5120" y="2170" as="targetPoint" />
          </mxGeometry>
        </mxCell>
        <mxCell id="KjGgUwtwHEyZhzQTIDNN-389" value="" style="endArrow=open;endSize=12;dashed=1;html=1;rounded=0;exitX=1;exitY=0.5;exitDx=0;exitDy=0;entryX=0;entryY=0.5;entryDx=0;entryDy=0;" edge="1" parent="1" source="KjGgUwtwHEyZhzQTIDNN-203" target="KjGgUwtwHEyZhzQTIDNN-288">
          <mxGeometry width="160" relative="1" as="geometry">
            <mxPoint x="4640" y="2170" as="sourcePoint" />
            <mxPoint x="4800" y="2170" as="targetPoint" />
          </mxGeometry>
        </mxCell>
        <mxCell id="KjGgUwtwHEyZhzQTIDNN-390" value="" style="endArrow=open;endSize=12;dashed=1;html=1;rounded=0;exitX=0;exitY=0.5;exitDx=0;exitDy=0;entryX=1;entryY=0.5;entryDx=0;entryDy=0;" edge="1" parent="1" source="KjGgUwtwHEyZhzQTIDNN-223" target="KjGgUwtwHEyZhzQTIDNN-339">
          <mxGeometry width="160" relative="1" as="geometry">
            <mxPoint x="7320" y="1680" as="sourcePoint" />
            <mxPoint x="7480" y="1680" as="targetPoint" />
          </mxGeometry>
        </mxCell>
        <mxCell id="KjGgUwtwHEyZhzQTIDNN-391" value="" style="endArrow=open;endSize=12;dashed=1;html=1;rounded=0;entryX=0;entryY=0.5;entryDx=0;entryDy=0;" edge="1" parent="1" target="KjGgUwtwHEyZhzQTIDNN-338">
          <mxGeometry width="160" relative="1" as="geometry">
            <mxPoint x="6580" y="1940" as="sourcePoint" />
            <mxPoint x="6740" y="1680" as="targetPoint" />
          </mxGeometry>
        </mxCell>
        <mxCell id="KjGgUwtwHEyZhzQTIDNN-392" value="" style="endArrow=open;endSize=12;dashed=1;html=1;rounded=0;exitX=1.007;exitY=0.03;exitDx=0;exitDy=0;exitPerimeter=0;entryX=0;entryY=0.25;entryDx=0;entryDy=0;" edge="1" parent="1" source="KjGgUwtwHEyZhzQTIDNN-1" target="KjGgUwtwHEyZhzQTIDNN-337">
          <mxGeometry width="160" relative="1" as="geometry">
            <mxPoint x="6270" y="1680" as="sourcePoint" />
            <mxPoint x="6430" y="1680" as="targetPoint" />
          </mxGeometry>
        </mxCell>
        <mxCell id="KjGgUwtwHEyZhzQTIDNN-393" value="" style="endArrow=open;endSize=12;dashed=1;html=1;rounded=0;exitX=1;exitY=0.5;exitDx=0;exitDy=0;entryX=0;entryY=0;entryDx=0;entryDy=0;" edge="1" parent="1" source="KjGgUwtwHEyZhzQTIDNN-273" target="KjGgUwtwHEyZhzQTIDNN-337">
          <mxGeometry width="160" relative="1" as="geometry">
            <mxPoint x="6020" y="1200" as="sourcePoint" />
            <mxPoint x="6180" y="1200" as="targetPoint" />
          </mxGeometry>
        </mxCell>
        <mxCell id="KjGgUwtwHEyZhzQTIDNN-394" value="" style="endArrow=diamondThin;endFill=1;endSize=24;html=1;rounded=0;exitX=1;exitY=0.5;exitDx=0;exitDy=0;entryX=0;entryY=0.5;entryDx=0;entryDy=0;" edge="1" parent="1" source="KjGgUwtwHEyZhzQTIDNN-293" target="KjGgUwtwHEyZhzQTIDNN-269">
          <mxGeometry width="160" relative="1" as="geometry">
            <mxPoint x="4940" y="1310" as="sourcePoint" />
            <mxPoint x="5100" y="1310" as="targetPoint" />
          </mxGeometry>
        </mxCell>
        <mxCell id="KjGgUwtwHEyZhzQTIDNN-395" value="" style="endArrow=open;endSize=12;dashed=1;html=1;rounded=0;exitX=1;exitY=0.5;exitDx=0;exitDy=0;entryX=0.385;entryY=0.027;entryDx=0;entryDy=0;entryPerimeter=0;" edge="1" parent="1" source="KjGgUwtwHEyZhzQTIDNN-307" target="KjGgUwtwHEyZhzQTIDNN-60">
          <mxGeometry width="160" relative="1" as="geometry">
            <mxPoint x="6240" y="3350" as="sourcePoint" />
            <mxPoint x="6400" y="3350" as="targetPoint" />
          </mxGeometry>
        </mxCell>
      </root>
    </mxGraphModel>
  </diagram>
</mxfile>
